<?xml version="1.0" encoding="UTF-8" standalone="no"?>
<!-- Created with Inkscape (http://www.inkscape.org/) -->
<svg xmlns:rdf="http://www.w3.org/1999/02/22-rdf-syntax-ns#" xmlns="http://www.w3.org/2000/svg" height="400" width="400" version="1.1" xmlns:cc="http://creativecommons.org/ns#" xmlns:dc="http://purl.org/dc/elements/1.1/">
 <defs>
  <filter id="filter6565" color-interpolation-filters="sRGB">
   <feFlood flood-opacity="0.8" result="flood" flood-color="rgb(0,0,0)"/>
   <feComposite operator="in" result="composite1" in2="SourceGraphic" in="flood"/>
   <feGaussianBlur stdDeviation="2" result="blur"/>
   <feOffset result="offset" dx="0" dy="2"/>
   <feComposite operator="over" result="composite2" in2="offset" in="SourceGraphic"/>
  </filter>
  <filter id="filter6553-2" color-interpolation-filters="sRGB">
   <feFlood result="flood" flood-color="rgb(0,0,0)" flood-opacity="0.8"/>
   <feComposite operator="in" result="composite1" in2="SourceGraphic" in="flood"/>
   <feGaussianBlur stdDeviation="2" result="blur"/>
   <feOffset result="offset" dx="0" dy="2"/>
   <feComposite operator="over" result="composite2" in2="offset" in="SourceGraphic"/>
  </filter>
 </defs>
 <metadata>
  <rdf:RDF>
   <cc:Work rdf:about="">
    <dc:format>image/svg+xml</dc:format>
    <dc:type rdf:resource="http://purl.org/dc/dcmitype/StillImage"/>
    <dc:title/>
   </cc:Work>
  </rdf:RDF>
 </metadata>
 <g transform="translate(0,-652.36218)">
  <g transform="matrix(0.45538333,0,0,0.45538333,29.231251,590.40221)">
   <path d="m223.59,548.28c-21.986,0.12833-20.721,18.816-15.125,27.781,5.7766,9.2398,15.03,5.7761,33.531,1.1562,0.3739-0.0936,0.76525-0.16092,1.1562-0.25l16.812,81.688-42.25,58.812c-20.78-12.71-45.19-20.06-71.33-20.06-75.68,0.02-137.02,61.38-137.04,137.06,0.0142,75.66,61.364,137.02,137.04,137.03,63.44-0.02,116.8-43.16,132.4-101.69l21.25,3.4688c1.9623,2.2862,4.4535,4.1141,7.2812,5.2812l-6.4375,33.844h-10.75v13.344h33.312v-13.344h-8.9688l6.35-33.4c7.625-2.5659,13.125-9.7601,13.125-18.25,0-0.68632-0.055-1.3635-0.125-2.0312l147.06-160.81,7.5312,16.375c-42.401,23.297-71.142,68.382-71.156,120.19,0.0143,75.66,61.35,137.02,137.03,137.03,75.689-0.0214,137.06-61.371,137.06-137.03-0.007-75.696-61.374-137.02-137.06-137.03-17.516,0.002-34.26,3.2911-49.656,9.2812l-30.406-66.125c31.655-4.2469,50.261-4.7747,63.844-5.9062,15.107-1.2586,25.462-4.1118,36.594-13.531l0.46875-0.375,0.40625-0.46875s1.6321-1.8748,3.8438-4,5.3919-4.3453,5.625-4.4375c3.5147-1.3906,12.654-2.2464,20.188-2.1562,7.5334,0.0902,13.688,0.75,13.688,0.75,2.0208,0.20862,4.1111-0.40613,5.6875-1.6875s2.6039-3.2292,2.8125-5.25c0.20862-2.0208-0.40612-4.1111-1.6875-5.6875s-3.198-2.6039-5.2188-2.8125c0,0-6.7868-0.71304-15.094-0.8125-8.3069-0.0995-17.939,0.0358-26.062,3.25-4.8422,1.9158-7.918,4.995-10.688,7.6562-2.3662,2.2736-3.6358,3.7567-4.125,4.3125-9.0384,7.6146-13.603,8.6366-27.719,9.8125-14.198,1.1828-36.646,1.7415-75.938,7.5625-2.2069,0.32353-4.2484,1.6441-5.4375,3.5312s-1.5045,4.3071-0.84375,6.4375c-0.34629,1.8477-0.0907,3.8033,0.71875,5.5l8.0625,17.5-186.19-5.8125-16.312-79.438c18.694-1.4716,40.048-0.91074,41.219-0.78125,3.506,0.39273,10.406-1.1675,10.406-8.0938,0-6.9262-11.562-9.2188-11.562-9.2188s-50.809-6.954-75.094-8.125c-0.75823-0.0355-1.5095-0.0354-2.2188-0.0312zm57.188,123.31,190.84,6.1875,1.625,3.5625l-144.77,157.41,6.03-31.63h11.156v-13.344h-33.312v13.344h8.5625l-5.875,31-34.25-166.53zm-15.906,10.938,34.312,166.81c-1.1884,1.6069-2.1667,3.3776-2.8125,5.3125l-14.125-2.3125c0.76438-5.8533,1.1551-11.814,1.1562-17.875-0.008-43.178-19.98-81.691-51.188-106.81l32.656-45.125zm-118.5,32.656c22.263,0.0362,43.085,6.1587,60.906,16.781l-59.19,83.28c-0.56565-0.05-1.1401-0.0625-1.7188-0.0625-10.636,0-19.25,8.6142-19.25,19.25s8.6142,19.281,19.25,19.281c4.2369,0,8.1325-1.4,11.312-3.7188l103.41,16.938c-14.18,50.04-60.12,86.69-114.71,86.78-65.84-0.12-119.15-53.4-119.26-119.25,0.114-65.88,53.415-119.18,119.26-119.28zm407.91,0.0312c65.864,0.10711,119.17,53.379,119.28,119.25-0.12139,65.842-53.425,119.11-119.28,119.25-65.842-0.14281-119.12-53.408-119.22-119.25,0.0726-44.64,24.572-83.495,60.844-103.94l42.688,92.781c-2.2395,3.1471-3.5625,6.9994-3.5625,11.156,0,10.636,8.6142,19.25,19.25,19.25s19.25-8.6142,19.25-19.25c0-10.542-8.4619-19.1-18.969-19.25l-42.469-92.25c13.116-4.9773,27.324-7.7258,42.188-7.75zm-332.53,26.87c26.742,21.859,43.81,55.11,43.875,92.375-0.009,5.0803-0.34577,10.088-0.96875,15l-99.062-16.25c-0.2162-3.4137-1.3279-6.5798-3.0938-9.2812l59.25-81.844z" transform="translate(24.65625,-227.52995)"/>
  </g>
  <path style="direction:ltr;baseline-shift:baseline;block-progression:tb;text-indent:0;color:#000000;enable-background:accumulate;text-transform:none;text-align:start;" d="m200.01,697.37c-61.722,0-112.05,50.326-112.05,112.05,0,61.722,50.326,112.03,112.05,112.03,61.722,0,112.03-50.308,112.03-112.03s-50.308-112.05-112.03-112.05zm0,26.142c19.588,0,37.614,6.4908,52.03,17.446l-120.49,120.47c-10.95-14.414-17.446-32.429-17.446-52.012,0-47.594,38.312-85.906,85.906-85.906zm68.441,33.894c10.954,14.421,17.446,32.422,17.446,52.012,0,47.594-38.294,85.888-85.888,85.888-19.59,0-37.591-6.4922-52.012-17.446l120.45-120.44z" filter="url(#filter6565)" stroke="#000" stroke-miterlimit="4" stroke-dasharray="none" stroke-width="3.25081587" fill="#7d1400"/>
  <g style="letter-spacing:-2.2168107px;word-spacing:0px;" font-weight="normal" transform="matrix(0.94351265,0,0,1.0598692,-124.59436,1.3977249e-4)" line-height="125%" filter="url(#filter6553-2)" font-size="46.66969681px" font-style="normal" font-family="Sans" fill="#000">
   <path d="m233.77,926.96c-1.0579-1.7734-2.2402-3.6713-3.5469-5.6937-1.3068-2.0535-2.6602-4.1069-4.0603-6.1604-1.4001-2.0846-2.8313-4.0914-4.2936-6.0204-1.4312-1.9601-2.8002-3.718-4.1069-5.2737v23.148h-5.787v-32.342h4.807c1.2445,1.3068,2.5824,2.8624,4.0136,4.667,1.4312,1.7735,2.8624,3.6247,4.2936,5.5537,1.4623,1.929,2.8624,3.8736,4.2003,5.8337,1.369,1.929,2.5824,3.7336,3.6402,5.4137v-21.468h5.8337v32.342h-4.9937"/>
   <path d="m249.11,910.76c0,1.7735,0.21779,3.3913,0.65338,4.8536,0.43557,1.4312,1.0578,2.6602,1.8668,3.6869,0.84004,0.99563,1.8512,1.7735,3.0335,2.3335,1.1823,0.56004,2.5202,0.84006,4.0136,0.84005,1.4623,0.00001,2.7846-0.28001,3.9669-0.84005,1.1823-0.56003,2.1779-1.3379,2.9869-2.3335,0.84003-1.0267,1.4778-2.2557,1.9134-3.6869,0.43556-1.4623,0.65335-3.0802,0.65338-4.8536-0.00003-1.7734-0.21782-3.3758-0.65338-4.807-0.43561-1.4623-1.0734-2.6913-1.9134-3.6869-0.80897-1.0267-1.8046-1.8201-2.9869-2.3802-1.1823-0.56001-2.5046-0.84003-3.9669-0.84006-1.4934,0.00003-2.8313,0.28005-4.0136,0.84006-1.1823,0.56006-2.1935,1.3534-3.0335,2.3802-0.80895,1.0268-1.4312,2.2557-1.8668,3.6869-0.43559,1.4312-0.65338,3.0336-0.65338,4.807m25.248,0c-0.00003,2.7691-0.42006,5.2115-1.2601,7.3271-0.80897,2.1157-1.929,3.8892-3.3602,5.3204-1.4001,1.4001-3.0491,2.4579-4.947,3.1735s-3.9203,1.0734-6.0671,1.0734-4.1847-0.3578-6.1137-1.0734c-1.8979-0.71561-3.5625-1.7734-4.9937-3.1735-1.4001-1.4312-2.5202-3.2046-3.3602-5.3204-0.84006-2.1157-1.2601-4.5581-1.2601-7.3271s0.42003-5.1959,1.2601-7.2805c0.84005-2.1157,1.9757-3.8891,3.4069-5.3204,1.4623-1.4312,3.1424-2.5046,5.0403-3.2202,1.8979-0.71557,3.9047-1.0734,6.0204-1.0734,2.1157,0.00003,4.1225,0.35783,6.0204,1.0734,1.8979,0.71563,3.5469,1.789,4.947,3.2202,1.4312,1.4312,2.5668,3.2047,3.4069,5.3204,0.84002,2.0846,1.26,4.5114,1.2601,7.2805"/>
   <path d="m296.93,927.33c-1.7112,0-3.438-0.0622-5.1803-0.18668-1.7423-0.0933-3.2669-0.31113-4.5736-0.65337v-31.409c0.68448-0.12442,1.4156-0.23332,2.1935-0.32669,0.77782-0.12442,1.5712-0.21776,2.3802-0.28002,0.80893-0.0622,1.6023-0.10886,2.3802-0.14001,0.80893-0.0311,1.5712-0.0466,2.2868-0.0467,1.9601,0.00003,3.7802,0.15559,5.4604,0.46669,1.6801,0.28005,3.1268,0.76231,4.3403,1.4468,1.2445,0.68452,2.209,1.5868,2.8935,2.7068,0.68447,1.1201,1.0267,2.5046,1.0267,4.1536-0.00003,1.5246-0.37339,2.8313-1.1201,3.9202-0.71563,1.089-1.7268,1.9602-3.0335,2.6135,1.9601,0.65339,3.4069,1.6179,4.3403,2.8935,0.93336,1.2756,1.4001,2.8935,1.4001,4.8536-0.00003,3.3291-1.2134,5.8337-3.6402,7.5138-2.4268,1.649-6.1449,2.4735-11.154,2.4735m-3.9669-14.934,0,9.8473c0.65337,0.0622,1.3534,0.1089,2.1001,0.14001,0.7467,0.0311,1.4312,0.0467,2.0535,0.0467,1.2134,0.00001,2.3335-0.0778,3.3602-0.23335,1.0578-0.15556,1.9601-0.42002,2.7068-0.79338,0.77781-0.40447,1.3845-0.93339,1.8201-1.5868,0.46668-0.65337,0.70002-1.4934,0.70005-2.5202-0.00003-1.8357-0.66896-3.1113-2.0068-3.8269-1.3379-0.71559-3.1891-1.0734-5.5537-1.0734h-5.1803m0-4.6203,4.1536,0c2.2401,0.00002,3.998-0.31111,5.2737-0.9334,1.2756-0.65335,1.9134-1.8045,1.9135-3.4536-0.00003-1.5556-0.66896-2.6602-2.0068-3.3136-1.3068-0.65335-3.018-0.98004-5.1337-0.98007-0.90229,0.00003-1.7112,0.0156-2.4268,0.0467-0.6845,0.0311-1.2756,0.0778-1.7734,0.14001v8.4939"/>
   <path d="m315.59,894.62,5.8804,0,0,32.342-5.8804,0,0-32.342"/>
   <path d="m341.42,927.66c-2.4268,0-4.6048-0.37336-6.5338-1.1201-1.929-0.74672-3.5625-1.8357-4.9003-3.2669-1.3379-1.4623-2.3646-3.2358-3.0802-5.3204-0.71561-2.0846-1.0734-4.4803-1.0734-7.1871s0.40447-5.1025,1.2134-7.1871c0.84005-2.0846,1.9757-3.8424,3.4069-5.2737,1.4312-1.4623,3.1113-2.5668,5.0403-3.3136,1.929-0.74668,3.998-1.12,6.2071-1.1201,1.3378,0.00003,2.5512,0.10893,3.6402,0.32669,1.0889,0.18671,2.0379,0.4045,2.8468,0.65337,0.80891,0.24894,1.4778,0.5134,2.0068,0.79339,0.5289,0.28005,0.90226,0.48228,1.1201,0.6067l-1.7268,4.807c-0.74674-0.46667-1.8201-0.90225-3.2202-1.3068-1.369-0.43556-2.8624-0.65335-4.4803-0.65338-1.4001,0.00003-2.7069,0.24894-3.9203,0.74672-1.2134,0.46672-2.2713,1.1823-3.1735,2.1468-0.87117,0.96453-1.5557,2.1779-2.0535,3.6402-0.49782,1.4623-0.74673,3.158-0.74672,5.087-0.00001,1.7112,0.18667,3.2824,0.56004,4.7136,0.40446,1.4312,1.0112,2.6757,1.8201,3.7336,0.80893,1.0267,1.8357,1.8357,3.0802,2.4268,1.2445,0.56004,2.7379,0.84006,4.4803,0.84005,2.0846,0.00001,3.7802-0.20223,5.087-0.6067,1.3067-0.43558,2.3179-0.84005,3.0335-1.2134l1.5868,4.807c-0.37338,0.24891-0.88675,0.49781-1.5401,0.74672-0.62228,0.2489-1.369,0.49781-2.2401,0.74671-0.87119,0.2178-1.8513,0.38892-2.9402,0.51337-1.089,0.15556-2.2557,0.23335-3.5002,0.23335"/>
   <path d="m366.24,908.94c1.4001-2.3335,2.769-4.6981,4.1069-7.0938,1.3378-2.3957,2.5513-4.807,3.6402-7.2338h6.5338c-1.7424,3.298-3.5625,6.5805-5.4604,9.8473-1.8668,3.2358-3.8736,6.5027-6.0204,9.8006v12.694h-5.8804v-12.601c-2.1468-3.3291-4.1692-6.6271-6.0671-9.894-1.8979-3.2668-3.718-6.5493-5.4604-9.8473h6.9071c1.089,2.4269,2.2868,4.8381,3.5936,7.2338,1.3067,2.3957,2.6757,4.7603,4.1069,7.0938"/>
   <path d="m395.05,927.66c-2.4268,0-4.6048-0.37336-6.5338-1.1201-1.929-0.74672-3.5625-1.8357-4.9003-3.2669-1.3379-1.4623-2.3646-3.2358-3.0802-5.3204-0.71561-2.0846-1.0734-4.4803-1.0734-7.1871-0.00001-2.7068,0.40446-5.1025,1.2134-7.1871,0.84005-2.0846,1.9757-3.8424,3.4069-5.2737,1.4312-1.4623,3.1113-2.5668,5.0403-3.3136,1.929-0.74668,3.998-1.12,6.2071-1.1201,1.3378,0.00003,2.5513,0.10893,3.6402,0.32669,1.0889,0.18671,2.0379,0.4045,2.8468,0.65337,0.80892,0.24894,1.4778,0.5134,2.0068,0.79339,0.52889,0.28005,0.90225,0.48228,1.1201,0.6067l-1.7268,4.807c-0.74674-0.46667-1.8201-0.90225-3.2202-1.3068-1.369-0.43556-2.8624-0.65335-4.4803-0.65338-1.4001,0.00003-2.7069,0.24894-3.9202,0.74672-1.2134,0.46672-2.2713,1.1823-3.1735,2.1468-0.87118,0.96453-1.5557,2.1779-2.0535,3.6402-0.49782,1.4623-0.74672,3.158-0.74671,5.087-0.00001,1.7112,0.18666,3.2824,0.56003,4.7136,0.40446,1.4312,1.0112,2.6757,1.8201,3.7336,0.80893,1.0267,1.8357,1.8357,3.0802,2.4268,1.2445,0.56004,2.7379,0.84006,4.4803,0.84005,2.0846,0.00001,3.7802-0.20223,5.087-0.6067,1.3067-0.43558,2.3179-0.84005,3.0335-1.2134l1.5868,4.807c-0.37339,0.24891-0.88675,0.49781-1.5401,0.74672-0.62229,0.2489-1.369,0.49781-2.2402,0.74671-0.87119,0.2178-1.8512,0.38892-2.9402,0.51337-1.089,0.15556-2.2557,0.23335-3.5002,0.23335"/>
   <path d="m428.7,921.87,0,5.087-20.441,0,0-32.342,5.8804,0,0,27.255,14.561,0"/>
   <path d="m430.93,926.96,0-32.342,20.768,0,0,4.9937-14.888,0,0,7.9805,13.254,0,0,4.9003-13.254,0,0,9.474,16.008,0,0,4.9936-21.888,0"/>
   <path d="m463.9,922.57c2.1157,0.00001,3.6558-0.35779,4.6203-1.0734,0.96449-0.7156,1.4467-1.7268,1.4468-3.0335-0.00002-0.77782-0.17114-1.4468-0.51337-2.0068-0.31114-0.56002-0.77784-1.0578-1.4001-1.4934-0.59116-0.46668-1.3223-0.88671-2.1935-1.2601-0.87118-0.40446-1.8668-0.79337-2.9869-1.1667-1.1201-0.40446-2.209-0.84004-3.2669-1.3068-1.0267-0.4978-1.9446-1.1045-2.7535-1.8201-0.77784-0.71559-1.4156-1.5712-1.9135-2.5668-0.4667-0.9956-0.70005-2.1934-0.70005-3.5936,0-2.9246,1.0112-5.2114,3.0335-6.8604,2.0224-1.6801,4.7759-2.5201,8.2605-2.5202,2.0223,0.00003,3.8113,0.23338,5.367,0.70004,1.5867,0.43562,2.8313,0.91787,3.7336,1.4468l-1.8201,4.7603c-1.0579-0.59112-2.2246-1.0423-3.5002-1.3534-1.2446-0.3111-2.5357-0.46667-3.8736-0.4667-1.5868,0.00003-2.8313,0.32672-3.7336,0.98007-0.87117,0.6534-1.3068,1.5712-1.3068,2.7535,0,0.71563,0.14,1.3379,0.42003,1.8668,0.31112,0.49783,0.73115,0.94897,1.2601,1.3534,0.56003,0.40449,1.1978,0.77785,1.9135,1.1201,0.7467,0.34227,1.5556,0.66895,2.4268,0.98007,1.5245,0.56005,2.878,1.1356,4.0603,1.7268,1.2134,0.56006,2.2246,1.2446,3.0335,2.0535,0.84003,0.77784,1.4778,1.7112,1.9135,2.8002,0.43556,1.0579,0.65335,2.349,0.65337,3.8736-0.00002,2.9246-1.0423,5.1959-3.1269,6.8138-2.0535,1.5868-5.0714,2.3802-9.0539,2.3802-1.3379,0-2.5668-0.0933-3.6869-0.28002-1.089-0.15557-2.069-0.3578-2.9402-0.60671-0.84006-0.2489-1.5712-0.49781-2.1935-0.74671-0.62227-0.28002-1.1201-0.52892-1.4934-0.74672l1.7268-4.807c0.84005,0.4667,1.9757,0.93339,3.4069,1.4001,1.4312,0.4667,3.158,0.70005,5.1803,0.70004"/>
  </g>
 </g>
</svg>
