<?xml version="1.0" encoding="UTF-8" standalone="no"?>
<!-- Created with Inkscape (http://www.inkscape.org/) -->
<svg xmlns:rdf="http://www.w3.org/1999/02/22-rdf-syntax-ns#" xmlns="http://www.w3.org/2000/svg" height="400" width="400" version="1.1" xmlns:cc="http://creativecommons.org/ns#" xmlns:dc="http://purl.org/dc/elements/1.1/">
 <defs>
  <filter id="filter6553" style="color-interpolation-filters:sRGB;">
   <feFlood result="flood" flood-color="rgb(0,0,0)" flood-opacity="0.8"/>
   <feComposite operator="in" result="composite1" in2="SourceGraphic" in="flood"/>
   <feGaussianBlur result="blur" stdDeviation="2" in="composite"/>
   <feOffset result="offset" dx="0" dy="2"/>
   <feComposite operator="over" result="composite2" in2="offset" in="SourceGraphic"/>
  </filter>
  <filter id="filter6565" style="color-interpolation-filters:sRGB;">
   <feFlood result="flood" flood-color="rgb(0,0,0)" flood-opacity="0.8"/>
   <feComposite operator="in" result="composite1" in2="SourceGraphic" in="flood"/>
   <feGaussianBlur result="blur" stdDeviation="2" in="composite"/>
   <feOffset result="offset" dx="0" dy="2"/>
   <feComposite operator="over" result="composite2" in2="offset" in="SourceGraphic"/>
  </filter>
 </defs>
 <metadata>
  <rdf:RDF>
   <cc:Work rdf:about="">
    <dc:format>image/svg+xml</dc:format>
    <dc:type rdf:resource="http://purl.org/dc/dcmitype/StillImage"/>
    <dc:title/>
   </cc:Work>
  </rdf:RDF>
 </metadata>
 <g transform="translate(0,-652.36204)">
  <g transform="matrix(1.014918,0,0,1.014918,-184.34663,645.89672)" fill="#000">
   <g transform="matrix(5.142079,0,0,-5.142079,339.4083,90.213288)">
    <path d="m0,0,0-11.203c1.44,0.211,2.549,1.456,2.549,2.952v5.298c0,1.499-1.109,2.742-2.549,2.953m-0.438-12.619c-0.083,0-0.166,0.012-0.25,0.02l-0.596,0.081-0.1,0.619v13.242l0.641,0.046c0.139,0.019,0.222,0.029,0.305,0.029,2.41,0,4.37-1.963,4.37-4.371v-5.298c0-2.407-1.96-4.368-4.37-4.368" fill-rule="nonzero" fill="#000"/>
   </g>
   <path d="m340.19,198.61-108.36,0,0-17.606,108.36,0,0,17.606z" fill-rule="nonzero"/>
   <path d="m240.75,169.17,90.516,0,0-90.521-90.516,0,0,90.521zm96.841,6.3093-103.17,0,0-103.14,103.17,0,0,103.14z" fill-rule="nonzero"/>
   <path d="m265.91,159.06-9.4974,0,0-65.058,9.4974,0,0,65.058z" fill-rule="nonzero"/>
   <path d="m290.07,159.06-9.482,0,0-65.058,9.482,0,0,65.058z" fill-rule="nonzero"/>
   <path d="m315.61,159.06-9.4768,0,0-65.058,9.4768,0,0,65.058z" fill-rule="nonzero"/>
   <g transform="matrix(5.142079,0,0,-5.142079,298.90464,54.670828)">
    <path d="M0,0c0.04-0.009,0.079-0.016,0.118-0.022,0.014-0.118,0.036-0.231,0.072-0.335-0.01-0.004-0.027-0.011-0.044-0.018-0.04,0.13-0.089,0.256-0.146,0.375m6.758-0.224c-0.013,0.02-0.019,0.04-0.035,0.063,0.33,0.391,0.538,0.894,0.538,1.449,0,1.258-1.017,2.277-2.277,2.277-0.812,0-1.519-0.43-1.924-1.071-0.03,1.36-1.134,2.452-2.5,2.452-0.476,0-0.908-0.138-1.289-0.366-0.386,0.226-0.832,0.366-1.311,0.366-0.225,0-0.433-0.037-0.643-0.09-0.418,0.402-0.987,0.649-1.616,0.649-1.177,0-2.143-0.866-2.316-1.997-0.182,0.03-0.363,0.057-0.552,0.057-1.394,0-2.582-0.83-3.13-2.019-0.077,0.009-0.149,0.024-0.228,0.024-0.668,0-1.268-0.254-1.723-0.661-0.136,0.028-0.277,0.048-0.427,0.048-1.136,0-2.055-0.923-2.055-2.058,0-0.479,0.169-0.91,0.436-1.259-0.542-0.331-0.897-0.861-0.897-1.466,0-1.003,0.972-1.815,2.172-1.815,1.202,0,2.171,0.812,2.171,1.815,0,0.242-0.056,0.472-0.16,0.684,0.155-0.027,0.316-0.044,0.483-0.044,0.535,0,1.028,0.165,1.439,0.442,0.543-0.372,1.204-0.588,1.919-0.588,0.544,0,1.054,0.141,1.515,0.363,0.55-0.963,1.58-1.62,2.768-1.62,0.59,0,1.132,0.167,1.605,0.444,0.454-0.793,1.297-1.334,2.276-1.334,0.563,0,1.082,0.179,1.507,0.479,0.431-0.198,0.902-0.317,1.405-0.317,0.353,0,0.683,0.069,1.002,0.167,0.152-0.028,0.312-0.047,0.477-0.047,1.481,0,2.681,1.2,2.681,2.681,0,0.976-0.53,1.824-1.311,2.292" fill-rule="nonzero" fill="#000"/>
   </g>
  </g>
  <g transform="matrix(0.81270397,0,0,0.81270397,9.7761027,540.95781)" fill="#000">
   <g transform="matrix(5.7018265,0,0,-5.7018265,436.96359,432.89344)">
    <path fill-rule="nonzero" fill="#000" d="m0,0-36.84,0c-1.983,0-1.217,3.997-1.217,3.997h39.27s0.406-3.997-1.213-3.997"/>
   </g>
   <path fill-rule="nonzero" d="m446.79,380.32-230.3,0,0-16.974,230.3,0,0,16.974z"/>
   <g transform="matrix(5.7018265,0,0,-5.7018265,327.79642,390.68077)">
    <path fill-rule="nonzero" fill="#000" d="m0,0c0.311,0.013,0.536-0.121,0.644-0.25,0.228,0.035,0.589,0.11,1.154,0.241,1.315,0.31,1.873,0.632,2.311,0.898h-4.655c0.142-0.209,0.261-0.41,0.347-0.567,0.067-0.121,0.155-0.287,0.199-0.322"/>
   </g>
   <g transform="matrix(5.7018265,0,0,-5.7018265,309.35443,385.61344)">
    <path fill-rule="nonzero" fill="#000" d="M0,0-1.846,0c0.251-0.235,0.356-0.336,0.858-0.35,0.363-0.023,0.684,0.142,0.988,0.35"/>
   </g>
   <g transform="matrix(5.7018265,0,0,-5.7018265,405.3361,385.61344)">
    <path fill-rule="nonzero" fill="#000" d="M0,0-1.361,0-0.495-0.292,0,0z"/>
   </g>
   <g transform="matrix(5.7018265,0,0,-5.7018265,245.994,394.95714)">
    <path fill-rule="nonzero" fill="#000" d="m0,0c1.059,0.341,1.991,0.865,2.887,1.371,0.161,0.092,0.321,0.18,0.481,0.268h-6.839c0.401-0.659,1.601-2.238,3.471-1.639"/>
   </g>
   <g transform="matrix(5.7018265,0,0,-5.7018265,219.11103,387.12876)">
    <path fill-rule="nonzero" fill="#000" d="m0,0,0.545,0.266-2.221,0,0-2.975,5.441,0c-1.926,0.07-3.266,1.686-3.765,2.709"/>
   </g>
   <g transform="matrix(5.7018265,0,0,-5.7018265,453.70415,385.61344)">
    <path fill-rule="nonzero" fill="#000" d="m0,0-4.323,0,1.771-0.953-0.569-1.068-3.349,1.792-2.372-1.393-3.002,1.015-4.053,0c-0.74,0-0.954-0.134-1.395-0.399-0.484-0.301-1.158-0.711-2.714-1.074-1.666-0.39-2.123-0.445-2.433-0.047l-0.082,0.109c-0.444,0.166-0.663,0.565-0.829,0.872-0.121,0.226-0.259,0.483-0.489,0.742,0-0.017-0.23-0.189-0.382-0.305-0.49-0.373-1.18-0.889-2.119-0.857-0.966,0.03-1.333,0.378-1.659,0.685-0.27,0.254-0.547,0.521-1.473,0.7-1.069,0.209-2.184-0.419-3.47-1.145-0.911-0.513-1.936-1.089-3.116-1.469-0.359-0.118-0.701-0.167-1.03-0.18h37.088v2.975z"/>
   </g>
   <g transform="matrix(5.7018265,0,0,-5.7018265,241.31394,402.65232)">
    <path fill-rule="nonzero" fill="#000" d="m0,0c0.051,0,0.107,0.009,0.162,0.014h-0.291c0.045-0.005,0.084-0.014,0.129-0.014"/>
   </g>
   <g transform="matrix(5.7018265,0,0,-5.7018265,225.33857,384.08261)">
    <path fill-rule="nonzero" fill="#000" d="m0,0-0.547-0.269,0.699,0c-0.09,0.145-0.14,0.249-0.152,0.269"/>
   </g>
   <g transform="matrix(5.7018265,0,0,-5.7018265,219.06601,356.68146)">
    <path fill-rule="nonzero" fill="#000" d="m0,0c3.327,7.361,9.919,13.057,18.523,13.057,0.495,0,3.315-0.018,3.8-0.055,8.155-0.556,13.823-5.715,16.864-12.903l-39.187-0.099z"/>
   </g>
  </g>
  <path style="baseline-shift:baseline;block-progression:tb;color:#000000;direction:ltr;text-indent:0;text-align:start;enable-background:accumulate;text-transform:none;" d="m200.01,697.37c-61.722,0-112.05,50.326-112.05,112.05,0,61.722,50.326,112.03,112.05,112.03,61.722,0,112.03-50.308,112.03-112.03s-50.308-112.05-112.03-112.05zm0,26.142c19.588,0,37.614,6.4908,52.03,17.446l-120.49,120.47c-10.95-14.414-17.446-32.429-17.446-52.012,0-47.594,38.312-85.906,85.906-85.906zm68.441,33.894c10.954,14.421,17.446,32.422,17.446,52.012,0,47.594-38.294,85.888-85.888,85.888-19.59,0-37.591-6.4922-52.012-17.446l120.45-120.44z" filter="url(#filter6565)" stroke="#000" stroke-miterlimit="4" stroke-dasharray="none" stroke-width="3.25081586999999983" fill="#7d1400"/>
  <g style="letter-spacing:-2.2168107px;word-spacing:0px;" font-weight="normal" transform="scale(0.94351265,1.0598692)" line-height="125%" filter="url(#filter6553)" font-size="46.66969681px" font-style="normal" font-family="Sans" fill="#000">
   <path d="m30.297,926.96c-1.0579-1.7734-2.2402-3.6713-3.5469-5.6937-1.3068-2.0535-2.6602-4.1069-4.0603-6.1604-1.4001-2.0846-2.8313-4.0914-4.2936-6.0204-1.4312-1.9601-2.8002-3.718-4.1069-5.2737v23.148h-5.787v-32.342h4.807c1.2445,1.3068,2.5824,2.8624,4.0136,4.667,1.4312,1.7735,2.8624,3.6247,4.2936,5.5537,1.4623,1.929,2.8624,3.8736,4.2003,5.8337,1.369,1.929,2.5824,3.7336,3.6402,5.4137v-21.468h5.8337v32.342h-4.9937"/>
   <path d="m45.639,910.76c-0.000009,1.7735,0.21778,3.3913,0.65338,4.8536,0.43557,1.4312,1.0578,2.6602,1.8668,3.6869,0.84004,0.99563,1.8512,1.7735,3.0335,2.3335,1.1823,0.56004,2.5201,0.84006,4.0136,0.84005,1.4623,0.00001,2.7846-0.28001,3.9669-0.84005,1.1823-0.56003,2.1779-1.3379,2.9869-2.3335,0.84003-1.0267,1.4778-2.2557,1.9135-3.6869,0.43556-1.4623,0.65335-3.0802,0.65338-4.8536-0.000028-1.7734-0.21782-3.3758-0.65338-4.807-0.43561-1.4623-1.0734-2.6913-1.9135-3.6869-0.80897-1.0267-1.8046-1.8201-2.9869-2.3802-1.1823-0.56001-2.5046-0.84003-3.9669-0.84006-1.4934,0.00003-2.8313,0.28005-4.0136,0.84006-1.1823,0.56006-2.1935,1.3534-3.0335,2.3802-0.80895,1.0268-1.4312,2.2557-1.8668,3.6869-0.43559,1.4312-0.65338,3.0336-0.65338,4.807m25.248,0c-0.000034,2.7691-0.42006,5.2115-1.2601,7.3271-0.80897,2.1157-1.929,3.8892-3.3602,5.3204-1.4001,1.4001-3.0491,2.4579-4.947,3.1735s-3.9203,1.0734-6.0671,1.0734-4.1847-0.3578-6.1137-1.0734c-1.8979-0.71561-3.5625-1.7734-4.9937-3.1735-1.4001-1.4312-2.5202-3.2046-3.3602-5.3204-0.84006-2.1157-1.2601-4.5581-1.2601-7.3271-0.000003-2.769,0.42002-5.1959,1.2601-7.2805,0.84005-2.1157,1.9757-3.8891,3.4069-5.3204,1.4623-1.4312,3.1424-2.5046,5.0403-3.2202,1.8979-0.71557,3.9047-1.0734,6.0204-1.0734,2.1157,0.00003,4.1225,0.35783,6.0204,1.0734,1.8979,0.71563,3.5469,1.789,4.947,3.2202,1.4312,1.4312,2.5668,3.2047,3.4069,5.3204,0.84002,2.0846,1.26,4.5114,1.2601,7.2805"/>
   <path d="m83.706,926.96,0-32.342,20.441,0,0,4.9937-14.561,0,0,8.2605,12.928,0,0,4.9936-12.928,0,0,14.094-5.8804,0"/>
   <path d="m111.45,910.76c0,1.7735,0.21779,3.3913,0.65338,4.8536,0.43557,1.4312,1.0578,2.6602,1.8668,3.6869,0.84004,0.99563,1.8512,1.7735,3.0335,2.3335,1.1823,0.56004,2.5202,0.84006,4.0136,0.84005,1.4623,0.00001,2.7846-0.28001,3.9669-0.84005,1.1823-0.56003,2.1779-1.3379,2.9869-2.3335,0.84003-1.0267,1.4778-2.2557,1.9134-3.6869,0.43556-1.4623,0.65335-3.0802,0.65338-4.8536-0.00003-1.7734-0.21782-3.3758-0.65338-4.807-0.43561-1.4623-1.0734-2.6913-1.9134-3.6869-0.80897-1.0267-1.8046-1.8201-2.9869-2.3802-1.1823-0.56001-2.5046-0.84003-3.9669-0.84006-1.4934,0.00003-2.8313,0.28005-4.0136,0.84006-1.1823,0.56006-2.1935,1.3534-3.0335,2.3802-0.80895,1.0268-1.4312,2.2557-1.8668,3.6869-0.43559,1.4312-0.65338,3.0336-0.65338,4.807m25.248,0c-0.00003,2.7691-0.42006,5.2115-1.2601,7.3271-0.80897,2.1157-1.929,3.8892-3.3602,5.3204-1.4001,1.4001-3.0491,2.4579-4.947,3.1735s-3.9203,1.0734-6.0671,1.0734-4.1847-0.3578-6.1137-1.0734c-1.8979-0.71561-3.5625-1.7734-4.9937-3.1735-1.4001-1.4312-2.5202-3.2046-3.3602-5.3204-0.84006-2.1157-1.2601-4.5581-1.2601-7.3271s0.42003-5.1959,1.2601-7.2805c0.84005-2.1157,1.9757-3.8891,3.4069-5.3204,1.4623-1.4312,3.1424-2.5046,5.0403-3.2202,1.8979-0.71557,3.9047-1.0734,6.0204-1.0734,2.1157,0.00003,4.1225,0.35783,6.0204,1.0734,1.8979,0.71563,3.5469,1.789,4.947,3.2202,1.4312,1.4312,2.5668,3.2047,3.4069,5.3204,0.84002,2.0846,1.26,4.5114,1.2601,7.2805"/>
   <path d="m145.7,910.76c-0.00001,1.7735,0.21778,3.3913,0.65338,4.8536,0.43557,1.4312,1.0578,2.6602,1.8668,3.6869,0.84005,0.99563,1.8512,1.7735,3.0335,2.3335,1.1823,0.56004,2.5202,0.84006,4.0136,0.84005,1.4623,0.00001,2.7846-0.28001,3.9669-0.84005,1.1823-0.56003,2.1779-1.3379,2.9869-2.3335,0.84003-1.0267,1.4778-2.2557,1.9135-3.6869,0.43556-1.4623,0.65335-3.0802,0.65338-4.8536-0.00003-1.7734-0.21782-3.3758-0.65338-4.807-0.43561-1.4623-1.0734-2.6913-1.9135-3.6869-0.80896-1.0267-1.8046-1.8201-2.9869-2.3802-1.1823-0.56001-2.5046-0.84003-3.9669-0.84006-1.4934,0.00003-2.8313,0.28005-4.0136,0.84006-1.1823,0.56006-2.1935,1.3534-3.0335,2.3802-0.80895,1.0268-1.4312,2.2557-1.8668,3.6869s-0.65339,3.0336-0.65338,4.807m25.248,0c-0.00004,2.7691-0.42006,5.2115-1.2601,7.3271-0.80897,2.1157-1.929,3.8892-3.3602,5.3204-1.4001,1.4001-3.0491,2.4579-4.947,3.1735s-3.9203,1.0734-6.0671,1.0734-4.1847-0.3578-6.1137-1.0734c-1.8979-0.71561-3.5625-1.7734-4.9937-3.1735-1.4001-1.4312-2.5202-3.2046-3.3602-5.3204-0.84006-2.1157-1.2601-4.5581-1.2601-7.3271s0.42002-5.1959,1.2601-7.2805c0.84005-2.1157,1.9757-3.8891,3.4069-5.3204,1.4623-1.4312,3.1424-2.5046,5.0403-3.2202,1.8979-0.71557,3.9047-1.0734,6.0204-1.0734,2.1157,0.00003,4.1225,0.35783,6.0204,1.0734,1.8979,0.71563,3.5469,1.789,4.947,3.2202,1.4312,1.4312,2.5668,3.2047,3.4069,5.3204,0.84003,2.0846,1.26,4.5114,1.2601,7.2805"/>
   <path d="m181.02,922.1c0.34223,0.0311,0.79337,0.0622,1.3534,0.0933,0.56002,0.00001,1.3223,0.00001,2.2868,0,3.9514,0.00001,6.8915-0.99561,8.8206-2.9869,1.9601-2.0223,2.9402-4.8381,2.9402-8.4472-0.00002-3.6713-0.94897-6.4871-2.8468-8.4472-1.8979-1.9601-4.8381-2.9402-8.8206-2.9402-1.7424,0.00003-2.9869,0.0467-3.7336,0.14001v22.588m21.561-11.341c-0.00003,2.8002-0.43561,5.2426-1.3068,7.3271-0.87119,2.0535-2.1157,3.7802-3.7336,5.1803-1.5868,1.369-3.5158,2.3957-5.787,3.0802-2.2402,0.65337-4.7292,0.98006-7.4672,0.98006-1.3068,0-2.7846-0.0622-4.4336-0.18668-1.649-0.0933-3.2202-0.31113-4.7136-0.65337v-31.409c1.4934-0.34221,3.0802-0.56,4.7603-0.65338,1.6801-0.0933,3.1735-0.13997,4.4803-0.14,2.7068,0.00003,5.1803,0.32672,7.4205,0.98006,2.2401,0.62229,4.1536,1.6179,5.7404,2.9869,1.6178,1.3379,2.8624,3.0491,3.7336,5.1337,0.87114,2.0535,1.3067,4.5114,1.3068,7.3738"/>
   <path d="m220.26,910.76c-0.00001,1.7735,0.21778,3.3913,0.65337,4.8536,0.43558,1.4312,1.0578,2.6602,1.8668,3.6869,0.84004,0.99563,1.8512,1.7735,3.0335,2.3335,1.1823,0.56004,2.5202,0.84006,4.0136,0.84005,1.4623,0.00001,2.7846-0.28001,3.9669-0.84005,1.1823-0.56003,2.1779-1.3379,2.9869-2.3335,0.84003-1.0267,1.4778-2.2557,1.9135-3.6869,0.43555-1.4623,0.65334-3.0802,0.65337-4.8536-0.00003-1.7734-0.21782-3.3758-0.65337-4.807-0.43561-1.4623-1.0734-2.6913-1.9135-3.6869-0.80897-1.0267-1.8046-1.8201-2.9869-2.3802-1.1823-0.56001-2.5046-0.84003-3.9669-0.84006-1.4934,0.00003-2.8313,0.28005-4.0136,0.84006-1.1823,0.56006-2.1935,1.3534-3.0335,2.3802-0.80895,1.0268-1.4312,2.2557-1.8668,3.6869-0.43559,1.4312-0.65338,3.0336-0.65337,4.807m25.248,0c-0.00003,2.7691-0.42006,5.2115-1.2601,7.3271-0.80897,2.1157-1.929,3.8892-3.3602,5.3204-1.4001,1.4001-3.0491,2.4579-4.947,3.1735s-3.9203,1.0734-6.0671,1.0734-4.1847-0.3578-6.1137-1.0734c-1.8979-0.71561-3.5625-1.7734-4.9936-3.1735-1.4001-1.4312-2.5202-3.2046-3.3602-5.3204-0.84006-2.1157-1.2601-4.5581-1.2601-7.3271-0.00001-2.769,0.42002-5.1959,1.2601-7.2805,0.84005-2.1157,1.9757-3.8891,3.4069-5.3204,1.4623-1.4312,3.1424-2.5046,5.0403-3.2202,1.8979-0.71557,3.9047-1.0734,6.0204-1.0734,2.1157,0.00003,4.1225,0.35783,6.0204,1.0734,1.8979,0.71563,3.5469,1.789,4.947,3.2202,1.4312,1.4312,2.5668,3.2047,3.4069,5.3204,0.84002,2.0846,1.26,4.5114,1.2601,7.2805"/>
   <path d="m258.61,894.29c4.667,0.00003,8.2294,0.85564,10.687,2.5668,2.489,1.7112,3.7336,4.3248,3.7336,7.8405-0.00002,4.387-2.1624,7.3583-6.4871,8.9139,0.59113,0.71561,1.2601,1.5868,2.0068,2.6135,0.74669,1.0268,1.509,2.1468,2.2868,3.3602,0.7778,1.1823,1.5245,2.4113,2.2401,3.6869,0.71558,1.2445,1.3534,2.4735,1.9135,3.6869h-6.5804c-0.59117-1.1201-1.229-2.2401-1.9135-3.3602-0.6845-1.1512-1.3846-2.2557-2.1001-3.3135-0.68451-1.089-1.369-2.1001-2.0535-3.0335-0.6845-0.9645-1.3223-1.8201-1.9135-2.5668-0.43559,0.0311-0.80895,0.0467-1.1201,0.0467-0.31114,0.00001-0.60672,0.00001-0.88672,0h-2.8468v12.227h-5.8804v-31.875c1.4312-0.3111,2.9557-0.51333,4.5736-0.60671,1.6179-0.12442,3.0646-0.18664,4.3403-0.18667m0.42002,5.087c-1.2445,0.00003-2.3957,0.0467-3.4536,0.14001v10.454h2.5668c1.4312,0.00002,2.6913-0.0778,3.7802-0.23335,1.089-0.15554,1.9912-0.43556,2.7068-0.84005,0.74669-0.40445,1.3067-0.94893,1.6801-1.6334,0.37333-0.68447,0.56001-1.5556,0.56003-2.6135-0.00002-0.9956-0.1867-1.8356-0.56003-2.5202-0.37338-0.68446-0.91786-1.2289-1.6334-1.6334-0.68451-0.40444-1.509-0.68446-2.4735-0.84005-0.96452-0.18665-2.0224-0.27999-3.1735-0.28002"/>
   <path d="m291.89,922.1c0.34223,0.0311,0.79337,0.0622,1.3534,0.0933,0.56002,0.00001,1.3223,0.00001,2.2868,0,3.9514,0.00001,6.8915-0.99561,8.8206-2.9869,1.9601-2.0223,2.9402-4.8381,2.9402-8.4472-0.00003-3.6713-0.94898-6.4871-2.8468-8.4472-1.8979-1.9601-4.8381-2.9402-8.8206-2.9402-1.7423,0.00003-2.9869,0.0467-3.7336,0.14001v22.588m21.561-11.341c-0.00003,2.8002-0.43562,5.2426-1.3068,7.3271-0.8712,2.0535-2.1157,3.7802-3.7336,5.1803-1.5868,1.369-3.5158,2.3957-5.787,3.0802-2.2402,0.65337-4.7292,0.98006-7.4672,0.98006-1.3068,0-2.7846-0.0622-4.4336-0.18668-1.649-0.0933-3.2202-0.31113-4.7136-0.65337v-31.409c1.4934-0.34221,3.0802-0.56,4.7603-0.65338,1.6801-0.0933,3.1735-0.13997,4.4803-0.14,2.7068,0.00003,5.1803,0.32672,7.4205,0.98006,2.2401,0.62229,4.1536,1.6179,5.7404,2.9869,1.6179,1.3379,2.8624,3.0491,3.7336,5.1337,0.87113,2.0535,1.3067,4.5114,1.3068,7.3738"/>
   <path d="m326.62,894.29c4.667,0.00003,8.2294,0.85564,10.687,2.5668,2.489,1.7112,3.7336,4.3248,3.7336,7.8405-0.00003,4.387-2.1624,7.3583-6.4871,8.9139,0.59113,0.71561,1.2601,1.5868,2.0068,2.6135,0.7467,1.0268,1.509,2.1468,2.2868,3.3602,0.7778,1.1823,1.5245,2.4113,2.2402,3.6869,0.71557,1.2445,1.3534,2.4735,1.9134,3.6869h-6.5804c-0.59118-1.1201-1.229-2.2401-1.9135-3.3602-0.68451-1.1512-1.3846-2.2557-2.1001-3.3135-0.68451-1.089-1.369-2.1001-2.0535-3.0335-0.68451-0.9645-1.3223-1.8201-1.9135-2.5668-0.4356,0.0311-0.80896,0.0467-1.1201,0.0467-0.31114,0.00001-0.60671,0.00001-0.88672,0h-2.8468v12.227h-5.8804v-31.875c1.4312-0.3111,2.9557-0.51333,4.5736-0.60671,1.6179-0.12442,3.0646-0.18664,4.3403-0.18667m0.42003,5.087c-1.2445,0.00003-2.3957,0.0467-3.4536,0.14001v10.454h2.5668c1.4312,0.00002,2.6913-0.0778,3.7802-0.23335,1.0889-0.15554,1.9912-0.43556,2.7068-0.84005,0.7467-0.40445,1.3067-0.94893,1.6801-1.6334,0.37334-0.68447,0.56001-1.5556,0.56004-2.6135-0.00003-0.9956-0.1867-1.8356-0.56004-2.5202-0.37338-0.68446-0.91786-1.2289-1.6334-1.6334-0.68451-0.40444-1.509-0.68446-2.4735-0.84005-0.96453-0.18665-2.0224-0.27999-3.1735-0.28002"/>
   <path d="m345.38,894.62,5.8804,0,0,32.342-5.8804,0,0-32.342"/>
   <path d="m378.64,926.96c-1.0579-1.7734-2.2402-3.6713-3.5469-5.6937-1.3068-2.0535-2.6602-4.1069-4.0603-6.1604-1.4001-2.0846-2.8313-4.0914-4.2936-6.0204-1.4312-1.9601-2.8002-3.718-4.1069-5.2737v23.148h-5.787v-32.342h4.807c1.2445,1.3068,2.5824,2.8624,4.0136,4.667,1.4312,1.7735,2.8624,3.6247,4.2936,5.5537,1.4623,1.929,2.8624,3.8736,4.2003,5.8337,1.369,1.929,2.5824,3.7336,3.6402,5.4137v-21.468h5.8337v32.342h-4.9937"/>
   <path d="m408.49,926.96c-0.80897-1.2445-1.7424-2.5513-2.8002-3.9202-1.0579-1.369-2.1779-2.6913-3.3602-3.9669-1.1512-1.2756-2.3491-2.489-3.5936-3.6402s-2.4735-2.1468-3.6869-2.9869v14.514h-5.8804v-32.342h5.8804v13.348c1.0267-1.0267,2.1001-2.1157,3.2202-3.2669,1.1201-1.1823,2.2246-2.3646,3.3136-3.5469,1.1201-1.2134,2.1779-2.3801,3.1735-3.5002,0.9956-1.12,1.8979-2.1312,2.7068-3.0335h7.0471c-1.0268,1.1823-2.1157,2.4113-3.2669,3.6869-1.1512,1.2757-2.3335,2.5669-3.5469,3.8736-1.2134,1.2757-2.4424,2.5513-3.6869,3.8269-1.2134,1.2757-2.4113,2.4891-3.5936,3.6402,1.3067,0.99563,2.629,2.1624,3.9669,3.5002,1.369,1.3068,2.7068,2.7224,4.0136,4.247,1.3067,1.4934,2.5512,3.0646,3.7336,4.7136,1.2134,1.6179,2.3179,3.2358,3.3136,4.8536h-6.9538"/>
  </g>
 </g>
</svg>
