<?xml version="1.0" encoding="UTF-8" standalone="no"?>
<!-- Created with Inkscape (http://www.inkscape.org/) -->

<svg
   xmlns:dc="http://purl.org/dc/elements/1.1/"
   xmlns:cc="http://creativecommons.org/ns#"
   xmlns:rdf="http://www.w3.org/1999/02/22-rdf-syntax-ns#"
   xmlns:svg="http://www.w3.org/2000/svg"
   xmlns="http://www.w3.org/2000/svg"
   xmlns:sodipodi="http://sodipodi.sourceforge.net/DTD/sodipodi-0.dtd"
   xmlns:inkscape="http://www.inkscape.org/namespaces/inkscape"
   width="400"
   height="400"
   id="svg5642"
   version="1.1"
   inkscape:version="0.48.4 r9939"
   sodipodi:docname="fooddrink.svg">
  <defs
     id="defs5644">
    <filter
       id="filter6553"
       style="color-interpolation-filters:sRGB;"
       inkscape:label="Drop Shadow">
      <feFlood
         id="feFlood6555"
         flood-opacity="0.8"
         flood-color="rgb(0,0,0)"
         result="flood" />
      <feComposite
         id="feComposite6557"
         in2="SourceGraphic"
         in="flood"
         operator="in"
         result="composite1" />
      <feGaussianBlur
         id="feGaussianBlur6559"
         in="composite"
         stdDeviation="2"
         result="blur" />
      <feOffset
         id="feOffset6561"
         dx="0"
         dy="2"
         result="offset" />
      <feComposite
         id="feComposite6563"
         in2="offset"
         in="SourceGraphic"
         operator="over"
         result="composite2" />
    </filter>
    <filter
       id="filter6565"
       style="color-interpolation-filters:sRGB;"
       inkscape:label="Drop Shadow">
      <feFlood
         id="feFlood6567"
         flood-opacity="0.8"
         flood-color="rgb(0,0,0)"
         result="flood" />
      <feComposite
         id="feComposite6569"
         in2="SourceGraphic"
         in="flood"
         operator="in"
         result="composite1" />
      <feGaussianBlur
         id="feGaussianBlur6571"
         in="composite"
         stdDeviation="2"
         result="blur" />
      <feOffset
         id="feOffset6573"
         dx="0"
         dy="2"
         result="offset" />
      <feComposite
         id="feComposite6575"
         in2="offset"
         in="SourceGraphic"
         operator="over"
         result="composite2" />
    </filter>
  </defs>
  <sodipodi:namedview
     id="base"
     pagecolor="#ffffff"
     bordercolor="#666666"
     borderopacity="1.0"
     inkscape:pageopacity="0.0"
     inkscape:pageshadow="2"
     inkscape:zoom="1.4"
     inkscape:cx="111.38152"
     inkscape:cy="184.86451"
     inkscape:document-units="px"
     inkscape:current-layer="layer1"
     showgrid="false"
     width="400px"
     inkscape:snap-page="true"
     inkscape:snap-global="false"
     inkscape:window-width="1918"
     inkscape:window-height="1053"
     inkscape:window-x="0"
     inkscape:window-y="25"
     inkscape:window-maximized="0" />
  <metadata
     id="metadata5647">
    <rdf:RDF>
      <cc:Work
         rdf:about="">
        <dc:format>image/svg+xml</dc:format>
        <dc:type
           rdf:resource="http://purl.org/dc/dcmitype/StillImage" />
        <dc:title></dc:title>
      </cc:Work>
    </rdf:RDF>
  </metadata>
  <g
     inkscape:label="Layer 1"
     inkscape:groupmode="layer"
     id="layer1"
     transform="translate(0,-652.36204)">
    <g
       transform="matrix(1.014918,0,0,1.014918,-184.34663,645.89672)"
       id="layer1-9"
       inkscape:label="Layer 1">
      <g
         style="fill:#000000"
         transform="matrix(5.142079,0,0,-5.142079,339.4083,90.213288)"
         id="g2490">
        <path
           inkscape:connector-curvature="0"
           id="path2492"
           style="fill:#000000;fill-opacity:1;fill-rule:nonzero;stroke:none"
           d="m 0,0 0,-11.203 c 1.44,0.211 2.549,1.456 2.549,2.952 l 0,5.298 C 2.549,-1.454 1.44,-0.211 0,0 m -0.438,-12.619 c -0.083,0 -0.166,0.012 -0.25,0.02 l -0.596,0.081 -0.1,0.619 0,13.242 0.641,0.046 c 0.139,0.019 0.222,0.029 0.305,0.029 2.41,0 4.37,-1.963 4.37,-4.371 l 0,-5.298 c 0,-2.407 -1.96,-4.368 -4.37,-4.368" />
      </g>
      <path
         inkscape:connector-curvature="0"
         id="path2494"
         style="fill:#000000;fill-opacity:1;fill-rule:nonzero;stroke:none"
         d="m 340.19039,198.6077 -108.35903,0 0,-17.60648 108.35903,0 0,17.60648 z" />
      <path
         inkscape:connector-curvature="0"
         id="path2496"
         style="fill:#000000;fill-opacity:1;fill-rule:nonzero;stroke:none"
         d="m 240.75287,169.16929 90.51602,0 0,-90.521152 -90.51602,0 0,90.521152 z m 96.84077,6.30934 -103.16553,0 0,-103.139822 103.16553,0 0,103.139822 z" />
      <path
         inkscape:connector-curvature="0"
         id="path2498"
         style="fill:#000000;fill-opacity:1;fill-rule:nonzero;stroke:none"
         d="m 265.90792,159.05997 -9.49742,0 0,-65.057592 9.49742,0 0,65.057592 z" />
      <path
         inkscape:connector-curvature="0"
         id="path2500"
         style="fill:#000000;fill-opacity:1;fill-rule:nonzero;stroke:none"
         d="m 290.06541,159.05997 -9.48199,0 0,-65.057592 9.48199,0 0,65.057592 z" />
      <path
         inkscape:connector-curvature="0"
         id="path2502"
         style="fill:#000000;fill-opacity:1;fill-rule:nonzero;stroke:none"
         d="m 315.61126,159.05997 -9.47685,0 0,-65.057592 9.47685,0 0,65.057592 z" />
      <g
         style="fill:#000000"
         transform="matrix(5.142079,0,0,-5.142079,298.90464,54.670828)"
         id="g2504">
        <path
           inkscape:connector-curvature="0"
           id="path2506"
           style="fill:#000000;fill-opacity:1;fill-rule:nonzero;stroke:none"
           d="M 0,0 C 0.04,-0.009 0.079,-0.016 0.118,-0.022 0.132,-0.14 0.154,-0.253 0.19,-0.357 0.18,-0.361 0.163,-0.368 0.146,-0.375 0.106,-0.245 0.057,-0.119 0,0 m 6.758,-0.224 c -0.013,0.02 -0.019,0.04 -0.035,0.063 0.33,0.391 0.538,0.894 0.538,1.449 0,1.258 -1.017,2.277 -2.277,2.277 -0.812,0 -1.519,-0.43 -1.924,-1.071 -0.03,1.36 -1.134,2.452 -2.5,2.452 -0.476,0 -0.908,-0.138 -1.289,-0.366 -0.386,0.226 -0.832,0.366 -1.311,0.366 -0.225,0 -0.433,-0.037 -0.643,-0.09 -0.418,0.402 -0.987,0.649 -1.616,0.649 -1.177,0 -2.143,-0.866 -2.316,-1.997 -0.182,0.03 -0.363,0.057 -0.552,0.057 -1.394,0 -2.582,-0.83 -3.13,-2.019 -0.077,0.009 -0.149,0.024 -0.228,0.024 -0.668,0 -1.268,-0.254 -1.723,-0.661 -0.136,0.028 -0.277,0.048 -0.427,0.048 -1.136,0 -2.055,-0.923 -2.055,-2.058 0,-0.479 0.169,-0.91 0.436,-1.259 -0.542,-0.331 -0.897,-0.861 -0.897,-1.466 0,-1.003 0.972,-1.815 2.172,-1.815 1.202,0 2.171,0.812 2.171,1.815 0,0.242 -0.056,0.472 -0.16,0.684 0.155,-0.027 0.316,-0.044 0.483,-0.044 0.535,0 1.028,0.165 1.439,0.442 0.543,-0.372 1.204,-0.588 1.919,-0.588 0.544,0 1.054,0.141 1.515,0.363 0.55,-0.963 1.58,-1.62 2.768,-1.62 0.59,0 1.132,0.167 1.605,0.444 0.454,-0.793 1.297,-1.334 2.276,-1.334 0.563,0 1.082,0.179 1.507,0.479 0.431,-0.198 0.902,-0.317 1.405,-0.317 0.353,0 0.683,0.069 1.002,0.167 0.152,-0.028 0.312,-0.047 0.477,-0.047 1.481,0 2.681,1.2 2.681,2.681 0,0.976 -0.53,1.824 -1.311,2.292" />
      </g>
    </g>
    <g
       transform="matrix(0.81270397,0,0,0.81270397,9.7761027,540.95781)"
       id="layer1-1"
       inkscape:label="Layer 1">
      <g
         style="fill:#000000"
         transform="matrix(5.7018265,0,0,-5.7018265,436.96359,432.89344)"
         id="g2364">
        <path
           id="path2366"
           style="fill:#000000;fill-opacity:1;fill-rule:nonzero;stroke:none"
           d="m 0,0 -36.84,0 c -1.983,0 -1.217,3.997 -1.217,3.997 l 39.27,0 C 1.213,3.997 1.619,0 0,0"
           inkscape:connector-curvature="0" />
      </g>
      <path
         id="path2368"
         style="fill:#000000;fill-opacity:1;fill-rule:nonzero;stroke:none"
         d="m 446.79354,380.32009 -230.30248,0 0,-16.97434 230.30248,0 0,16.97434 z"
         inkscape:connector-curvature="0" />
      <g
         style="fill:#000000"
         transform="matrix(5.7018265,0,0,-5.7018265,327.79642,390.68077)"
         id="g2370">
        <path
           id="path2372"
           style="fill:#000000;fill-opacity:1;fill-rule:nonzero;stroke:none"
           d="m 0,0 c 0.311,0.013 0.536,-0.121 0.644,-0.25 0.228,0.035 0.589,0.11 1.154,0.241 1.315,0.31 1.873,0.632 2.311,0.898 l -4.655,0 C -0.404,0.68 -0.285,0.479 -0.199,0.322 -0.132,0.201 -0.044,0.035 0,0"
           inkscape:connector-curvature="0" />
      </g>
      <g
         style="fill:#000000"
         transform="matrix(5.7018265,0,0,-5.7018265,309.35443,385.61344)"
         id="g2374">
        <path
           id="path2376"
           style="fill:#000000;fill-opacity:1;fill-rule:nonzero;stroke:none"
           d="M 0,0 -1.846,0 C -1.595,-0.235 -1.49,-0.336 -0.988,-0.35 -0.625,-0.373 -0.304,-0.208 0,0"
           inkscape:connector-curvature="0" />
      </g>
      <g
         style="fill:#000000"
         transform="matrix(5.7018265,0,0,-5.7018265,405.3361,385.61344)"
         id="g2378">
        <path
           id="path2380"
           style="fill:#000000;fill-opacity:1;fill-rule:nonzero;stroke:none"
           d="M 0,0 -1.361,0 -0.495,-0.292 0,0 z"
           inkscape:connector-curvature="0" />
      </g>
      <g
         style="fill:#000000"
         transform="matrix(5.7018265,0,0,-5.7018265,245.994,394.95714)"
         id="g2382">
        <path
           id="path2384"
           style="fill:#000000;fill-opacity:1;fill-rule:nonzero;stroke:none"
           d="m 0,0 c 1.059,0.341 1.991,0.865 2.887,1.371 0.161,0.092 0.321,0.18 0.481,0.268 l -6.839,0 C -3.07,0.98 -1.87,-0.599 0,0"
           inkscape:connector-curvature="0" />
      </g>
      <g
         style="fill:#000000"
         transform="matrix(5.7018265,0,0,-5.7018265,219.11103,387.12876)"
         id="g2386">
        <path
           id="path2388"
           style="fill:#000000;fill-opacity:1;fill-rule:nonzero;stroke:none"
           d="m 0,0 0.545,0.266 -2.221,0 0,-2.975 5.441,0 C 1.839,-2.639 0.499,-1.023 0,0"
           inkscape:connector-curvature="0" />
      </g>
      <g
         style="fill:#000000"
         transform="matrix(5.7018265,0,0,-5.7018265,453.70415,385.61344)"
         id="g2390">
        <path
           id="path2392"
           style="fill:#000000;fill-opacity:1;fill-rule:nonzero;stroke:none"
           d="m 0,0 -4.323,0 1.771,-0.953 -0.569,-1.068 -3.349,1.792 -2.372,-1.393 -3.002,1.015 -4.053,0 c -0.74,0 -0.954,-0.134 -1.395,-0.399 -0.484,-0.301 -1.158,-0.711 -2.714,-1.074 -1.666,-0.39 -2.123,-0.445 -2.433,-0.047 l -0.082,0.109 c -0.444,0.166 -0.663,0.565 -0.829,0.872 -0.121,0.226 -0.259,0.483 -0.489,0.742 0,-0.017 -0.23,-0.189 -0.382,-0.305 -0.49,-0.373 -1.18,-0.889 -2.119,-0.857 -0.966,0.03 -1.333,0.378 -1.659,0.685 -0.27,0.254 -0.547,0.521 -1.473,0.7 -1.069,0.209 -2.184,-0.419 -3.47,-1.145 -0.911,-0.513 -1.936,-1.089 -3.116,-1.469 -0.359,-0.118 -0.701,-0.167 -1.03,-0.18 L 0,-2.975 0,0 z"
           inkscape:connector-curvature="0" />
      </g>
      <g
         style="fill:#000000"
         transform="matrix(5.7018265,0,0,-5.7018265,241.31394,402.65232)"
         id="g2394">
        <path
           id="path2396"
           style="fill:#000000;fill-opacity:1;fill-rule:nonzero;stroke:none"
           d="m 0,0 c 0.051,0 0.107,0.009 0.162,0.014 l -0.291,0 C -0.084,0.009 -0.045,0 0,0"
           inkscape:connector-curvature="0" />
      </g>
      <g
         style="fill:#000000"
         transform="matrix(5.7018265,0,0,-5.7018265,225.33857,384.08261)"
         id="g2398">
        <path
           id="path2400"
           style="fill:#000000;fill-opacity:1;fill-rule:nonzero;stroke:none"
           d="m 0,0 -0.547,-0.269 0.699,0 C 0.062,-0.124 0.012,-0.02 0,0"
           inkscape:connector-curvature="0" />
      </g>
      <g
         style="fill:#000000"
         transform="matrix(5.7018265,0,0,-5.7018265,219.06601,356.68146)"
         id="g2402">
        <path
           id="path2404"
           style="fill:#000000;fill-opacity:1;fill-rule:nonzero;stroke:none"
           d="m 0,0 c 3.327,7.361 9.919,13.057 18.523,13.057 0.495,0 3.315,-0.018 3.8,-0.055 C 30.478,12.446 36.146,7.287 39.187,0.099 L 0,0 z"
           inkscape:connector-curvature="0" />
      </g>
    </g>
    <path
       style="font-size:medium;font-style:normal;font-variant:normal;font-weight:normal;font-stretch:normal;text-indent:0;text-align:start;text-decoration:none;line-height:normal;letter-spacing:normal;word-spacing:normal;text-transform:none;direction:ltr;block-progression:tb;writing-mode:lr-tb;text-anchor:start;baseline-shift:baseline;color:#000000;fill:#7d1400;fill-opacity:1;stroke:#000000;stroke-width:3.25081586999999983;stroke-miterlimit:4;stroke-opacity:1;stroke-dasharray:none;marker:none;visibility:visible;display:inline;overflow:visible;enable-background:accumulate;font-family:Sans;-inkscape-font-specification:Sans;filter:url(#filter6565)"
       d="m 200.00907,697.3747 c -61.72182,0 -112.047934,50.32611 -112.047934,112.04793 0,61.72182 50.326114,112.02979 112.047934,112.02979 61.72182,0 112.02979,-50.30797 112.02979,-112.02979 0,-61.72182 -50.30797,-112.04793 -112.02979,-112.04793 z m 0,26.1421 c 19.58798,0 37.61385,6.49082 52.03004,17.44622 l -120.48966,120.4715 c -10.95011,-14.41428 -17.44622,-32.42911 -17.44622,-52.01189 0,-47.59358 38.31226,-85.90583 85.90584,-85.90583 z m 68.44147,33.89395 c 10.95399,14.42063 17.44621,32.42172 17.44621,52.01188 0,47.59358 -38.2941,85.88769 -85.88768,85.88769 -19.59017,0 -37.59126,-6.49222 -52.01189,-17.44622 L 268.45054,757.41075 z"
       id="path6336"
       inkscape:connector-curvature="0" />
    <text
       xml:space="preserve"
       style="font-size:46.66969680999999781px;font-style:normal;font-weight:normal;line-height:125%;letter-spacing:-2.21681069999999991px;word-spacing:0px;fill:#000000;fill-opacity:1;stroke:none;font-family:Sans;filter:url(#filter6553)"
       x="4.628758"
       y="926.95831"
       id="text6513"
       sodipodi:linespacing="125%"
       transform="scale(0.94351265,1.0598692)"><tspan
         sodipodi:role="line"
         id="tspan6515"
         x="4.628758"
         y="926.95831"
         style="font-style:normal;font-variant:normal;font-weight:500;font-stretch:normal;letter-spacing:-2.2168107px;font-family:Ubuntu;-inkscape-font-specification:Ubuntu Medium">NO FOOD OR DRINK</tspan></text>
  </g>
</svg>
