<?xml version="1.0" encoding="UTF-8" standalone="no"?>
<!-- Created with Inkscape (http://www.inkscape.org/) -->
<svg xmlns:rdf="http://www.w3.org/1999/02/22-rdf-syntax-ns#" xmlns="http://www.w3.org/2000/svg" height="400" width="400" version="1.1" xmlns:cc="http://creativecommons.org/ns#" xmlns:dc="http://purl.org/dc/elements/1.1/">
 <defs>
  <filter id="filter6553" style="color-interpolation-filters:sRGB">
   <feFlood result="flood" flood-color="rgb(0,0,0)" flood-opacity=".8"/>
   <feComposite operator="in" result="composite1" in2="SourceGraphic" in="flood"/>
   <feGaussianBlur result="blur" stdDeviation="2" in="composite"/>
   <feOffset result="offset" dx="0" dy="2"/>
   <feComposite operator="over" result="composite2" in2="offset" in="SourceGraphic"/>
  </filter>
  <filter id="filter6565" style="color-interpolation-filters:sRGB">
   <feFlood result="flood" flood-color="rgb(0,0,0)" flood-opacity=".8"/>
   <feComposite operator="in" result="composite1" in2="SourceGraphic" in="flood"/>
   <feGaussianBlur result="blur" stdDeviation="2" in="composite"/>
   <feOffset result="offset" dx="0" dy="2"/>
   <feComposite operator="over" result="composite2" in2="offset" in="SourceGraphic"/>
  </filter>
 </defs>
 <metadata>
  <rdf:RDF>
   <cc:Work rdf:about="">
    <dc:format>image/svg+xml</dc:format>
    <dc:type rdf:resource="http://purl.org/dc/dcmitype/StillImage"/>
    <dc:title/>
   </cc:Work>
  </rdf:RDF>
 </metadata>
 <g transform="translate(0 -652.36)">
  <g transform="matrix(1.0149 0 0 1.0149 -184.35 645.9)">
   <g transform="matrix(5.1421 0 0 -5.1421 339.41 90.213)">
    <path d="m0 0v-11.203c1.44 0.211 2.549 1.456 2.549 2.952v5.298c0 1.499-1.109 2.742-2.549 2.953m-0.438-12.619c-0.083 0-0.166 0.012-0.25 0.02l-0.596 0.081-0.1 0.619v13.242l0.641 0.046c0.139 0.019 0.222 0.029 0.305 0.029 2.41 0 4.37-1.963 4.37-4.371v-5.298c0-2.407-1.96-4.368-4.37-4.368"/>
   </g>
   <g>
    <path d="m340.19 198.61h-108.36v-17.606h108.36v17.606z"/>
    <path d="m240.75 169.17h90.516v-90.521h-90.516v90.521zm96.841 6.3093h-103.17v-103.14h103.17v103.14z"/>
    <path d="m265.91 159.06h-9.4974v-65.058h9.4974v65.058z"/>
    <path d="m290.07 159.06h-9.482v-65.058h9.482v65.058z"/>
    <path d="m315.61 159.06h-9.4768v-65.058h9.4768v65.058z"/>
   </g>
   <g transform="matrix(5.1421 0 0 -5.1421 298.9 54.671)">
    <path d="m0 0c0.04-0.009 0.079-0.016 0.118-0.022 0.014-0.118 0.036-0.231 0.072-0.335-0.01-0.004-0.027-0.011-0.044-0.018-0.04 0.13-0.089 0.256-0.146 0.375m6.758-0.224c-0.013 0.02-0.019 0.04-0.035 0.063 0.33 0.391 0.538 0.894 0.538 1.449 0 1.258-1.017 2.277-2.277 2.277-0.812 0-1.519-0.43-1.924-1.071-0.03 1.36-1.134 2.452-2.5 2.452-0.476 0-0.908-0.138-1.289-0.366-0.386 0.226-0.832 0.366-1.311 0.366-0.225 0-0.433-0.037-0.643-0.09-0.418 0.402-0.987 0.649-1.616 0.649-1.177 0-2.143-0.866-2.316-1.997-0.182 0.03-0.363 0.057-0.552 0.057-1.394 0-2.582-0.83-3.13-2.019-0.077 0.009-0.149 0.024-0.228 0.024-0.668 0-1.268-0.254-1.723-0.661-0.136 0.028-0.277 0.048-0.427 0.048-1.136 0-2.055-0.923-2.055-2.058 0-0.479 0.169-0.91 0.436-1.259-0.542-0.331-0.897-0.861-0.897-1.466 0-1.003 0.972-1.815 2.172-1.815 1.202 0 2.171 0.812 2.171 1.815 0 0.242-0.056 0.472-0.16 0.684 0.155-0.027 0.316-0.044 0.483-0.044 0.535 0 1.028 0.165 1.439 0.442 0.543-0.372 1.204-0.588 1.919-0.588 0.544 0 1.054 0.141 1.515 0.363 0.55-0.963 1.58-1.62 2.768-1.62 0.59 0 1.132 0.167 1.605 0.444 0.454-0.793 1.297-1.334 2.276-1.334 0.563 0 1.082 0.179 1.507 0.479 0.431-0.198 0.902-0.317 1.405-0.317 0.353 0 0.683 0.069 1.002 0.167 0.152-0.028 0.312-0.047 0.477-0.047 1.481 0 2.681 1.2 2.681 2.681 0 0.976-0.53 1.824-1.311 2.292"/>
   </g>
  </g>
  <g transform="matrix(.81270 0 0 .81270 9.7761 540.96)">
   <g transform="matrix(5.7018 0 0 -5.7018 436.96 432.89)">
    <path d="m0 0h-36.84c-1.983 0-1.217 3.997-1.217 3.997h39.27s0.406-3.997-1.213-3.997"/>
   </g>
   <path d="m446.79 380.32h-230.3v-16.974h230.3v16.974z"/>
   <g transform="matrix(5.7018 0 0 -5.7018 327.8 390.68)">
    <path d="m0 0c0.311 0.013 0.536-0.121 0.644-0.25 0.228 0.035 0.589 0.11 1.154 0.241 1.315 0.31 1.873 0.632 2.311 0.898h-4.655c0.142-0.209 0.261-0.41 0.347-0.567 0.067-0.121 0.155-0.287 0.199-0.322"/>
   </g>
   <g transform="matrix(5.7018 0 0 -5.7018 309.35 385.61)">
    <path d="m0 0h-1.846c0.251-0.235 0.356-0.336 0.858-0.35 0.363-0.023 0.684 0.142 0.988 0.35"/>
   </g>
   <g transform="matrix(5.7018 0 0 -5.7018 405.34 385.61)">
    <path d="m0 0h-1.361l0.866-0.292 0.495 0.292z"/>
   </g>
   <g transform="matrix(5.7018 0 0 -5.7018 245.99 394.96)">
    <path d="m0 0c1.059 0.341 1.991 0.865 2.887 1.371 0.161 0.092 0.321 0.18 0.481 0.268h-6.839c0.401-0.659 1.601-2.238 3.471-1.639"/>
   </g>
   <g transform="matrix(5.7018 0 0 -5.7018 219.11 387.13)">
    <path d="m0 0 0.545 0.266h-2.221v-2.975h5.441c-1.926 0.07-3.266 1.686-3.765 2.709"/>
   </g>
   <g transform="matrix(5.7018 0 0 -5.7018 453.7 385.61)">
    <path d="m0 0h-4.323l1.771-0.953-0.569-1.068-3.349 1.792-2.372-1.393-3.002 1.015h-4.053c-0.74 0-0.954-0.134-1.395-0.399-0.484-0.301-1.158-0.711-2.714-1.074-1.666-0.39-2.123-0.445-2.433-0.047l-0.082 0.109c-0.444 0.166-0.663 0.565-0.829 0.872-0.121 0.226-0.259 0.483-0.489 0.742 0-0.017-0.23-0.189-0.382-0.305-0.49-0.373-1.18-0.889-2.119-0.857-0.966 0.03-1.333 0.378-1.659 0.685-0.27 0.254-0.547 0.521-1.473 0.7-1.069 0.209-2.184-0.419-3.47-1.145-0.911-0.513-1.936-1.089-3.116-1.469-0.359-0.118-0.701-0.167-1.03-0.18h37.088v2.975z"/>
   </g>
   <g transform="matrix(5.7018 0 0 -5.7018 241.31 402.65)">
    <path d="m0 0c0.051 0 0.107 0.009 0.162 0.014h-0.291c0.045-0.005 0.084-0.014 0.129-0.014"/>
   </g>
   <g transform="matrix(5.7018 0 0 -5.7018 225.34 384.08)">
    <path d="m0 0-0.547-0.269h0.699c-0.09 0.145-0.14 0.249-0.152 0.269"/>
   </g>
   <g transform="matrix(5.7018 0 0 -5.7018 219.07 356.68)">
    <path d="m0 0c3.327 7.361 9.919 13.057 18.523 13.057 0.495 0 3.315-0.018 3.8-0.055 8.155-0.556 13.823-5.715 16.864-12.903l-39.187-0.099z"/>
   </g>
  </g>
  <path style="block-progression:tb;text-indent:0;color:#000000;text-transform:none" d="m200.01 697.37c-61.722 0-112.05 50.326-112.05 112.05 0 61.722 50.326 112.03 112.05 112.03 61.722 0 112.03-50.308 112.03-112.03s-50.308-112.05-112.03-112.05zm0 26.142c19.588 0 37.614 6.4908 52.03 17.446l-120.49 120.47c-10.95-14.414-17.446-32.429-17.446-52.012 0-47.594 38.312-85.906 85.906-85.906zm68.441 33.894c10.954 14.421 17.446 32.422 17.446 52.012 0 47.594-38.294 85.888-85.888 85.888-19.59 0-37.591-6.4922-52.012-17.446l120.45-120.44z" filter="url(#filter6565)" stroke="#000" stroke-width="3.2508" fill="#7d1400"/>
  <text style="word-spacing:0px;letter-spacing:-2.2168px" xml:space="preserve" transform="scale(.94351 1.0599)" filter="url(#filter6553)" font-size="46.67px" y="926.95831" x="4.628758" font-family="Sans" line-height="125%" fill="#000000"><tspan style="letter-spacing:-2.2168px" font-weight="500" y="926.95831" x="4.628758" font-family="Ubuntu">NO FOOD OR DRINK</tspan></text>
 </g>
</svg>
