<?xml version="1.0" encoding="UTF-8" standalone="no"?>
<!-- Created with Inkscape (http://www.inkscape.org/) -->
<svg xmlns:rdf="http://www.w3.org/1999/02/22-rdf-syntax-ns#" xmlns="http://www.w3.org/2000/svg" height="400" width="400" version="1.1" xmlns:cc="http://creativecommons.org/ns#" xmlns:xlink="http://www.w3.org/1999/xlink" xmlns:dc="http://purl.org/dc/elements/1.1/">
 <defs>
  <radialGradient id="radialGradient10491" fx="-200.76" fy="374.53" cx="-205.8" xlink:href="#linearGradient3545" gradientUnits="userSpaceOnUse" cy="344.59" r="103.34" gradientTransform="matrix(0.807107,-0.216266,0.149951,0.559619,-90.93863,105.4105)"/>
  <radialGradient id="radialGradient10489" fx="-207.43" fy="302.83" cx="-209.52" xlink:href="#linearGradient3545" gradientUnits="userSpaceOnUse" cy="340.36" r="103.34" gradientTransform="matrix(1.067294,-2.894885e-7,1.666001e-7,0.614226,14.09976,131.3014)"/>
  <radialGradient id="radialGradient10487" cx="-235.12" gradientUnits="userSpaceOnUse" cy="409.57" r="206.68">
   <stop stop-color="#FFF" stop-opacity="0.37254903" offset="0"/>
   <stop stop-color="#FFF" stop-opacity="0.094117649" offset="1"/>
  </radialGradient>
  <radialGradient id="radialGradient10485" cx="-235.12" gradientUnits="userSpaceOnUse" cy="409.57" r="206.68" gradientTransform="matrix(0.991749,-0.1351,0.1351,0.991749,-57.27289,-28.38547)">
   <stop stop-color="#000" stop-opacity="0.25098041" offset="0"/>
   <stop stop-color="#000" stop-opacity="0.00000000" offset="1"/>
  </radialGradient>
  <radialGradient id="radialGradient10483" cx="147.9" spreadMethod="reflect" gradientUnits="userSpaceOnUse" cy="259.77" r="227.54" gradientTransform="matrix(0.610003,0,0,0.610003,57.68046,101.3106)">
   <stop stop-color="#24424c" offset="0"/>
   <stop stop-color="#79dfee" offset="1"/>
  </radialGradient>
  <linearGradient id="linearGradient3545">
   <stop stop-color="#FFF" offset="0"/>
   <stop stop-color="#FFF" stop-opacity="0.00000000" offset="1"/>
  </linearGradient>
  <filter id="filter5112" style="color-interpolation-filters:sRGB;">
   <feFlood result="flood" flood-color="rgb(0,0,0)" flood-opacity="1"/>
   <feComposite operator="in" result="composite1" in2="SourceGraphic" in="flood"/>
   <feGaussianBlur result="blur" stdDeviation="3" in="composite"/>
   <feOffset result="offset" dx="0" dy="2"/>
   <feComposite operator="over" result="composite2" in2="offset" in="SourceGraphic"/>
  </filter>
  <filter id="filter5222" style="color-interpolation-filters:sRGB;">
   <feFlood result="flood" flood-color="rgb(0,0,0)" flood-opacity="1"/>
   <feComposite operator="in" result="composite1" in2="SourceGraphic" in="flood"/>
   <feGaussianBlur result="blur" stdDeviation="20" in="composite"/>
   <feOffset result="offset" dx="0" dy="10"/>
   <feComposite operator="over" result="composite2" in2="offset" in="SourceGraphic"/>
  </filter>
 </defs>
 <metadata>
  <rdf:RDF>
   <cc:Work rdf:about="">
    <dc:format>image/svg+xml</dc:format>
    <dc:type rdf:resource="http://purl.org/dc/dcmitype/StillImage"/>
    <dc:title/>
   </cc:Work>
  </rdf:RDF>
 </metadata>
 <g transform="translate(0,-652.36218)">
  <g transform="matrix(0.38775519,0,0,0.38775519,93.736764,746.04702)">
   <g filter="url(#filter5222)" transform="matrix(0.60645573,0,0,0.60645573,48.417054,-263.75532)">
    <path stroke-linejoin="miter" d="m363.65,206.05c0,79.221-64.221,143.44-143.44,143.44-79.221,0-143.44-64.221-143.44-143.44,0-79.221,64.221-143.44,143.44-143.44,79.221,0,143.44,64.221,143.44,143.44z" fill-rule="evenodd" transform="matrix(2.5789468,0,0,2.5789468,-195.87104,-5.2126492)" stroke="#000" stroke-linecap="butt" stroke-miterlimit="4" stroke-dasharray="none" stroke-width="16" fill="#FFF"/>
    <path d="m338.4,194.94c0,76.989-62.412,139.4-139.4,139.4-76.989,0-139.4-62.412-139.4-139.4,0-76.989,62.412-139.4,139.4-139.4,76.989,0,139.4,62.412,139.4,139.4z" transform="matrix(2.5426133,0,0,2.5426133,-133.93293,30.526574)" stroke="#f4a2a2" stroke-dasharray="none" stroke-miterlimit="4" stroke-width="8" fill="none"/>
    <path d="m375.44,259.77c0,125.67-101.87,227.54-227.54,227.54s-227.54-101.87-227.54-227.54,101.87-227.54,227.54-227.54,227.54,101.87,227.54,227.54z" fill-rule="nonzero" transform="matrix(1.199801,0,0,1.199801,194.5972,214.5061)" fill="url(#radialGradient10483)"/>
    <path fill-rule="nonzero" transform="matrix(0.964567,0.131397,-0.131397,0.964567,652.6546,162.0202)" fill="url(#radialGradient10485)" d="m-28.442,401.98-133.28,14.521,128.2,39.23-132.5-20.469,113.68,71.074-122.68-54.064,91.408,98.074-104.51-83.974,62.91,118.39-79.215-108.16,30.125,130.64-48.521-124.98-4.7132,133.98-14.521-133.28-39.23,128.2,20.469-132.5-71.074,113.68,54.064-122.68-98.074,91.408,83.974-104.51-118.39,62.91,108.16-79.215-130.64,30.125,124.98-48.521-133.98-4.7132,133.28-14.521-128.2-39.23,132.5,20.469-113.68-71.074,122.68,54.064-91.408-98.074,104.51,83.974-62.91-118.39,79.215,108.16-30.125-130.64,48.521,124.98,4.7132-133.98,14.521,133.28,39.23-128.2-20.469,132.5,71.074-113.68-54.064,122.68,98.074-91.408-83.974,104.51,118.39-62.91-108.16,79.215,130.64-30.125-124.98,48.521z"/>
    <path fill-rule="nonzero" transform="matrix(1.138602,0,0,1.138602,639.7583,59.8463)" fill="url(#radialGradient10487)" d="m-28.442,401.98-133.28,14.521,128.2,39.23-132.5-20.469,113.68,71.074-122.68-54.064,91.408,98.074-104.51-83.974,62.91,118.39-79.215-108.16,30.125,130.64-48.521-124.98-4.7132,133.98-14.521-133.28-39.23,128.2,20.469-132.5-71.074,113.68,54.064-122.68-98.074,91.408,83.974-104.51-118.39,62.91,108.16-79.215-130.64,30.125,124.98-48.521-133.98-4.7132,133.28-14.521-128.2-39.23,132.5,20.469-113.68-71.074,122.68,54.064-91.408-98.074,104.51,83.974-62.91-118.39,79.215,108.16-30.125-130.64,48.521,124.98,4.7132-133.98,14.521,133.28,39.23-128.2-20.469,132.5,71.074-113.68-54.064,122.68,98.074-91.408-83.974,104.51,118.39-62.91-108.16,79.215,130.64-30.125-124.98,48.521z"/>
    <path d="m375.44,259.77c0,125.67-101.87,227.54-227.54,227.54s-227.54-101.87-227.54-227.54,101.87-227.54,227.54-227.54,227.54,101.87,227.54,227.54z" fill-rule="nonzero" transform="matrix(0.469923,0,0,0.469923,302.5458,404.1086)" fill="#000"/>
    <path d="m-106.18,340.36c0,35.082-46.267,63.521-103.34,63.521s-103.34-28.439-103.34-63.521,46.267-63.521,103.34-63.521,103.34,28.439,103.34,63.521z" fill-rule="nonzero" transform="matrix(1.082821,-1.082821,1.082821,1.082821,116.8324,-181.3922)" fill="url(#radialGradient10489)"/>
    <path d="m-106.18,340.36c0,35.082-46.267,63.521-103.34,63.521s-103.34-28.439-103.34-63.521,46.267-63.521,103.34-63.521,103.34,28.439,103.34,63.521z" fill-rule="nonzero" transform="matrix(0.915538,-0.245317,0.245317,0.915538,585.3109,336.3361)" fill="url(#radialGradient10491)"/>
   </g>
   <g stroke-width="3" style="letter-spacing:0px;word-spacing:0px;" font-weight="bold" transform="matrix(2.5789468,0,0,2.5789468,-508.10496,-319.76211)" font-style="normal" filter="url(#filter5112)" stroke="#000" font-stretch="normal" stroke-miterlimit="4" line-height="125%" font-size="40px" font-variant="normal" font-family="Droid Sans" fill="#d00600">
    <path d="m173.3,252.68c0.76796,2.592,1.584,5.304,2.448,8.136,0.86396,2.784,1.752,5.592,2.664,8.424,0.95996,2.784,1.896,5.544,2.808,8.28,0.95996,2.688,1.872,5.232,2.736,7.632,0.71995-2.592,1.416-5.4,2.088-8.424,0.67195-3.072,1.344-6.24,2.016-9.504,0.67195-3.312,1.32-6.672,1.944-10.08,0.67195-3.408,1.296-6.768,1.872-10.08h9.36c-1.6801,9.024-3.5521,17.712-5.616,26.064-2.0641,8.304-4.368,16.248-6.912,23.832h-8.64c-3.744-9.696-7.368-20.28-10.872-31.752-1.776,5.808-3.576,11.328-5.4,16.56s-3.648,10.296-5.472,15.192h-8.64c-2.592-7.584-4.92-15.528-6.984-23.832-2.016-8.352-3.864-17.04-5.544-26.064h9.72c0.57599,3.264,1.176,6.6,1.8,10.008,0.67199,3.408,1.344,6.768,2.016,10.08,0.71999,3.264,1.44,6.432,2.16,9.504,0.71998,3.072,1.44,5.904,2.16,8.496,0.91198-2.448,1.824-5.016,2.736-7.704,0.95998-2.736,1.896-5.496,2.808-8.28,0.91198-2.832,1.776-5.64,2.592-8.424,0.86397-2.784,1.656-5.472,2.376-8.064h7.776"/>
    <path d="m240.83,296.96c-0.67204-1.968-1.368-3.912-2.088-5.832-0.72003-1.92-1.416-3.888-2.088-5.904h-21.024c-0.67201,2.016-1.368,4.008-2.088,5.976-0.67201,1.92-1.344,3.84-2.016,5.76h-9.432c1.872-5.328,3.648-10.248,5.328-14.76s3.312-8.784,4.896-12.816c1.632-4.032,3.24-7.872,4.824-11.52s3.216-7.248,4.896-10.8h8.568c1.68,3.552,3.312,7.152,4.896,10.8s3.168,7.488,4.752,11.52c1.632,4.032,3.288,8.304,4.968,12.816,1.728,4.512,3.528,9.432,5.4,14.76h-9.792m-14.688-40.248c-1.104,2.544-2.376,5.64-3.816,9.288-1.392,3.648-2.856,7.608-4.392,11.88h16.416c-1.536-4.272-3.024-8.256-4.464-11.952s-2.688-6.768-3.744-9.216"/>
    <path d="m270.68,246.56c7.2,0.00005,12.696,1.32,16.488,3.96,3.84,2.64,5.76,6.672,5.76,12.096-0.00004,6.768-3.336,11.352-10.008,13.752,0.91197,1.104,1.944,2.448,3.096,4.032s2.328,3.312,3.528,5.184c1.2,1.824,2.352,3.72,3.456,5.688,1.104,1.92,2.088,3.816,2.952,5.688h-10.152c-0.91203-1.728-1.896-3.456-2.952-5.184-1.056-1.776-2.136-3.48-3.24-5.112-1.056-1.68-2.112-3.24-3.168-4.68-1.056-1.488-2.04-2.808-2.952-3.96-0.67202,0.048-1.248,0.072-1.728,0.072-0.48002,0.00002-0.93602,0.00002-1.368,0h-4.392v18.864h-9.072v-49.176c2.208-0.47995,4.56-0.79195,7.056-0.936,2.496-0.19195,4.728-0.28795,6.696-0.288m0.648,7.848c-1.92,0.00004-3.696,0.072-5.328,0.216v16.128h3.96c2.208,0.00002,4.152-0.11998,5.832-0.36,1.68-0.23998,3.072-0.67198,4.176-1.296,1.152-0.62397,2.016-1.464,2.592-2.52,0.57597-1.056,0.86397-2.4,0.864-4.032-0.00003-1.536-0.28803-2.832-0.864-3.888-0.57603-1.056-1.416-1.896-2.52-2.52-1.056-0.62396-2.328-1.056-3.816-1.296-1.488-0.28796-3.12-0.43196-4.896-0.432"/>
    <path d="m336.68,296.96c-1.632-2.736-3.456-5.664-5.472-8.784-2.016-3.168-4.104-6.336-6.264-9.504-2.16-3.216-4.368-6.312-6.624-9.288-2.208-3.024-4.32-5.736-6.336-8.136v35.712h-8.928v-49.896h7.416c1.92,2.016,3.984,4.416,6.192,7.2,2.208,2.736,4.416,5.592,6.624,8.568,2.256,2.976,4.416,5.976,6.48,9,2.112,2.976,3.984,5.76,5.616,8.352v-33.12h9v49.896h-7.704"/>
    <path d="m356.35,247.07,9.072,0,0,49.896-9.072,0,0-49.896"/>
    <path d="m411.07,296.96c-1.632-2.736-3.456-5.664-5.472-8.784-2.016-3.168-4.104-6.336-6.264-9.504-2.16-3.216-4.368-6.312-6.624-9.288-2.208-3.024-4.32-5.736-6.336-8.136v35.712h-8.928v-49.896h7.416c1.92,2.016,3.984,4.416,6.192,7.2,2.208,2.736,4.416,5.592,6.624,8.568,2.256,2.976,4.416,5.976,6.48,9,2.112,2.976,3.984,5.76,5.616,8.352v-33.12h9v49.896h-7.704"/>
    <path d="m454.07,253.91c-5.136,0.00004-9.072,1.608-11.808,4.824-2.688,3.168-4.032,7.584-4.032,13.248-0.00001,2.688,0.31199,5.16,0.936,7.416,0.67199,2.208,1.632,4.104,2.88,5.688,1.296,1.584,2.88,2.832,4.752,3.744,1.92,0.864,4.152,1.296,6.696,1.296,1.584,0,2.952-0.048,4.104-0.144,1.152-0.144,2.064-0.312,2.736-0.504v-17.928h9.072v23.976c-1.248,0.48-3.36,1.008-6.336,1.584s-6.408,0.864-10.296,0.864c-3.6,0-6.888-0.576-9.864-1.728s-5.52-2.832-7.632-5.04c-2.064-2.208-3.672-4.92-4.824-8.136s-1.728-6.912-1.728-11.088,0.624-7.872,1.872-11.088c1.296-3.216,3.048-5.928,5.256-8.136,2.208-2.256,4.8-3.96,7.776-5.112s6.144-1.728,9.504-1.728c2.304,0.00005,4.344,0.16805,6.12,0.504,1.824,0.28805,3.384,0.62405,4.68,1.008,1.296,0.38405,2.352,0.79205,3.168,1.224,0.86396,0.43204,1.464,0.74404,1.8,0.936l-2.736,7.416c-1.44-0.86396-3.24-1.584-5.4-2.16-2.112-0.62396-4.344-0.93596-6.696-0.936"/>
   </g>
   <rect height="330.04" width="908.37" y="458.22" x="-180.14" fill="none"/>
   <g style="letter-spacing:0px;word-spacing:0px;" font-weight="normal" transform="translate(0,15.842102)" font-size="103.15787506px" font-style="normal" font-family="Sans" line-height="125%" fill="#000">
    <path style="text-align:center;" d="m-123.79,509.63-4.0296-11.409-13.726,0-4.08,11.409-4.7348,0,13.524-36.972,4.2814,0,13.55,36.972-4.7852,0m-5.5155-15.564-3.7274-10.678c-0.10076-0.30219-0.22669-0.67157-0.37778-1.1081-0.13434-0.43651-0.27705-0.90663-0.42814-1.4104-0.15113-0.50367-0.30224-1.0242-0.45334-1.5615-0.15112-0.55404-0.29384-1.0913-0.42814-1.6118-0.11755,0.52052-0.25187,1.0578-0.40296,1.6118-0.15113,0.5541-0.30224,1.0914-0.45333,1.6118-0.15113,0.50373-0.30224,0.97385-0.45333,1.4104-0.13434,0.41978-0.25187,0.77237-0.35259,1.0578l-3.6518,10.678h10.729"/>
    <path style="text-align:center;" d="m-110.06,509.63-4.5837,0,0-39.188,4.5837,0,0,39.188"/>
    <path style="text-align:center;" d="m-96.661,509.63-4.5837,0,0-39.188,4.5837,0,0,39.188"/>
    <path style="text-align:center;" d="m-69.864,509.63-4.5837,0,0-39.188,4.5837,0,0,39.188"/>
    <path style="text-align:center;" d="m-45.46,509.63-0.93185-3.8281-0.20148,0c-0.55409,0.75555-1.1082,1.4104-1.6622,1.9644-0.55409,0.53728-1.1585,0.98222-1.8133,1.3348-0.65483,0.35259-1.3852,0.61283-2.1911,0.78073-0.80593,0.1679-1.7378,0.25185-2.7955,0.25185-1.1585,0-2.2247-0.1679-3.1985-0.5037-0.97383-0.31901-1.8217-0.81431-2.5437-1.4859-0.70518-0.68839-1.2593-1.5447-1.6622-2.5689-0.40296-1.041-0.60444-2.2666-0.60444-3.677-0.000002-2.7536,0.96542-4.8691,2.8963-6.3466,1.9476-1.4775,4.9027-2.2834,8.8651-2.4178l4.634-0.1763v-1.7378c-0.000019-1.1249-0.12594-2.0652-0.37778-2.8207-0.23508-0.75552-0.58767-1.36-1.0578-1.8133-0.45335-0.4701-1.0242-0.8059-1.7126-1.0074-0.67162-0.20146-1.444-0.3022-2.317-0.30222-1.3936,0.00002-2.6948,0.2015-3.9037,0.60444-1.1921,0.40299-2.3422,0.8899-3.4503,1.4607l-1.6118-3.4504c1.2425-0.67157,2.6276-1.2424,4.1555-1.7126,1.5279-0.47009,3.1313-0.70515,4.8103-0.70518,1.7126,0.00003,3.1901,0.17632,4.4326,0.52889,1.2592,0.33582,2.2918,0.8815,3.0978,1.637,0.82269,0.73879,1.4355,1.6874,1.8385,2.8459,0.40294,1.1585,0.60442,2.5605,0.60444,4.2059v18.939h-3.2992m-8.4118-3.1985c1.0242,0.00001,1.9728-0.1595,2.8459-0.47851,0.87306-0.31901,1.6286-0.79752,2.2667-1.4356,0.638-0.6548,1.1333-1.4691,1.4859-2.443,0.36936-0.9906,0.55405-2.1491,0.55407-3.4755v-2.4933l-3.6015,0.1763c-1.5111,0.0672-2.7788,0.23507-3.8029,0.5037-1.0242,0.26865-1.8469,0.64643-2.4681,1.1333-0.60445,0.47014-1.041,1.0494-1.3096,1.7378-0.26865,0.67161-0.40297,1.4356-0.40296,2.2918-0.000008,1.5447,0.40295,2.678,1.2089,3.4,0.8227,0.72197,1.8973,1.083,3.2237,1.083"/>
    <path style="text-align:center;" d="m-21.156,481.47c1.5782,0.00003,3.0138,0.30225,4.3066,0.90666,1.2928,0.60447,2.3926,1.5111,3.2992,2.72,0.92342,1.1921,1.637,2.678,2.1407,4.4578,0.50367,1.7798,0.75552,3.8449,0.75555,6.1955-0.000027,2.3674-0.25188,4.4494-0.75555,6.2459-0.50373,1.7798-1.2173,3.2741-2.1407,4.4829-0.90668,1.2089-2.0064,2.1239-3.2992,2.7452-1.2929,0.60444-2.7284,0.90666-4.3066,0.90666-0.99063,0-1.8889-0.10913-2.6948-0.3274-0.80593-0.21827-1.5363-0.5037-2.1911-0.85629-0.63803-0.36938-1.2089-0.79753-1.7126-1.2844-0.48692-0.48691-0.92346-0.999-1.3096-1.5363h-0.30222l-0.93185,3.5007h-3.3496v-39.188h4.5837v9.4696c-0.000009,0.58768-0.0084,1.2173-0.02519,1.8889-0.0168,0.65483-0.04198,1.2677-0.07555,1.8385-0.03359,0.67163-0.06717,1.3264-0.10074,1.9644h0.20148c0.38616-0.58763,0.8227-1.1333,1.3096-1.637,0.4869-0.50368,1.0494-0.94022,1.6874-1.3096,0.6548-0.36936,1.3852-0.65479,2.1911-0.85629,0.80591-0.21825,1.7126-0.32738,2.72-0.32741m-0.88148,3.8029c-1.3432,0.00002-2.4681,0.21829-3.3748,0.65481-0.88988,0.41978-1.6119,1.0662-2.1659,1.9392-0.53729,0.8731-0.92346,1.9644-1.1585,3.274-0.21828,1.3096-0.32742,2.8459-0.32741,4.6089-0.000009,1.6958,0.10913,3.2069,0.32741,4.5333,0.23505,1.3096,0.62122,2.4178,1.1585,3.3244,0.55406,0.88988,1.2844,1.5699,2.1911,2.04,0.90665,0.45333,2.04,0.68,3.4,0.67999,2.2666,0.00001,3.9288-0.91505,4.9866-2.7452,1.0745-1.8301,1.6118-4.4577,1.6118-7.8829-0.000023-3.4923-0.5373-6.1032-1.6118-7.8325-1.0578-1.7294-2.7368-2.594-5.037-2.5941"/>
    <path style="text-align:center;" d="m13.12,502.05c-0.000021,1.3432-0.24348,2.5185-0.73036,3.5259-0.48693,1.0074-1.1921,1.8553-2.1155,2.5437-0.90668,0.6716-2.0064,1.1753-3.2992,1.5111s-2.7452,0.5037-4.357,0.5037c-1.8301,0-3.4-0.15111-4.7096-0.45333-1.3096-0.28543-2.4597-0.71357-3.4503-1.2844v-4.1807c0.52049,0.26865,1.0997,0.53729,1.7378,0.80592,0.63802,0.25186,1.3096,0.47852,2.0148,0.68,0.70517,0.20148,1.4271,0.36938,2.1659,0.5037,0.75554,0.11753,1.5027,0.1763,2.2415,0.17629,1.0913,0.00001,2.0148-0.0923,2.7704-0.27703,0.77233-0.18469,1.3936-0.44493,1.8637-0.78074,0.4869-0.35258,0.83948-0.77233,1.0578-1.2592,0.21825-0.50369,0.32739-1.0578,0.32741-1.6622-0.0000164-0.52048-0.083966-0.9906-0.25185-1.4104-0.16792-0.41974-0.47853-0.8311-0.93185-1.2341-0.43656-0.41974-1.041-0.83949-1.8133-1.2592-0.77235-0.41974-1.763-0.88986-2.9718-1.4104-1.2089-0.52048-2.3002-1.0326-3.2741-1.5363-0.95704-0.50368-1.7714-1.0662-2.4429-1.6874-0.6716-0.62122-1.1921-1.3348-1.5615-2.1407-0.35259-0.82269-0.52889-1.7965-0.52889-2.9215-0.0000027-1.1753,0.22666-2.2162,0.68-3.1229,0.47012-0.92343,1.1249-1.6958,1.9644-2.317,0.83949-0.62121,1.8469-1.0913,3.0222-1.4104,1.1753-0.31899,2.4849-0.47849,3.9289-0.47852,1.6286,0.00003,3.1145,0.17632,4.4577,0.52889,1.36,0.35261,2.6444,0.81434,3.8533,1.3852l-1.5867,3.7022c-1.0914-0.48688-2.2163-0.90663-3.3748-1.2592-1.1417-0.36936-2.3086-0.55405-3.5007-0.55407-1.7126,0.00002-2.9802,0.28545-3.8029,0.85629-0.82272,0.5541-1.2341,1.3516-1.2341,2.3926-0.00000707,0.58767,0.092338,1.0998,0.27704,1.5363,0.20147,0.43656,0.53727,0.84791,1.0074,1.2341,0.47011,0.38619,1.0997,0.78076,1.8889,1.1837,0.78912,0.38619,1.7713,0.82273,2.9466,1.3096,1.2089,0.50372,2.2834,1.0074,3.2237,1.5111,0.95701,0.50372,1.7713,1.0746,2.4429,1.7126,0.67158,0.62125,1.1837,1.3348,1.5363,2.1407,0.35257,0.80593,0.52886,1.7714,0.52888,2.8963"/>
    <path style="text-align:center;" d="m48.833,509.63-0.93185-3.8281-0.20148,0c-0.55409,0.75555-1.1082,1.4104-1.6622,1.9644-0.55409,0.53728-1.1585,0.98222-1.8133,1.3348-0.65482,0.35259-1.3852,0.61283-2.1911,0.78073-0.80593,0.1679-1.7378,0.25185-2.7955,0.25185-1.1585,0-2.2247-0.1679-3.1985-0.5037-0.97383-0.31901-1.8217-0.81431-2.5437-1.4859-0.70518-0.68839-1.2593-1.5447-1.6622-2.5689-0.40296-1.041-0.60444-2.2666-0.60444-3.677-0.000003-2.7536,0.96542-4.8691,2.8963-6.3466,1.9476-1.4775,4.9027-2.2834,8.8651-2.4178l4.634-0.1763v-1.7378c-0.000019-1.1249-0.12594-2.0652-0.37778-2.8207-0.23508-0.75552-0.58767-1.36-1.0578-1.8133-0.45335-0.4701-1.0242-0.8059-1.7126-1.0074-0.67162-0.20146-1.444-0.3022-2.317-0.30222-1.3936,0.00002-2.6948,0.2015-3.9037,0.60444-1.1921,0.40299-2.3422,0.8899-3.4503,1.4607l-1.6118-3.4504c1.2425-0.67157,2.6276-1.2424,4.1555-1.7126,1.5279-0.47009,3.1313-0.70515,4.8103-0.70518,1.7126,0.00003,3.1901,0.17632,4.4326,0.52889,1.2592,0.33582,2.2918,0.8815,3.0978,1.637,0.82269,0.73879,1.4355,1.6874,1.8385,2.8459,0.40294,1.1585,0.60442,2.5605,0.60444,4.2059v18.939h-3.2992m-8.4118-3.1985c1.0242,0.00001,1.9728-0.1595,2.8459-0.47851,0.87307-0.31901,1.6286-0.79752,2.2667-1.4356,0.638-0.6548,1.1333-1.4691,1.4859-2.443,0.36936-0.9906,0.55405-2.1491,0.55407-3.4755v-2.4933l-3.6015,0.1763c-1.5111,0.0672-2.7788,0.23507-3.8029,0.5037-1.0242,0.26865-1.8469,0.64643-2.4681,1.1333-0.60445,0.47014-1.041,1.0494-1.3096,1.7378-0.26865,0.67161-0.40297,1.4356-0.40296,2.2918-0.000007,1.5447,0.40295,2.678,1.2089,3.4,0.8227,0.72197,1.8973,1.083,3.2237,1.083"/>
    <path style="text-align:center;" d="m72.607,481.47c0.48689,0.00003,1.0326,0.0252,1.637,0.0756,0.60442,0.0336,1.1249,0.0924,1.5615,0.17629l-0.60444,4.2311c-0.47014-0.0839-0.95705-0.15109-1.4607-0.20148-0.48693-0.0671-0.94865-0.10072-1.3852-0.10074-1.0578,0.00002-2.0232,0.21829-2.8963,0.65481-0.87309,0.41977-1.6286,1.0326-2.2667,1.8385-0.62124,0.78916-1.1082,1.7462-1.4607,2.8711-0.33581,1.1082-0.50371,2.3422-0.5037,3.7022v14.91h-4.5837v-27.653h3.7274l0.55407,5.0622h0.20148c0.41974-0.72194,0.86468-1.4187,1.3348-2.0904,0.4869-0.67158,1.0242-1.2592,1.6118-1.763,0.60443-0.52046,1.276-0.93182,2.0148-1.2341,0.73875-0.31899,1.5782-0.47849,2.5185-0.47852"/>
    <path style="text-align:center;" d="m92.126,510.13c-1.8469,0-3.5343-0.31061-5.0622-0.93184s-2.8459-1.5279-3.954-2.72c-1.0914-1.1921-1.9393-2.6696-2.5437-4.4326-0.60444-1.7629-0.90666-3.7777-0.90666-6.0444-0.000003-2.2834,0.27703-4.3234,0.83111-6.12,0.55407-1.7965,1.3348-3.316,2.3422-4.5585,1.0074-1.2592,2.2079-2.2163,3.6015-2.8711,1.4104-0.65479,2.9634-0.98219,4.6592-0.98222,1.6622,0.00003,3.1565,0.30225,4.4829,0.90666,1.3264,0.58768,2.4513,1.4272,3.3748,2.5185,0.92343,1.0746,1.6286,2.3758,2.1155,3.9037,0.50368,1.5111,0.75553,3.1901,0.75555,5.037v2.8459h-17.428c0.08394,3.2405,0.76394,5.6247,2.04,7.1526,1.2928,1.5279,3.2069,2.2918,5.7422,2.2918,0.85628,0.00001,1.6454-0.042,2.3674-0.12592,0.73874-0.084,1.4439-0.20148,2.1155-0.35259,0.68837-0.1679,1.3516-0.36938,1.9896-0.60444,0.638-0.25185,1.2844-0.52888,1.9392-0.83111v4.08c-0.67162,0.31901-1.3348,0.59604-1.9896,0.8311-0.63804,0.23506-1.3012,0.42815-1.9896,0.57926-0.67162,0.15111-1.3768,0.26024-2.1155,0.3274-0.72199,0.0672-1.5111,0.10074-2.3674,0.10074m-1.1333-24.858c-1.9141,0.00002-3.4336,0.65483-4.5585,1.9644-1.1082,1.3096-1.7546,3.2153-1.9392,5.717h12.391c-0.00002-1.1417-0.11755-2.1827-0.35259-3.1229-0.21829-0.95701-0.57088-1.7713-1.0578-2.443-0.47014-0.67157-1.0746-1.1921-1.8133-1.5615-0.73878-0.36936-1.6286-0.55405-2.6696-0.55407"/>
    <path style="text-align:center;" d="m140.1,509.63-0.67999-3.7022-0.25185,0c-0.41977,0.72198-0.92348,1.3516-1.5111,1.8889-0.57088,0.52049-1.2005,0.95703-1.8889,1.3096-0.68841,0.3358-1.4188,0.58765-2.1911,0.75555-0.77236,0.1679-1.5615,0.25185-2.3674,0.25185-1.5279,0-2.8711-0.19308-4.0296-0.57925s-2.1239-0.99061-2.8963-1.8133c-0.77234-0.82271-1.36-1.8721-1.763-3.1481-0.38617-1.276-0.57926-2.7955-0.57925-4.5585v-18.058h4.5837v17.806c-0.00001,2.1827,0.44493,3.8197,1.3348,4.9111,0.88986,1.0914,2.2666,1.637,4.1303,1.637,1.36,0.00001,2.5017-0.21826,3.4252-0.65481,0.92343-0.43653,1.6622-1.0746,2.2163-1.9141,0.57084-0.85628,0.9738-1.9057,1.2089-3.1481,0.25183-1.2424,0.37776-2.6696,0.37778-4.2814v-14.355h4.5837v27.653h-3.7022"/>
    <path style="text-align:center;" d="m169.9,509.63,0-17.806c-0.00002-2.1827-0.44496-3.8197-1.3348-4.9111-0.8731-1.0913-2.2499-1.637-4.1303-1.637-1.36,0.00002-2.5017,0.21829-3.4252,0.65481-0.92346,0.43657-1.6706,1.083-2.2415,1.9392-0.55408,0.85631-0.95704,1.9057-1.2089,3.1481-0.23507,1.2425-0.3526,2.6696-0.35259,4.2814v14.33h-4.5837v-27.653h3.7274l0.65482,3.7274h0.25185c0.41974-0.72195,0.91504-1.3432,1.4859-1.8637,0.58764-0.53725,1.2257-0.98219,1.9141-1.3348,0.68838-0.35257,1.4188-0.61281,2.1911-0.78074,0.77233-0.16787,1.5615-0.25182,2.3674-0.25185,3.0726,0.00003,5.3812,0.80595,6.9259,2.4178,1.5614,1.5951,2.3422,4.1556,2.3422,7.6814v18.058h-4.5837"/>
    <path style="text-align:center;" d="m200.12,505.93-0.20148,0c-0.3694,0.57087-0.80594,1.1165-1.3096,1.637-0.48693,0.5037-1.0578,0.94864-1.7126,1.3348-0.63804,0.38617-1.36,0.68839-2.1659,0.90666-0.80594,0.21827-1.7126,0.3274-2.72,0.3274-1.5615,0-2.9886-0.30222-4.2814-0.90666s-2.401-1.5027-3.3244-2.6948c-0.92345-1.2089-1.637-2.7032-2.1407-4.4829-0.50371-1.7797-0.75556-3.8449-0.75555-6.1955-0.00001-2.3674,0.25184-4.4409,0.75555-6.2207,0.50369-1.7965,1.2173-3.2992,2.1407-4.5081,0.92345-1.2089,2.0316-2.1155,3.3244-2.72,1.2928-0.62121,2.72-0.93182,4.2814-0.93185,0.9906,0.00003,1.8889,0.10916,2.6948,0.32741,0.80591,0.21829,1.5279,0.51212,2.1659,0.88147,0.6548,0.36941,1.234,0.79755,1.7378,1.2844,0.50368,0.48693,0.94022,0.99903,1.3096,1.5363h0.30222c-0.0504-0.57084-0.10076-1.1165-0.15111-1.637-0.0336-0.43652-0.0672-0.88145-0.10074-1.3348-0.0336-0.47009-0.0504-0.83947-0.0504-1.1081v-10.981h4.5837v39.188h-3.7022l-0.68-3.7022m-7.2281,0.40296c1.276,0.00001,2.3506-0.19308,3.2237-0.57925,0.88986-0.38617,1.6034-0.97382,2.1407-1.763,0.55405-0.78913,0.95701-1.7713,1.2089-2.9466,0.26862-1.1921,0.41973-2.5773,0.45333-4.1555v-1.0326c-0.00002-1.6958-0.11755-3.1985-0.35259-4.5081-0.21829-1.3264-0.60446-2.4345-1.1585-3.3244-0.5373-0.90664-1.2593-1.5866-2.1659-2.04-0.90668-0.4701-2.04-0.70516-3.4-0.70518-2.2667,0.00002-3.9373,0.91508-5.0118,2.7452-1.0578,1.8301-1.5867,4.4578-1.5867,7.8829-0.00001,3.5091,0.52888,6.1284,1.5867,7.8577,1.0746,1.7126,2.7619,2.5689,5.0622,2.5689"/>
    <path style="text-align:center;" d="m224.2,510.13c-1.8469,0-3.5343-0.31061-5.0622-0.93184s-2.8459-1.5279-3.954-2.72c-1.0914-1.1921-1.9392-2.6696-2.5437-4.4326-0.60444-1.7629-0.90666-3.7777-0.90666-6.0444,0-2.2834,0.27703-4.3234,0.83111-6.12,0.55406-1.7965,1.3348-3.316,2.3422-4.5585,1.0074-1.2592,2.2079-2.2163,3.6014-2.8711,1.4104-0.65479,2.9634-0.98219,4.6592-0.98222,1.6622,0.00003,3.1565,0.30225,4.4829,0.90666,1.3264,0.58768,2.4513,1.4272,3.3748,2.5185,0.92343,1.0746,1.6286,2.3758,2.1156,3.9037,0.50367,1.5111,0.75552,3.1901,0.75555,5.037v2.8459h-17.428c0.0839,3.2405,0.76393,5.6247,2.04,7.1526,1.2928,1.5279,3.2069,2.2918,5.7422,2.2918,0.85628,0.00001,1.6454-0.042,2.3674-0.12592,0.73875-0.084,1.4439-0.20148,2.1156-0.35259,0.68837-0.1679,1.3516-0.36938,1.9896-0.60444,0.638-0.25185,1.2844-0.52888,1.9392-0.83111v4.08c-0.67162,0.31901-1.3348,0.59604-1.9896,0.8311-0.63804,0.23506-1.3012,0.42815-1.9896,0.57926-0.67162,0.15111-1.3768,0.26024-2.1156,0.3274-0.72198,0.0672-1.5111,0.10074-2.3674,0.10074m-1.1333-24.858c-1.9141,0.00002-3.4336,0.65483-4.5585,1.9644-1.1082,1.3096-1.7546,3.2153-1.9392,5.717h12.391c-0.00002-1.1417-0.11755-2.1827-0.35259-3.1229-0.21829-0.95701-0.57088-1.7713-1.0578-2.443-0.47014-0.67157-1.0746-1.1921-1.8133-1.5615-0.73878-0.36936-1.6286-0.55405-2.6696-0.55407"/>
    <path style="text-align:center;" d="m252.83,481.47c0.48689,0.00003,1.0326,0.0252,1.637,0.0756,0.60442,0.0336,1.1249,0.0924,1.5615,0.17629l-0.60444,4.2311c-0.47014-0.0839-0.95705-0.15109-1.4607-0.20148-0.48693-0.0671-0.94866-0.10072-1.3852-0.10074-1.0578,0.00002-2.0232,0.21829-2.8963,0.65481-0.87309,0.41977-1.6286,1.0326-2.2666,1.8385-0.62124,0.78916-1.1082,1.7462-1.4607,2.8711-0.33581,1.1082-0.50371,2.3422-0.5037,3.7022v14.91h-4.5837v-27.653h3.7274l0.55407,5.0622h0.20148c0.41974-0.72194,0.86467-1.4187,1.3348-2.0904,0.4869-0.67158,1.0242-1.2592,1.6118-1.763,0.60442-0.52046,1.276-0.93182,2.0148-1.2341,0.73874-0.31899,1.5782-0.47849,2.5185-0.47852"/>
    <path style="text-align:center;" d="m279.88,509.63-9.4444-27.653,4.7348,0,5.0118,15.388c0.18468,0.55409,0.40295,1.2677,0.65481,2.1407,0.25184,0.87309,0.50369,1.763,0.75555,2.6696,0.25184,0.90667,0.4785,1.763,0.67999,2.5689,0.21826,0.80592,0.36098,1.4188,0.42815,1.8385h0.17629c0.0839-0.41974,0.22666-1.0326,0.42815-1.8385,0.20147-0.80592,0.42813-1.6622,0.67999-2.5689,0.25184-0.90665,0.50369-1.7965,0.75556-2.6696,0.25183-0.87307,0.4701-1.5866,0.65481-2.1407l5.0118-15.388h4.7348l-9.4444,27.653h-5.8177"/>
    <path style="text-align:center;" d="m304.08,509.63-4.5837,0,0-27.653,4.5837,0,0,27.653m-4.9363-35.133c0-1.0074,0.25185-1.7377,0.75555-2.1911,0.52049-0.45329,1.1585-0.67996,1.9141-0.67999,0.36938,0.00003,0.71357,0.0588,1.0326,0.17629,0.33579,0.10078,0.62122,0.26868,0.85629,0.5037,0.25184,0.2351,0.44493,0.53732,0.57926,0.90666,0.1511,0.35263,0.22665,0.78077,0.22666,1.2844-0.00001,0.97385-0.26865,1.7042-0.80592,2.1911-0.5205,0.47015-1.1501,0.70521-1.8889,0.70518-0.75555,0.00003-1.3936-0.23503-1.9141-0.70518-0.5037-0.47009-0.75555-1.2005-0.75555-2.1911"/>
    <path style="text-align:center;" d="m329.97,505.93-0.20148,0c-0.36941,0.57087-0.80595,1.1165-1.3096,1.637-0.48693,0.5037-1.0578,0.94864-1.7126,1.3348-0.63804,0.38617-1.36,0.68839-2.1659,0.90666-0.80594,0.21827-1.7126,0.3274-2.72,0.3274-1.5615,0-2.9886-0.30222-4.2815-0.90666-1.2928-0.60444-2.401-1.5027-3.3244-2.6948-0.92346-1.2089-1.637-2.7032-2.1407-4.4829s-0.75555-3.8449-0.75555-6.1955c0-2.3674,0.25185-4.4409,0.75555-6.2207,0.5037-1.7965,1.2173-3.2992,2.1407-4.5081,0.92344-1.2089,2.0316-2.1155,3.3244-2.72,1.2928-0.62121,2.72-0.93182,4.2815-0.93185,0.99059,0.00003,1.8889,0.10916,2.6948,0.32741,0.8059,0.21829,1.5279,0.51212,2.1659,0.88147,0.65479,0.36941,1.234,0.79755,1.7378,1.2844,0.50368,0.48693,0.94022,0.99903,1.3096,1.5363h0.30222c-0.0504-0.57084-0.10077-1.1165-0.15111-1.637-0.0336-0.43652-0.0672-0.88145-0.10074-1.3348-0.0336-0.47009-0.0504-0.83947-0.0504-1.1081v-10.981h4.5837v39.188h-3.7022l-0.67999-3.7022m-7.2281,0.40296c1.276,0.00001,2.3506-0.19308,3.2237-0.57925,0.88985-0.38617,1.6034-0.97382,2.1407-1.763,0.55405-0.78913,0.95701-1.7713,1.2089-2.9466,0.26861-1.1921,0.41972-2.5773,0.45333-4.1555v-1.0326c-0.00003-1.6958-0.11756-3.1985-0.35259-4.5081-0.2183-1.3264-0.60447-2.4345-1.1585-3.3244-0.5373-0.90664-1.2593-1.5866-2.1659-2.04-0.90668-0.4701-2.04-0.70516-3.4-0.70518-2.2667,0.00002-3.9373,0.91508-5.0118,2.7452-1.0578,1.8301-1.5867,4.4578-1.5866,7.8829-0.00001,3.5091,0.52887,6.1284,1.5866,7.8577,1.0746,1.7126,2.762,2.5689,5.0622,2.5689"/>
    <path style="text-align:center;" d="m354.05,510.13c-1.8469,0-3.5343-0.31061-5.0622-0.93184s-2.8459-1.5279-3.954-2.72c-1.0914-1.1921-1.9392-2.6696-2.5437-4.4326-0.60445-1.7629-0.90667-3.7777-0.90666-6.0444-0.00001-2.2834,0.27703-4.3234,0.8311-6.12,0.55407-1.7965,1.3348-3.316,2.3422-4.5585,1.0074-1.2592,2.2079-2.2163,3.6015-2.8711,1.4104-0.65479,2.9634-0.98219,4.6592-0.98222,1.6622,0.00003,3.1565,0.30225,4.4829,0.90666,1.3264,0.58768,2.4513,1.4272,3.3748,2.5185,0.92343,1.0746,1.6286,2.3758,2.1155,3.9037,0.50368,1.5111,0.75553,3.1901,0.75555,5.037v2.8459h-17.428c0.0839,3.2405,0.76394,5.6247,2.04,7.1526,1.2928,1.5279,3.2069,2.2918,5.7422,2.2918,0.85628,0.00001,1.6454-0.042,2.3674-0.12592,0.73874-0.084,1.4439-0.20148,2.1155-0.35259,0.68837-0.1679,1.3516-0.36938,1.9896-0.60444,0.638-0.25185,1.2844-0.52888,1.9392-0.83111v4.08c-0.67162,0.31901-1.3348,0.59604-1.9896,0.8311-0.63804,0.23506-1.3012,0.42815-1.9896,0.57926-0.67162,0.15111-1.3768,0.26024-2.1155,0.3274-0.72199,0.0672-1.5111,0.10074-2.3674,0.10074m-1.1333-24.858c-1.9141,0.00002-3.4336,0.65483-4.5585,1.9644-1.1082,1.3096-1.7546,3.2153-1.9392,5.717h12.391c-0.00002-1.1417-0.11755-2.1827-0.3526-3.1229-0.21828-0.95701-0.57087-1.7713-1.0578-2.443-0.47014-0.67157-1.0746-1.1921-1.8133-1.5615-0.73878-0.36936-1.6286-0.55405-2.6696-0.55407"/>
    <path style="text-align:center;" d="m393.26,495.75c-0.00003,2.3002-0.28546,4.3486-0.85629,6.1452-0.5541,1.7798-1.36,3.2824-2.4178,4.5081-1.041,1.2089-2.3086,2.1323-3.8029,2.7704-1.4943,0.63802-3.1733,0.95703-5.037,0.95703-1.7294,0-3.3244-0.31901-4.7852-0.95703-1.4607-0.63802-2.7284-1.5615-3.8029-2.7704-1.0578-1.2257-1.8889-2.7284-2.4933-4.5081-0.58766-1.7965-0.88148-3.8449-0.88148-6.1452,0-2.2834,0.27703-4.3066,0.83111-6.0696,0.57085-1.7797,1.3768-3.274,2.4178-4.4829,1.041-1.2256,2.3086-2.1491,3.8029-2.7704,1.5111-0.63799,3.1985-0.957,5.0622-0.95703,1.7294,0.00003,3.3244,0.31904,4.7852,0.95703,1.4607,0.62126,2.72,1.5447,3.7778,2.7704,1.0745,1.2089,1.9056,2.7032,2.4933,4.4829,0.60441,1.763,0.90663,3.7862,0.90666,6.0696m-19.342,0c0,3.5091,0.57086,6.1536,1.7126,7.9333,1.1585,1.763,3.0306,2.6444,5.6163,2.6444,2.5856,0.00001,4.4409-0.88147,5.5659-2.6444,1.1417-1.7797,1.7126-4.4242,1.7126-7.9333-0.00002-3.5091-0.57928-6.1283-1.7378-7.8577-1.1417-1.7461-3.0054-2.6192-5.5911-2.6192-2.5857,0.00002-4.4494,0.87311-5.5911,2.6192-1.1249,1.7294-1.6874,4.3486-1.6874,7.8577"/>
    <path style="text-align:center;" d="m430.49,502.05c-0.00002,1.3432-0.24348,2.5185-0.73037,3.5259-0.48693,1.0074-1.1921,1.8553-2.1155,2.5437-0.90668,0.6716-2.0064,1.1753-3.2992,1.5111s-2.7452,0.5037-4.357,0.5037c-1.8301,0-3.4-0.15111-4.7096-0.45333-1.3096-0.28543-2.4597-0.71357-3.4504-1.2844v-4.1807c0.52049,0.26865,1.0998,0.53729,1.7378,0.80592,0.63802,0.25186,1.3096,0.47852,2.0148,0.68,0.70518,0.20148,1.4272,0.36938,2.1659,0.5037,0.75555,0.11753,1.5027,0.1763,2.2415,0.17629,1.0913,0.00001,2.0148-0.0923,2.7704-0.27703,0.77233-0.18469,1.3936-0.44493,1.8637-0.78074,0.48689-0.35258,0.83948-0.77233,1.0578-1.2592,0.21825-0.50369,0.32739-1.0578,0.3274-1.6622-0.00001-0.52048-0.084-0.9906-0.25185-1.4104-0.16791-0.41974-0.47853-0.8311-0.93184-1.2341-0.43656-0.41974-1.041-0.83949-1.8133-1.2592-0.77235-0.41974-1.763-0.88986-2.9718-1.4104-1.2089-0.52048-2.3002-1.0326-3.274-1.5363-0.95704-0.50368-1.7714-1.0662-2.443-1.6874-0.6716-0.62122-1.1921-1.3348-1.5615-2.1407-0.35259-0.82269-0.52889-1.7965-0.52889-2.9215,0-1.1753,0.22667-2.2162,0.68-3.1229,0.47012-0.92343,1.1249-1.6958,1.9644-2.317,0.8395-0.62121,1.8469-1.0913,3.0222-1.4104,1.1753-0.31899,2.4849-0.47849,3.9289-0.47852,1.6286,0.00003,3.1145,0.17632,4.4578,0.52889,1.36,0.35261,2.6444,0.81434,3.8533,1.3852l-1.5867,3.7022c-1.0914-0.48688-2.2163-0.90663-3.3748-1.2592-1.1417-0.36936-2.3086-0.55405-3.5007-0.55407-1.7126,0.00002-2.9802,0.28545-3.8029,0.85629-0.82272,0.5541-1.2341,1.3516-1.2341,2.3926,0,0.58767,0.0923,1.0998,0.27704,1.5363,0.20147,0.43656,0.53727,0.84791,1.0074,1.2341,0.47011,0.38619,1.0997,0.78076,1.8889,1.1837,0.78912,0.38619,1.7713,0.82273,2.9466,1.3096,1.2089,0.50372,2.2834,1.0074,3.2237,1.5111,0.95701,0.50372,1.7713,1.0746,2.443,1.7126,0.67158,0.62125,1.1837,1.3348,1.5363,2.1407,0.35257,0.80593,0.52887,1.7714,0.52889,2.8963"/>
    <path style="text-align:center;" d="m455.12,509.63-0.68-3.7022-0.25185,0c-0.41977,0.72198-0.92347,1.3516-1.5111,1.8889-0.57088,0.52049-1.2005,0.95703-1.8889,1.3096-0.68841,0.3358-1.4188,0.58765-2.1911,0.75555-0.77235,0.1679-1.5615,0.25185-2.3674,0.25185-1.5279,0-2.8711-0.19308-4.0296-0.57925s-2.124-0.99061-2.8963-1.8133c-0.77235-0.82271-1.36-1.8721-1.763-3.1481-0.38618-1.276-0.57926-2.7955-0.57926-4.5585v-18.058h4.5837v17.806c-0.00001,2.1827,0.44492,3.8197,1.3348,4.9111,0.88986,1.0914,2.2666,1.637,4.1304,1.637,1.36,0.00001,2.5017-0.21826,3.4252-0.65481,0.92343-0.43653,1.6622-1.0746,2.2163-1.9141,0.57084-0.85628,0.9738-1.9057,1.2089-3.1481,0.25183-1.2424,0.37776-2.6696,0.37778-4.2814v-14.355h4.5837v27.653h-3.7022"/>
    <path style="text-align:center;" d="m479.6,481.47c0.4869,0.00003,1.0326,0.0252,1.637,0.0756,0.60442,0.0336,1.1249,0.0924,1.5615,0.17629l-0.60444,4.2311c-0.47014-0.0839-0.95705-0.15109-1.4607-0.20148-0.48693-0.0671-0.94865-0.10072-1.3852-0.10074-1.0578,0.00002-2.0232,0.21829-2.8963,0.65481-0.87309,0.41977-1.6286,1.0326-2.2666,1.8385-0.62124,0.78916-1.1082,1.7462-1.4607,2.8711-0.33581,1.1082-0.50371,2.3422-0.5037,3.7022v14.91h-4.5837v-27.653h3.7274l0.55407,5.0622h0.20148c0.41974-0.72194,0.86467-1.4187,1.3348-2.0904,0.4869-0.67158,1.0242-1.2592,1.6118-1.763,0.60443-0.52046,1.276-0.93182,2.0148-1.2341,0.73875-0.31899,1.5782-0.47849,2.5185-0.47852"/>
    <path style="text-align:center;" d="m493.25,509.63-9.4444-27.653,4.7348,0,5.0118,15.388c0.18468,0.55409,0.40295,1.2677,0.65481,2.1407,0.25184,0.87309,0.50369,1.763,0.75555,2.6696,0.25184,0.90667,0.4785,1.763,0.68,2.5689,0.21825,0.80592,0.36097,1.4188,0.42814,1.8385h0.1763c0.0839-0.41974,0.22665-1.0326,0.42814-1.8385,0.20147-0.80592,0.42813-1.6622,0.68-2.5689,0.25183-0.90665,0.50368-1.7965,0.75555-2.6696,0.25183-0.87307,0.4701-1.5866,0.65481-2.1407l5.0118-15.388h4.7348l-9.4444,27.653h-5.8177"/>
    <path style="text-align:center;" d="m523.8,510.13c-1.8469,0-3.5343-0.31061-5.0622-0.93184s-2.8459-1.5279-3.954-2.72c-1.0914-1.1921-1.9393-2.6696-2.5437-4.4326-0.60445-1.7629-0.90667-3.7777-0.90666-6.0444-0.00001-2.2834,0.27703-4.3234,0.8311-6.12,0.55407-1.7965,1.3348-3.316,2.3422-4.5585,1.0074-1.2592,2.2079-2.2163,3.6015-2.8711,1.4104-0.65479,2.9634-0.98219,4.6592-0.98222,1.6622,0.00003,3.1565,0.30225,4.4829,0.90666,1.3264,0.58768,2.4513,1.4272,3.3748,2.5185,0.92343,1.0746,1.6286,2.3758,2.1155,3.9037,0.50368,1.5111,0.75553,3.1901,0.75555,5.037v2.8459h-17.428c0.0839,3.2405,0.76394,5.6247,2.04,7.1526,1.2928,1.5279,3.2069,2.2918,5.7422,2.2918,0.85627,0.00001,1.6454-0.042,2.3674-0.12592,0.73874-0.084,1.4439-0.20148,2.1155-0.35259,0.68837-0.1679,1.3516-0.36938,1.9896-0.60444,0.638-0.25185,1.2844-0.52888,1.9392-0.83111v4.08c-0.67163,0.31901-1.3348,0.59604-1.9896,0.8311-0.63804,0.23506-1.3012,0.42815-1.9896,0.57926-0.67162,0.15111-1.3768,0.26024-2.1155,0.3274-0.72199,0.0672-1.5111,0.10074-2.3674,0.10074m-1.1333-24.858c-1.9141,0.00002-3.4336,0.65483-4.5585,1.9644-1.1082,1.3096-1.7546,3.2153-1.9392,5.717h12.391c-0.00002-1.1417-0.11755-2.1827-0.35259-3.1229-0.21829-0.95701-0.57088-1.7713-1.0578-2.443-0.47013-0.67157-1.0746-1.1921-1.8133-1.5615-0.73877-0.36936-1.6286-0.55405-2.6696-0.55407"/>
    <path style="text-align:center;" d="m545.05,509.63-4.5837,0,0-27.653,4.5837,0,0,27.653m-4.9363-35.133c-0.00001-1.0074,0.25184-1.7377,0.75555-2.1911,0.52048-0.45329,1.1585-0.67996,1.9141-0.67999,0.36937,0.00003,0.71357,0.0588,1.0326,0.17629,0.33579,0.10078,0.62122,0.26868,0.85629,0.5037,0.25184,0.2351,0.44492,0.53732,0.57925,0.90666,0.1511,0.35263,0.22666,0.78077,0.22667,1.2844-0.00001,0.97385-0.26865,1.7042-0.80592,2.1911-0.5205,0.47015-1.1501,0.70521-1.8889,0.70518-0.75556,0.00003-1.3936-0.23503-1.9141-0.70518-0.50371-0.47009-0.75556-1.2005-0.75555-2.1911"/>
    <path style="text-align:center;" d="m558.45,509.63-4.5837,0,0-39.188,4.5837,0,0,39.188"/>
    <path style="text-align:center;" d="m571.85,509.63-4.5837,0,0-39.188,4.5837,0,0,39.188"/>
    <path style="text-align:center;" d="m596.25,509.63-0.93184-3.8281-0.20148,0c-0.55409,0.75555-1.1082,1.4104-1.6622,1.9644-0.55408,0.53728-1.1585,0.98222-1.8133,1.3348-0.65482,0.35259-1.3852,0.61283-2.1911,0.78073-0.80593,0.1679-1.7378,0.25185-2.7955,0.25185-1.1585,0-2.2247-0.1679-3.1985-0.5037-0.97383-0.31901-1.8217-0.81431-2.5437-1.4859-0.70519-0.68839-1.2593-1.5447-1.6622-2.5689-0.40297-1.041-0.60445-2.2666-0.60444-3.677-0.00001-2.7536,0.96542-4.8691,2.8963-6.3466,1.9476-1.4775,4.9027-2.2834,8.8651-2.4178l4.634-0.1763v-1.7378c-0.00002-1.1249-0.12594-2.0652-0.37778-2.8207-0.23507-0.75552-0.58766-1.36-1.0578-1.8133-0.45334-0.4701-1.0242-0.8059-1.7126-1.0074-0.67161-0.20146-1.444-0.3022-2.317-0.30222-1.3936,0.00002-2.6948,0.2015-3.9037,0.60444-1.1921,0.40299-2.3422,0.8899-3.4504,1.4607l-1.6118-3.4504c1.2424-0.67157,2.6276-1.2424,4.1555-1.7126,1.5279-0.47009,3.1313-0.70515,4.8103-0.70518,1.7126,0.00003,3.1901,0.17632,4.4326,0.52889,1.2592,0.33582,2.2918,0.8815,3.0978,1.637,0.82269,0.73879,1.4355,1.6874,1.8385,2.8459,0.40294,1.1585,0.60442,2.5605,0.60444,4.2059v18.939h-3.2992m-8.4118-3.1985c1.0242,0.00001,1.9728-0.1595,2.8459-0.47851,0.87307-0.31901,1.6286-0.79752,2.2666-1.4356,0.63801-0.6548,1.1333-1.4691,1.4859-2.443,0.36936-0.9906,0.55405-2.1491,0.55407-3.4755v-2.4933l-3.6015,0.1763c-1.5111,0.0672-2.7788,0.23507-3.8029,0.5037-1.0242,0.26865-1.8469,0.64643-2.4681,1.1333-0.60445,0.47014-1.041,1.0494-1.3096,1.7378-0.26865,0.67161-0.40297,1.4356-0.40296,2.2918-0.00001,1.5447,0.40295,2.678,1.2089,3.4,0.8227,0.72197,1.8973,1.083,3.2237,1.083"/>
    <path style="text-align:center;" d="m625.34,509.63,0-17.806c-0.00002-2.1827-0.44495-3.8197-1.3348-4.9111-0.8731-1.0913-2.2499-1.637-4.1304-1.637-1.36,0.00002-2.5017,0.21829-3.4252,0.65481-0.92346,0.43657-1.6706,1.083-2.2415,1.9392-0.55408,0.85631-0.95704,1.9057-1.2089,3.1481-0.23507,1.2425-0.3526,2.6696-0.35259,4.2814v14.33h-4.5837v-27.653h3.7274l0.65481,3.7274h0.25185c0.41974-0.72195,0.91505-1.3432,1.4859-1.8637,0.58764-0.53725,1.2257-0.98219,1.9141-1.3348,0.68838-0.35257,1.4187-0.61281,2.1911-0.78074,0.77232-0.16787,1.5614-0.25182,2.3674-0.25185,3.0726,0.00003,5.3812,0.80595,6.9259,2.4178,1.5614,1.5951,2.3422,4.1556,2.3422,7.6814v18.058h-4.5837"/>
    <path style="text-align:center;" d="m649.07,510.13c-1.6958,0-3.2825-0.26024-4.76-0.78073-1.4775-0.53728-2.762-1.3768-3.8533-2.5185-1.0914-1.1585-1.9476-2.6276-2.5689-4.4074-0.62124-1.7965-0.93185-3.954-0.93185-6.4726,0-2.636,0.31901-4.8691,0.95703-6.6992,0.63802-1.8469,1.5111-3.3412,2.6192-4.4829,1.1249-1.1585,2.4345-1.998,3.9289-2.5185,1.4943-0.52047,3.0977-0.78071,4.8103-0.78074,1.3096,0.00003,2.5856,0.14274,3.8281,0.42815,1.2592,0.28545,2.3086,0.63804,3.1481,1.0578l-1.36,3.8785c-0.38619-0.16787-0.81433-0.32738-1.2844-0.47851-0.47014-0.16788-0.95705-0.3106-1.4607-0.42815-0.50371-0.1343-0.99902-0.23504-1.4859-0.30222-0.48693-0.0839-0.94865-0.1259-1.3852-0.12592-2.636,0.00002-4.5585,0.84792-5.7674,2.5437-1.2089,1.679-1.8133,4.2983-1.8133,7.8577-0.00001,3.5427,0.60443,6.1368,1.8133,7.7822,1.2257,1.6286,3.081,2.443,5.5659,2.4429,1.36,0.00001,2.5856-0.1511,3.677-0.45333,1.1081-0.319,2.1155-0.68838,3.0222-1.1081v4.08c-0.90668,0.48691-1.8805,0.85629-2.9215,1.1081-1.0242,0.25185-2.2834,0.37777-3.7778,0.37777"/>
    <path style="text-align:center;" d="m673.3,510.13c-1.8469,0-3.5343-0.31061-5.0622-0.93184s-2.8459-1.5279-3.954-2.72c-1.0914-1.1921-1.9392-2.6696-2.5437-4.4326-0.60444-1.7629-0.90666-3.7777-0.90666-6.0444,0-2.2834,0.27703-4.3234,0.8311-6.12,0.55407-1.7965,1.3348-3.316,2.3422-4.5585,1.0074-1.2592,2.2079-2.2163,3.6015-2.8711,1.4104-0.65479,2.9634-0.98219,4.6592-0.98222,1.6622,0.00003,3.1565,0.30225,4.4829,0.90666,1.3264,0.58768,2.4513,1.4272,3.3748,2.5185,0.92343,1.0746,1.6286,2.3758,2.1155,3.9037,0.50368,1.5111,0.75553,3.1901,0.75555,5.037v2.8459h-17.428c0.084,3.2405,0.76394,5.6247,2.04,7.1526,1.2928,1.5279,3.2069,2.2918,5.7422,2.2918,0.85627,0.00001,1.6454-0.042,2.3674-0.12592,0.73874-0.084,1.4439-0.20148,2.1155-0.35259,0.68837-0.1679,1.3516-0.36938,1.9896-0.60444,0.638-0.25185,1.2844-0.52888,1.9392-0.83111v4.08c-0.67163,0.31901-1.3348,0.59604-1.9896,0.8311-0.63804,0.23506-1.3012,0.42815-1.9896,0.57926-0.67162,0.15111-1.3768,0.26024-2.1155,0.3274-0.72199,0.0672-1.5111,0.10074-2.3674,0.10074m-1.1333-24.858c-1.9141,0.00002-3.4336,0.65483-4.5585,1.9644-1.1082,1.3096-1.7546,3.2153-1.9392,5.717h12.391c-0.00002-1.1417-0.11755-2.1827-0.35259-3.1229-0.21829-0.95701-0.57088-1.7713-1.0578-2.443-0.47014-0.67157-1.0746-1.1921-1.8133-1.5615-0.73877-0.36936-1.6286-0.55405-2.6696-0.55407"/>
    <path style="text-align:center;" d="m694.7,503.64,0.37778,0.57925c-0.23507,0.90667-0.5205,1.8721-0.85629,2.8963-0.31902,1.0242-0.68001,2.0568-1.083,3.0978-0.38618,1.041-0.79753,2.0736-1.2341,3.0978-0.41976,1.041-0.83951,2.0316-1.2593,2.9718h-3.4755c0.25185-1.0242,0.4953-2.0904,0.73037-3.1985,0.25184-1.1081,0.4869-2.2163,0.70518-3.3244,0.23505-1.0914,0.44493-2.1575,0.62962-3.1985,0.18469-1.0578,0.34419-2.0316,0.47852-2.9215h4.9866"/>
    <path style="text-align:center;" d="m-155.77,574.1-0.93185-3.8281-0.20148,0c-0.55409,0.75556-1.1082,1.4104-1.6622,1.9644-0.55409,0.53729-1.1585,0.98222-1.8133,1.3348-0.65483,0.35259-1.3852,0.61284-2.1911,0.78074-0.80594,0.1679-1.7378,0.25185-2.7955,0.25185-1.1585,0-2.2247-0.1679-3.1985-0.5037-0.97383-0.31901-1.8217-0.81432-2.5437-1.4859-0.70518-0.68839-1.2592-1.5447-1.6622-2.5689-0.40296-1.041-0.60444-2.2666-0.60444-3.677,0-2.7536,0.96542-4.8691,2.8963-6.3466,1.9476-1.4775,4.9027-2.2834,8.8651-2.4178l4.634-0.17629v-1.7378c-0.00001-1.1249-0.12594-2.0652-0.37777-2.8207-0.23508-0.75553-0.58767-1.36-1.0578-1.8133-0.45335-0.4701-1.0242-0.8059-1.7126-1.0074-0.67162-0.20145-1.444-0.30219-2.317-0.30222-1.3936,0.00003-2.6948,0.20151-3.9037,0.60445-1.1921,0.40298-2.3422,0.88989-3.4504,1.4607l-1.6118-3.4504c1.2425-0.67158,2.6276-1.2424,4.1555-1.7126,1.5279-0.4701,3.1313-0.70516,4.8103-0.70518,1.7126,0.00002,3.1901,0.17632,4.4326,0.52888,1.2592,0.33583,2.2918,0.8815,3.0978,1.637,0.82269,0.73878,1.4355,1.6874,1.8385,2.8459,0.40294,1.1585,0.60442,2.5605,0.60444,4.2059v18.939h-3.2992m-8.4118-3.1985c1.0242,0,1.9728-0.1595,2.8459-0.47852,0.87307-0.319,1.6286-0.79752,2.2667-1.4355,0.638-0.65481,1.1333-1.4691,1.4859-2.443,0.36937-0.9906,0.55406-2.1491,0.55407-3.4755v-2.4933l-3.6014,0.17629c-1.5111,0.0672-2.7788,0.23508-3.8029,0.5037-1.0242,0.26866-1.8469,0.64643-2.4681,1.1333-0.60445,0.47013-1.041,1.0494-1.3096,1.7378-0.26865,0.67161-0.40297,1.4356-0.40296,2.2918-0.00001,1.5447,0.40295,2.678,1.2089,3.4,0.8227,0.72198,1.8973,1.083,3.2237,1.083"/>
    <path style="text-align:center;" d="m-126.68,574.1,0-17.806c-0.00002-2.1827-0.44495-3.8197-1.3348-4.9111-0.8731-1.0913-2.2499-1.637-4.1304-1.637-1.36,0.00003-2.5017,0.2183-3.4252,0.65482-0.92347,0.43656-1.6706,1.083-2.2415,1.9392-0.55408,0.85631-0.95704,1.9057-1.2089,3.1481-0.23507,1.2425-0.3526,2.6696-0.35259,4.2815v14.33h-4.5837v-27.653h3.7274l0.65481,3.7274h0.25185c0.41974-0.72195,0.91504-1.3432,1.4859-1.8637,0.58764-0.53726,1.2257-0.98219,1.9141-1.3348,0.68837-0.35256,1.4187-0.61281,2.1911-0.78073,0.77233-0.16788,1.5615-0.25183,2.3674-0.25185,3.0726,0.00002,5.3812,0.80594,6.9259,2.4178,1.5614,1.5951,2.3422,4.1556,2.3422,7.6814v18.058h-4.5837"/>
    <path style="text-align:center;" d="m-96.46,570.4-0.20148,0c-0.3694,0.57086-0.80594,1.1165-1.3096,1.637-0.48693,0.50371-1.0578,0.94864-1.7126,1.3348-0.63804,0.38617-1.36,0.68839-2.1659,0.90666-0.80594,0.21827-1.7126,0.32741-2.72,0.32741-1.5615,0-2.9886-0.30222-4.2814-0.90666s-2.401-1.5027-3.3244-2.6948c-0.92346-1.2089-1.637-2.7032-2.1407-4.4829s-0.75555-3.8449-0.75555-6.1955c0-2.3674,0.25185-4.441,0.75555-6.2207,0.5037-1.7965,1.2173-3.2992,2.1407-4.5081,0.92344-1.2088,2.0316-2.1155,3.3244-2.72,1.2928-0.6212,2.72-0.93182,4.2814-0.93184,0.9906,0.00002,1.8889,0.10916,2.6948,0.3274,0.80591,0.2183,1.5279,0.51212,2.1659,0.88148,0.65479,0.3694,1.234,0.79755,1.7378,1.2844,0.50368,0.48694,0.94022,0.99903,1.3096,1.5363h0.30222c-0.05039-0.57084-0.10076-1.1165-0.15111-1.637-0.0336-0.43651-0.06718-0.88145-0.10074-1.3348-0.0336-0.4701-0.05039-0.83948-0.05037-1.1081v-10.981h4.5837v39.188h-3.7022l-0.68-3.7022m-7.2281,0.40296c1.276,0,2.3506-0.19308,3.2237-0.57926,0.88986-0.38616,1.6034-0.97381,2.1407-1.763,0.55405-0.78912,0.95701-1.7713,1.2089-2.9466,0.26862-1.1921,0.41973-2.5772,0.45333-4.1555v-1.0326c-0.000021-1.6958-0.11755-3.1985-0.35259-4.5081-0.21829-1.3264-0.60446-2.4345-1.1585-3.3244-0.5373-0.90664-1.2593-1.5866-2.1659-2.04-0.90668-0.4701-2.04-0.70516-3.4-0.70519-2.2667,0.00003-3.9373,0.91508-5.0118,2.7452-1.0578,1.8301-1.5867,4.4578-1.5867,7.8829,0,3.5091,0.52888,6.1284,1.5867,7.8577,1.0746,1.7126,2.762,2.5689,5.0622,2.5689"/>
    <path style="text-align:center;" d="m-54.325,574.1-0.93185-3.8281-0.20148,0c-0.55409,0.75556-1.1082,1.4104-1.6622,1.9644-0.55409,0.53729-1.1585,0.98222-1.8133,1.3348-0.65482,0.35259-1.3852,0.61284-2.1911,0.78074-0.80593,0.1679-1.7378,0.25185-2.7955,0.25185-1.1585,0-2.2247-0.1679-3.1985-0.5037-0.97383-0.31901-1.8217-0.81432-2.5437-1.4859-0.70518-0.68839-1.2593-1.5447-1.6622-2.5689-0.40296-1.041-0.60444-2.2666-0.60444-3.677-0.000003-2.7536,0.96542-4.8691,2.8963-6.3466,1.9476-1.4775,4.9027-2.2834,8.8651-2.4178l4.634-0.17629v-1.7378c-0.000019-1.1249-0.12594-2.0652-0.37778-2.8207-0.23508-0.75553-0.58767-1.36-1.0578-1.8133-0.45335-0.4701-1.0242-0.8059-1.7126-1.0074-0.67162-0.20145-1.444-0.30219-2.317-0.30222-1.3936,0.00003-2.6948,0.20151-3.9037,0.60445-1.1921,0.40298-2.3422,0.88989-3.4503,1.4607l-1.6118-3.4504c1.2425-0.67158,2.6276-1.2424,4.1555-1.7126,1.5279-0.4701,3.1313-0.70516,4.8103-0.70518,1.7126,0.00002,3.1901,0.17632,4.4326,0.52888,1.2592,0.33583,2.2918,0.8815,3.0978,1.637,0.82269,0.73878,1.4355,1.6874,1.8385,2.8459,0.40294,1.1585,0.60442,2.5605,0.60444,4.2059v18.939h-3.2992m-8.4118-3.1985c1.0242,0,1.9728-0.1595,2.8459-0.47852,0.87307-0.319,1.6286-0.79752,2.2667-1.4355,0.638-0.65481,1.1333-1.4691,1.4859-2.443,0.36936-0.9906,0.55405-2.1491,0.55407-3.4755v-2.4933l-3.6015,0.17629c-1.5111,0.0672-2.7788,0.23508-3.8029,0.5037-1.0242,0.26866-1.8469,0.64643-2.4681,1.1333-0.60445,0.47013-1.041,1.0494-1.3096,1.7378-0.26865,0.67161-0.40297,1.4356-0.40296,2.2918-0.000007,1.5447,0.40295,2.678,1.2089,3.4,0.8227,0.72198,1.8973,1.083,3.2237,1.083"/>
    <path style="text-align:center;" d="m-37.93,574.1-4.5837,0,0-39.188,4.5837,0,0,39.188"/>
    <path style="text-align:center;" d="m-24.531,574.1-4.5837,0,0-39.188,4.5837,0,0,39.188"/>
    <path style="text-align:center;" d="m9.6449,545.95c0.48689,0.00002,1.0326,0.0252,1.637,0.0755,0.60442,0.0336,1.1249,0.0924,1.5615,0.1763l-0.60444,4.2311c-0.47014-0.0839-0.95705-0.15109-1.4607-0.20148-0.48693-0.0671-0.94865-0.10072-1.3852-0.10074-1.0578,0.00002-2.0232,0.21829-2.8963,0.65481-0.87309,0.41977-1.6286,1.0326-2.2667,1.8385-0.62124,0.78915-1.1082,1.7462-1.4607,2.8711-0.33581,1.1082-0.50371,2.3422-0.5037,3.7022v14.91h-4.5837v-27.653h3.7274l0.55407,5.0622h0.20148c0.41974-0.72195,0.86468-1.4187,1.3348-2.0904,0.4869-0.67158,1.0242-1.2592,1.6118-1.763,0.60443-0.52047,1.276-0.93182,2.0148-1.2341,0.73875-0.31898,1.5782-0.47849,2.5185-0.47851"/>
    <path style="text-align:center;" d="m29.163,574.61c-1.8469,0-3.5343-0.31062-5.0622-0.93185s-2.8459-1.5279-3.954-2.72c-1.0914-1.1921-1.9393-2.6696-2.5437-4.4326-0.60444-1.7629-0.90666-3.7777-0.90666-6.0444-0.000003-2.2834,0.27703-4.3234,0.83111-6.12,0.55407-1.7965,1.3348-3.316,2.3422-4.5585,1.0074-1.2592,2.2079-2.2162,3.6015-2.8711,1.4104-0.65478,2.9634-0.98219,4.6592-0.98221,1.6622,0.00002,3.1565,0.30224,4.4829,0.90666,1.3264,0.58767,2.4513,1.4272,3.3748,2.5185,0.92343,1.0746,1.6286,2.3758,2.1155,3.9037,0.50368,1.5111,0.75553,3.1901,0.75555,5.037v2.8459h-17.428c0.08394,3.2405,0.76394,5.6247,2.04,7.1526,1.2928,1.5279,3.2069,2.2918,5.7422,2.2918,0.85628,0,1.6454-0.042,2.3674-0.12593,0.73874-0.0839,1.4439-0.20147,2.1155-0.35259,0.68837-0.16789,1.3516-0.36937,1.9896-0.60444,0.638-0.25184,1.2844-0.52888,1.9392-0.8311v4.08c-0.67162,0.31901-1.3348,0.59605-1.9896,0.83111-0.63804,0.23506-1.3012,0.42814-1.9896,0.57925-0.67162,0.15111-1.3768,0.26025-2.1155,0.32741-0.72199,0.0672-1.5111,0.10074-2.3674,0.10074m-1.1333-24.858c-1.9141,0.00003-3.4336,0.65484-4.5585,1.9644-1.1082,1.3096-1.7546,3.2153-1.9392,5.717h12.391c-0.00002-1.1417-0.11755-2.1827-0.35259-3.123-0.21829-0.95701-0.57088-1.7713-1.0578-2.4429-0.47014-0.67158-1.0746-1.1921-1.8133-1.5615-0.73878-0.36936-1.6286-0.55405-2.6696-0.55408"/>
    <path style="text-align:center;" d="m56.413,574.61c-1.6958,0-3.2825-0.26025-4.76-0.78074-1.4775-0.53728-2.762-1.3768-3.8533-2.5185-1.0914-1.1585-1.9476-2.6276-2.5689-4.4074-0.62123-1.7965-0.93185-3.954-0.93185-6.4726-0.000003-2.636,0.31901-4.8691,0.95703-6.6992,0.63802-1.8469,1.5111-3.3412,2.6192-4.4829,1.1249-1.1585,2.4345-1.998,3.9289-2.5185,1.4943-0.52046,3.0977-0.78071,4.8103-0.78073,1.3096,0.00002,2.5856,0.14274,3.8281,0.42814,1.2592,0.28546,2.3086,0.63805,3.1481,1.0578l-1.36,3.8785c-0.38619-0.16788-0.81434-0.32739-1.2844-0.47852-0.47014-0.16788-0.95705-0.31059-1.4607-0.42814-0.50372-0.1343-0.99902-0.23504-1.4859-0.30223-0.48693-0.0839-0.94865-0.1259-1.3852-0.12592-2.636,0.00002-4.5585,0.84792-5.7674,2.5437-1.2089,1.679-1.8133,4.2983-1.8133,7.8577-0.000007,3.5427,0.60443,6.1368,1.8133,7.7822,1.2257,1.6286,3.081,2.443,5.5659,2.443,1.36,0,2.5856-0.15111,3.677-0.45333,1.1081-0.31901,2.1155-0.68839,3.0222-1.1081v4.08c-0.90668,0.48691-1.8805,0.85629-2.9215,1.1081-1.0242,0.25185-2.2835,0.37778-3.7778,0.37778"/>
    <path style="text-align:center;" d="m92.252,560.23c-0.000027,2.3002-0.28546,4.3486-0.85629,6.1451-0.5541,1.7798-1.36,3.2825-2.4178,4.5081-1.041,1.2089-2.3086,2.1323-3.8029,2.7704-1.4943,0.63802-3.1733,0.95703-5.037,0.95703-1.7294,0-3.3244-0.31901-4.7852-0.95703-1.4607-0.63802-2.7284-1.5615-3.8029-2.7704-1.0578-1.2257-1.8889-2.7284-2.4933-4.5081-0.58765-1.7965-0.88148-3.8449-0.88148-6.1451-0.000003-2.2834,0.27703-4.3066,0.83111-6.0696,0.57086-1.7797,1.3768-3.274,2.4178-4.4829,1.041-1.2256,2.3086-2.1491,3.8029-2.7704,1.5111-0.638,3.1985-0.95701,5.0622-0.95703,1.7294,0.00002,3.3244,0.31903,4.7852,0.95703,1.4607,0.62125,2.72,1.5447,3.7778,2.7704,1.0745,1.2089,1.9056,2.7032,2.4933,4.4829,0.60441,1.763,0.90663,3.7862,0.90666,6.0696m-19.342,0c-0.000007,3.5091,0.57085,6.1536,1.7126,7.9333,1.1585,1.763,3.0306,2.6444,5.6163,2.6444,2.5856,0,4.4409-0.88147,5.5659-2.6444,1.1417-1.7797,1.7126-4.4242,1.7126-7.9333-0.000022-3.5091-0.57928-6.1283-1.7378-7.8577-1.1417-1.7461-3.0054-2.6192-5.5911-2.6192-2.5857,0.00003-4.4494,0.87311-5.5911,2.6192-1.1249,1.7294-1.6874,4.3486-1.6874,7.8577"/>
    <path style="text-align:center;" d="m111.49,545.95c0.48689,0.00002,1.0326,0.0252,1.637,0.0755,0.60442,0.0336,1.1249,0.0924,1.5615,0.1763l-0.60444,4.2311c-0.47014-0.0839-0.95705-0.15109-1.4607-0.20148-0.48693-0.0671-0.94866-0.10072-1.3852-0.10074-1.0578,0.00002-2.0232,0.21829-2.8963,0.65481-0.87309,0.41977-1.6286,1.0326-2.2666,1.8385-0.62124,0.78915-1.1082,1.7462-1.4607,2.8711-0.33581,1.1082-0.50371,2.3422-0.5037,3.7022v14.91h-4.5837v-27.653h3.7274l0.55408,5.0622h0.20148c0.41974-0.72195,0.86467-1.4187,1.3348-2.0904,0.4869-0.67158,1.0242-1.2592,1.6118-1.763,0.60443-0.52047,1.276-0.93182,2.0148-1.2341,0.73874-0.31898,1.5782-0.47849,2.5185-0.47851"/>
    <path style="text-align:center;" d="m137.16,570.4-0.20148,0c-0.3694,0.57086-0.80594,1.1165-1.3096,1.637-0.48693,0.50371-1.0578,0.94864-1.7126,1.3348-0.63804,0.38617-1.36,0.68839-2.1659,0.90666-0.80594,0.21827-1.7126,0.32741-2.72,0.32741-1.5615,0-2.9886-0.30222-4.2814-0.90666s-2.401-1.5027-3.3244-2.6948c-0.92346-1.2089-1.637-2.7032-2.1407-4.4829s-0.75555-3.8449-0.75555-6.1955c0-2.3674,0.25185-4.441,0.75555-6.2207,0.5037-1.7965,1.2173-3.2992,2.1407-4.5081,0.92344-1.2088,2.0316-2.1155,3.3244-2.72,1.2928-0.6212,2.72-0.93182,4.2814-0.93184,0.9906,0.00002,1.8889,0.10916,2.6948,0.3274,0.80591,0.2183,1.5279,0.51212,2.1659,0.88148,0.65479,0.3694,1.234,0.79755,1.7378,1.2844,0.50368,0.48694,0.94022,0.99903,1.3096,1.5363h0.30222c-0.0504-0.57084-0.10076-1.1165-0.15111-1.637-0.0336-0.43651-0.0672-0.88145-0.10074-1.3348-0.0336-0.4701-0.0504-0.83948-0.0504-1.1081v-10.981h4.5837v39.188h-3.7022l-0.68-3.7022m-7.2281,0.40296c1.276,0,2.3506-0.19308,3.2237-0.57926,0.88986-0.38616,1.6034-0.97381,2.1407-1.763,0.55405-0.78912,0.95701-1.7713,1.2089-2.9466,0.26862-1.1921,0.41973-2.5772,0.45333-4.1555v-1.0326c-0.00002-1.6958-0.11755-3.1985-0.35259-4.5081-0.21829-1.3264-0.60446-2.4345-1.1585-3.3244-0.5373-0.90664-1.2593-1.5866-2.1659-2.04-0.90668-0.4701-2.04-0.70516-3.4-0.70519-2.2667,0.00003-3.9373,0.91508-5.0118,2.7452-1.0578,1.8301-1.5867,4.4578-1.5867,7.8829,0,3.5091,0.52888,6.1284,1.5867,7.8577,1.0746,1.7126,2.762,2.5689,5.0622,2.5689"/>
    <path style="text-align:center;" d="m154.89,574.1-4.5837,0,0-27.653,4.5837,0,0,27.653m-4.9363-35.133c0-1.0074,0.25185-1.7377,0.75555-2.1911,0.52049-0.45329,1.1585-0.67995,1.9141-0.67999,0.36938,0.00004,0.71357,0.0588,1.0326,0.17629,0.33579,0.10078,0.62122,0.26868,0.85629,0.5037,0.25184,0.2351,0.44493,0.53732,0.57926,0.90667,0.1511,0.35262,0.22665,0.78077,0.22666,1.2844-0.00001,0.97386-0.26865,1.7042-0.80592,2.1911-0.5205,0.47015-1.1501,0.70521-1.8889,0.70518-0.75555,0.00003-1.3936-0.23503-1.9141-0.70518-0.5037-0.47009-0.75555-1.2004-0.75555-2.1911"/>
    <path style="text-align:center;" d="m180.98,574.1,0-17.806c-0.00002-2.1827-0.44496-3.8197-1.3348-4.9111-0.8731-1.0913-2.2499-1.637-4.1303-1.637-1.36,0.00003-2.5017,0.2183-3.4252,0.65482-0.92346,0.43656-1.6706,1.083-2.2415,1.9392-0.55409,0.85631-0.95705,1.9057-1.2089,3.1481-0.23507,1.2425-0.3526,2.6696-0.35259,4.2815v14.33h-4.5837v-27.653h3.7274l0.65481,3.7274h0.25185c0.41974-0.72195,0.91505-1.3432,1.4859-1.8637,0.58764-0.53726,1.2257-0.98219,1.9141-1.3348,0.68838-0.35256,1.4187-0.61281,2.1911-0.78073,0.77233-0.16788,1.5615-0.25183,2.3674-0.25185,3.0726,0.00002,5.3812,0.80594,6.9259,2.4178,1.5614,1.5951,2.3422,4.1556,2.3422,7.6814v18.058h-4.5837"/>
    <path style="text-align:center;" d="m215.43,546.45,0,2.8459-4.9614,0.68c0.4701,0.58767,0.86467,1.3432,1.1837,2.2666,0.31899,0.90668,0.47849,1.9393,0.47852,3.0978-0.00003,1.2761-0.20151,2.4598-0.60444,3.5511-0.3862,1.0746-0.98224,2.0064-1.7881,2.7955-0.78915,0.78914-1.7714,1.4104-2.9466,1.8637-1.1753,0.43655-2.5437,0.65482-4.1052,0.65481-0.36939,0.00001-0.73877,0.00001-1.1081,0-0.36939-0.0168-0.67161-0.0504-0.90666-0.10074-0.28544,0.16791-0.57087,0.361-0.85629,0.57926-0.26865,0.20149-0.5205,0.43655-0.75555,0.70518-0.21828,0.26865-0.40297,0.57087-0.55407,0.90666-0.13433,0.33581-0.20149,0.70519-0.20148,1.1081-0.00001,0.45334,0.10073,0.82272,0.30222,1.1081,0.20147,0.26865,0.47011,0.47852,0.80592,0.62963,0.35258,0.15111,0.76393,0.25185,1.2341,0.30222,0.47011,0.0504,0.96542,0.0756,1.4859,0.0756h4.4326c1.5615,0.00001,2.8795,0.20149,3.954,0.60444,1.0745,0.38618,1.9476,0.91506,2.6192,1.5867,0.68836,0.6716,1.1837,1.4691,1.4859,2.3926,0.3022,0.90666,0.45331,1.8721,0.45333,2.8963-0.00002,1.4775-0.27706,2.8039-0.8311,3.9792-0.53731,1.1753-1.3684,2.1659-2.4933,2.9718-1.125,0.8227-2.5521,1.4523-4.2814,1.8889-1.7126,0.43653-3.7358,0.6548-6.0696,0.65481-1.7965-0.00001-3.3664-0.17631-4.7096-0.52889-1.3432-0.3526-2.4597-0.86469-3.3496-1.5363-0.88988-0.67161-1.5615-1.4859-2.0148-2.443-0.43654-0.94025-0.65481-2.0064-0.65481-3.1985,0-1.0074,0.15951-1.8973,0.47852-2.6696,0.3358-0.75555,0.78073-1.4104,1.3348-1.9644,0.55407-0.55407,1.1921-1.0074,1.9141-1.36,0.73875-0.35259,1.5027-0.62123,2.2918-0.80593-0.70518-0.319-1.2844-0.8227-1.7378-1.5111-0.45334-0.68838-0.68-1.4775-0.68-2.3674,0-1.0242,0.26864-1.9057,0.80592-2.6444,0.53728-0.75554,1.3852-1.4859,2.5437-2.1911-0.72198-0.3022-1.3852-0.71356-1.9896-1.2341-0.58765-0.53727-1.0914-1.1417-1.5111-1.8133-0.40296-0.68838-0.72197-1.4355-0.95703-2.2415-0.21827-0.80591-0.32741-1.637-0.32741-2.4933,0-1.4943,0.20988-2.8291,0.62963-4.0044s1.041-2.1743,1.8637-2.997c0.82271-0.82268,1.8469-1.4523,3.0726-1.8889,1.2257-0.43652,2.6528-0.65479,4.2814-0.65481,0.62122,0.00002,1.2592,0.0504,1.9141,0.15111,0.67159,0.084,1.234,0.2015,1.6874,0.35259h9.1422m-20.425,32.186c-0.00001,0.62123,0.10913,1.2005,0.3274,1.7378,0.21827,0.53727,0.57086,0.999,1.0578,1.3852,0.5037,0.38616,1.1585,0.68838,1.9644,0.90666,0.8227,0.23505,1.8385,0.35258,3.0474,0.35259,3.1229-0.00001,5.4567-0.48692,7.0014-1.4607,1.5614-0.95703,2.3422-2.3422,2.3422-4.1555-0.00002-0.77235-0.10076-1.402-0.30222-1.8889-0.2015-0.48691-0.5373-0.87308-1.0074-1.1585-0.45335-0.26864-1.0578-0.45333-1.8133-0.55407-0.75557-0.10074-1.679-0.15111-2.7704-0.15111h-4.4326c-0.58766,0-1.2005,0.0672-1.8385,0.20148-0.63803,0.13432-1.2257,0.38617-1.763,0.75555-0.5205,0.36938-0.95704,0.87308-1.3096,1.5111-0.33581,0.65481-0.50371,1.4943-0.5037,2.5185m2.317-23.296c-0.00001,1.9309,0.45332,3.3664,1.36,4.3066,0.90665,0.94026,2.1911,1.4104,3.8533,1.4104,1.679,0.00002,2.9466-0.46171,3.8029-1.3852,0.87306-0.94023,1.3096-2.4094,1.3096-4.4074-0.00002-2.0652-0.44495-3.5846-1.3348-4.5585-0.87309-0.9738-2.1491-1.4607-3.8281-1.4607-1.6622,0.00003-2.9383,0.50373-3.8281,1.5111-0.88988,1.0074-1.3348,2.5353-1.3348,4.5837"/>
    <path style="text-align:center;" d="m237.37,566.52c-0.00002,1.3432-0.24348,2.5185-0.73037,3.5259-0.48693,1.0074-1.1921,1.8553-2.1155,2.5437-0.90668,0.67161-2.0064,1.1753-3.2992,1.5111s-2.7452,0.5037-4.357,0.5037c-1.8301,0-3.4-0.15111-4.7096-0.45333-1.3096-0.28543-2.4597-0.71358-3.4504-1.2844v-4.1807c0.52049,0.26864,1.0998,0.53728,1.7378,0.80592,0.63802,0.25185,1.3096,0.47852,2.0148,0.67999,0.70518,0.20149,1.4272,0.36939,2.1659,0.5037,0.75554,0.11754,1.5027,0.1763,2.2415,0.1763,1.0913,0,2.0148-0.0923,2.7704-0.27704,0.77232-0.18468,1.3936-0.44493,1.8637-0.78073,0.48689-0.35259,0.83948-0.77234,1.0578-1.2592,0.21825-0.5037,0.32739-1.0578,0.32741-1.6622-0.00002-0.52048-0.084-0.9906-0.25185-1.4104-0.16792-0.41974-0.47854-0.83109-0.93185-1.2341-0.43656-0.41974-1.041-0.83949-1.8133-1.2593-0.77236-0.41973-1.763-0.88985-2.9718-1.4104-1.2089-0.52047-2.3002-1.0326-3.274-1.5363-0.95704-0.50369-1.7714-1.0662-2.443-1.6874-0.6716-0.62122-1.1921-1.3348-1.5615-2.1407-0.35259-0.82269-0.52889-1.7965-0.52888-2.9215-0.00001-1.1753,0.22666-2.2163,0.67999-3.123,0.47012-0.92342,1.1249-1.6958,1.9644-2.317s1.8469-1.0913,3.0222-1.4104c1.1753-0.31898,2.4849-0.47849,3.9289-0.47851,1.6286,0.00002,3.1145,0.17632,4.4578,0.52888,1.36,0.35262,2.6444,0.81434,3.8533,1.3852l-1.5867,3.7022c-1.0914-0.48689-2.2163-0.90664-3.3748-1.2592-1.1417-0.36936-2.3086-0.55405-3.5007-0.55408-1.7126,0.00003-2.9802,0.28546-3.8029,0.8563-0.82272,0.55409-1.2341,1.3516-1.2341,2.3926-0.00001,0.58767,0.0923,1.0998,0.27703,1.5363,0.20147,0.43656,0.53727,0.84791,1.0074,1.2341,0.47011,0.38618,1.0997,0.78075,1.8889,1.1837,0.78912,0.38619,1.7713,0.82273,2.9466,1.3096,1.2089,0.50372,2.2834,1.0074,3.2237,1.5111,0.95701,0.50371,1.7713,1.0746,2.443,1.7126,0.67158,0.62124,1.1837,1.3348,1.5363,2.1407,0.35257,0.80594,0.52887,1.7714,0.52889,2.8963"/>
    <path style="text-align:center;" d="m290.61,574.1,0-17.806c-0.00004-2.1827-0.41979-3.8197-1.2592-4.9111-0.83954-1.0913-2.1408-1.637-3.9037-1.637-1.2257,0.00003-2.2667,0.20151-3.1229,0.60445-0.85632,0.38619-1.5615,0.96544-2.1155,1.7378-0.53731,0.75557-0.93188,1.7042-1.1837,2.8459-0.25188,1.125-0.3778,2.4262-0.37778,3.9037v15.262h-4.6089v-17.806c-0.00002-2.1827-0.41977-3.8197-1.2592-4.9111-0.82273-1.0913-2.1156-1.637-3.8785-1.637-1.2928,0.00003-2.3758,0.2183-3.2489,0.65482-0.87309,0.43656-1.5783,1.083-2.1155,1.9392-0.5205,0.85631-0.89828,1.9057-1.1333,3.1481-0.21828,1.2425-0.32741,2.6696-0.3274,4.2815v14.33h-4.5837v-27.653h3.7274l0.65482,3.7274h0.25185c0.40295-0.72195,0.88146-1.3432,1.4355-1.8637,0.55406-0.53726,1.1585-0.98219,1.8133-1.3348,0.67159-0.35256,1.3768-0.61281,2.1156-0.78073,0.75553-0.16788,1.5195-0.25183,2.2918-0.25185,2.0148,0.00002,3.6854,0.3694,5.0118,1.1081,1.3432,0.73878,2.3338,1.8973,2.9718,3.4755h0.20148c0.43651-0.78911,0.957-1.4691,1.5615-2.04,0.6212-0.57083,1.2928-1.041,2.0148-1.4104,0.73873-0.38614,1.5111-0.67157,2.317-0.85629,0.80589-0.18466,1.6286-0.27701,2.4681-0.27703,2.9382,0.00002,5.1461,0.80594,6.6237,2.4178,1.4943,1.5951,2.2414,4.1556,2.2415,7.6814v18.058h-4.5837"/>
    <path style="text-align:center;" d="m319.32,574.1-0.93185-3.8281-0.20148,0c-0.55409,0.75556-1.1082,1.4104-1.6622,1.9644-0.55409,0.53729-1.1585,0.98222-1.8133,1.3348-0.65483,0.35259-1.3852,0.61284-2.1911,0.78074-0.80593,0.1679-1.7378,0.25185-2.7955,0.25185-1.1585,0-2.2247-0.1679-3.1985-0.5037-0.97382-0.31901-1.8217-0.81432-2.5437-1.4859-0.70519-0.68839-1.2593-1.5447-1.6622-2.5689-0.40296-1.041-0.60444-2.2666-0.60444-3.677,0-2.7536,0.96543-4.8691,2.8963-6.3466,1.9476-1.4775,4.9027-2.2834,8.8651-2.4178l4.634-0.17629v-1.7378c-0.00002-1.1249-0.12595-2.0652-0.37778-2.8207-0.23508-0.75553-0.58767-1.36-1.0578-1.8133-0.45335-0.4701-1.0242-0.8059-1.7126-1.0074-0.67162-0.20145-1.444-0.30219-2.317-0.30222-1.3936,0.00003-2.6948,0.20151-3.9037,0.60445-1.1921,0.40298-2.3422,0.88989-3.4504,1.4607l-1.6118-3.4504c1.2424-0.67158,2.6276-1.2424,4.1555-1.7126,1.5279-0.4701,3.1313-0.70516,4.8103-0.70518,1.7126,0.00002,3.1901,0.17632,4.4326,0.52888,1.2592,0.33583,2.2918,0.8815,3.0978,1.637,0.82269,0.73878,1.4355,1.6874,1.8385,2.8459,0.40293,1.1585,0.60441,2.5605,0.60444,4.2059v18.939h-3.2992m-8.4118-3.1985c1.0242,0,1.9728-0.1595,2.8459-0.47852,0.87306-0.319,1.6286-0.79752,2.2666-1.4355,0.638-0.65481,1.1333-1.4691,1.4859-2.443,0.36936-0.9906,0.55405-2.1491,0.55407-3.4755v-2.4933l-3.6015,0.17629c-1.5111,0.0672-2.7788,0.23508-3.8029,0.5037-1.0242,0.26866-1.8469,0.64643-2.4681,1.1333-0.60445,0.47013-1.041,1.0494-1.3096,1.7378-0.26864,0.67161-0.40296,1.4356-0.40296,2.2918,0,1.5447,0.40296,2.678,1.2089,3.4,0.8227,0.72198,1.8973,1.083,3.2237,1.083"/>
    <path style="text-align:center;" d="m327,546.45,4.76,0,5.4148,15.438c0.23505,0.67161,0.47011,1.3768,0.70518,2.1155,0.25184,0.73877,0.4785,1.4775,0.68,2.2163,0.21825,0.73877,0.40294,1.4524,0.55407,2.1407,0.15109,0.6884,0.26023,1.3264,0.3274,1.9141h0.15111c0.0839-0.41974,0.21826-0.9906,0.40296-1.7126,0.18468-0.72196,0.38616-1.4859,0.60444-2.2918,0.23505-0.8227,0.47011-1.6286,0.70518-2.4178,0.25184-0.78912,0.47011-1.4607,0.65481-2.0148l5.0118-15.388h4.7348l-10.93,31.255c-0.47014,1.36-0.98223,2.5773-1.5363,3.6518-0.53729,1.0914-1.1669,2.0148-1.8889,2.7704-0.72198,0.75554-1.5699,1.3348-2.5437,1.7378-0.97383,0.41974-2.1323,0.62962-3.4755,0.62963-0.87308-0.00001-1.6286-0.0504-2.2666-0.15111-0.63802-0.084-1.1837-0.17631-1.637-0.27704v-3.6518c0.35259,0.0839,0.79753,0.1511,1.3348,0.20148,0.53728,0.0671,1.0997,0.10073,1.6874,0.10074,0.80591-0.00001,1.5027-0.10075,2.0904-0.30222,0.58765-0.1847,1.0997-0.46174,1.5363-0.83111,0.43653-0.36939,0.80591-0.82272,1.1081-1.36,0.319-0.53729,0.60443-1.1501,0.85629-1.8385l1.4356-4.0296-10.477-27.905"/>
    <path style="text-align:center;" d="m382.21,545.95c1.5782,0.00002,3.0138,0.30224,4.3066,0.90666,1.2928,0.60446,2.3926,1.5111,3.2992,2.72,0.92343,1.1921,1.637,2.678,2.1407,4.4578,0.50367,1.7798,0.75552,3.8449,0.75555,6.1955-0.00003,2.3674-0.25188,4.4494-0.75555,6.2459-0.50373,1.7798-1.2173,3.2741-2.1407,4.4829-0.90668,1.2089-2.0064,2.1239-3.2992,2.7452-1.2928,0.60444-2.7284,0.90666-4.3066,0.90666-0.99063,0-1.8889-0.10914-2.6948-0.32741-0.80593-0.21827-1.5363-0.5037-2.1911-0.85629-0.63804-0.36938-1.2089-0.79752-1.7126-1.2844-0.48692-0.4869-0.92346-0.999-1.3096-1.5363h-0.30222l-0.93184,3.5007h-3.3496v-39.188h4.5837v9.4696c-0.00001,0.58768-0.008,1.2173-0.0252,1.8889-0.0168,0.65484-0.042,1.2677-0.0756,1.8385-0.0336,0.67162-0.0672,1.3264-0.10074,1.9644h0.20148c0.38616-0.58763,0.8227-1.1333,1.3096-1.637,0.4869-0.50367,1.0494-0.94021,1.6874-1.3096,0.6548-0.36935,1.3852-0.65478,2.1911-0.85629,0.8059-0.21824,1.7126-0.32738,2.72-0.3274m-0.88147,3.8029c-1.3432,0.00003-2.4682,0.2183-3.3748,0.65482-0.88988,0.41977-1.6118,1.0662-2.1659,1.9392-0.53729,0.8731-0.92346,1.9644-1.1585,3.2741-0.21828,1.3096-0.32742,2.8459-0.32741,4.6089-0.00001,1.6958,0.10913,3.2069,0.32741,4.5333,0.23505,1.3096,0.62122,2.4178,1.1585,3.3244,0.55406,0.88988,1.2844,1.5699,2.1911,2.04,0.90664,0.45334,2.04,0.68,3.4,0.68,2.2666,0,3.9288-0.91505,4.9866-2.7452,1.0745-1.8301,1.6118-4.4577,1.6118-7.8829-0.00002-3.4923-0.5373-6.1032-1.6118-7.8326-1.0578-1.7294-2.7368-2.594-5.037-2.5941"/>
    <path style="text-align:center;" d="m410.87,574.61c-1.8469,0-3.5343-0.31062-5.0622-0.93185s-2.8459-1.5279-3.954-2.72c-1.0914-1.1921-1.9393-2.6696-2.5437-4.4326-0.60445-1.7629-0.90667-3.7777-0.90666-6.0444-0.00001-2.2834,0.27703-4.3234,0.8311-6.12,0.55407-1.7965,1.3348-3.316,2.3422-4.5585,1.0074-1.2592,2.2079-2.2162,3.6015-2.8711,1.4104-0.65478,2.9634-0.98219,4.6592-0.98221,1.6622,0.00002,3.1565,0.30224,4.4829,0.90666,1.3264,0.58767,2.4513,1.4272,3.3748,2.5185,0.92343,1.0746,1.6286,2.3758,2.1155,3.9037,0.50368,1.5111,0.75553,3.1901,0.75555,5.037v2.8459h-17.428c0.0839,3.2405,0.76394,5.6247,2.04,7.1526,1.2928,1.5279,3.2069,2.2918,5.7422,2.2918,0.85627,0,1.6454-0.042,2.3674-0.12593,0.73874-0.0839,1.4439-0.20147,2.1155-0.35259,0.68837-0.16789,1.3516-0.36937,1.9896-0.60444,0.638-0.25184,1.2844-0.52888,1.9392-0.8311v4.08c-0.67162,0.31901-1.3348,0.59605-1.9896,0.83111-0.63804,0.23506-1.3012,0.42814-1.9896,0.57925-0.67162,0.15111-1.3768,0.26025-2.1155,0.32741-0.72199,0.0672-1.5111,0.10074-2.3674,0.10074m-1.1333-24.858c-1.9141,0.00003-3.4336,0.65484-4.5585,1.9644-1.1082,1.3096-1.7546,3.2153-1.9392,5.717h12.391c-0.00002-1.1417-0.11755-2.1827-0.35259-3.123-0.21829-0.95701-0.57088-1.7713-1.0578-2.4429-0.47013-0.67158-1.0746-1.1921-1.8133-1.5615-0.73877-0.36936-1.6286-0.55405-2.6696-0.55408"/>
    <path style="text-align:center;" d="m458.85,574.1-0.68-3.7022-0.25185,0c-0.41977,0.72197-0.92347,1.3516-1.5111,1.8889-0.57088,0.5205-1.2005,0.95704-1.8889,1.3096-0.6884,0.3358-1.4188,0.58765-2.1911,0.75555-0.77236,0.1679-1.5615,0.25185-2.3674,0.25185-1.5279,0-2.8711-0.19309-4.0296-0.57926s-2.1239-0.99061-2.8963-1.8133c-0.77235-0.82271-1.36-1.8721-1.763-3.1481-0.38618-1.276-0.57926-2.7955-0.57926-4.5585v-18.058h4.5837v17.806c-0.00001,2.1827,0.44493,3.8197,1.3348,4.9111,0.88986,1.0914,2.2666,1.637,4.1303,1.637,1.36,0,2.5017-0.21827,3.4252-0.65481,0.92344-0.43654,1.6622-1.0746,2.2163-1.9141,0.57084-0.85629,0.9738-1.9057,1.2089-3.1481,0.25183-1.2424,0.37775-2.6696,0.37777-4.2815v-14.355h4.5837v27.653h-3.7022"/>
    <path style="text-align:center;" d="m487.91,566.52c-0.00002,1.3432-0.24348,2.5185-0.73037,3.5259-0.48693,1.0074-1.1921,1.8553-2.1155,2.5437-0.90668,0.67161-2.0064,1.1753-3.2992,1.5111s-2.7452,0.5037-4.357,0.5037c-1.8301,0-3.4-0.15111-4.7096-0.45333-1.3096-0.28543-2.4597-0.71358-3.4504-1.2844v-4.1807c0.52049,0.26864,1.0998,0.53728,1.7378,0.80592,0.63802,0.25185,1.3096,0.47852,2.0148,0.67999,0.70518,0.20149,1.4272,0.36939,2.1659,0.5037,0.75554,0.11754,1.5027,0.1763,2.2415,0.1763,1.0913,0,2.0148-0.0923,2.7704-0.27704,0.77232-0.18468,1.3936-0.44493,1.8637-0.78073,0.48689-0.35259,0.83948-0.77234,1.0578-1.2592,0.21825-0.5037,0.32739-1.0578,0.32741-1.6622-0.00002-0.52048-0.084-0.9906-0.25185-1.4104-0.16792-0.41974-0.47854-0.83109-0.93185-1.2341-0.43656-0.41974-1.041-0.83949-1.8133-1.2593-0.77236-0.41973-1.763-0.88985-2.9718-1.4104-1.2089-0.52047-2.3002-1.0326-3.274-1.5363-0.95704-0.50369-1.7714-1.0662-2.443-1.6874-0.6716-0.62122-1.1921-1.3348-1.5615-2.1407-0.35259-0.82269-0.52889-1.7965-0.52888-2.9215-0.00001-1.1753,0.22666-2.2163,0.67999-3.123,0.47012-0.92342,1.1249-1.6958,1.9644-2.317s1.8469-1.0913,3.0222-1.4104c1.1753-0.31898,2.4849-0.47849,3.9289-0.47851,1.6286,0.00002,3.1145,0.17632,4.4578,0.52888,1.36,0.35262,2.6444,0.81434,3.8533,1.3852l-1.5867,3.7022c-1.0914-0.48689-2.2163-0.90664-3.3748-1.2592-1.1417-0.36936-2.3086-0.55405-3.5007-0.55408-1.7126,0.00003-2.9802,0.28546-3.8029,0.8563-0.82272,0.55409-1.2341,1.3516-1.2341,2.3926-0.00001,0.58767,0.0923,1.0998,0.27703,1.5363,0.20147,0.43656,0.53727,0.84791,1.0074,1.2341,0.47011,0.38618,1.0997,0.78075,1.8889,1.1837,0.78912,0.38619,1.7713,0.82273,2.9466,1.3096,1.2089,0.50372,2.2834,1.0074,3.2237,1.5111,0.95701,0.50371,1.7713,1.0746,2.443,1.7126,0.67158,0.62124,1.1837,1.3348,1.5363,2.1407,0.35257,0.80594,0.52887,1.7714,0.52889,2.8963"/>
    <path style="text-align:center;" d="m505.56,574.61c-1.8469,0-3.5343-0.31062-5.0622-0.93185s-2.8459-1.5279-3.954-2.72c-1.0914-1.1921-1.9392-2.6696-2.5437-4.4326-0.60445-1.7629-0.90667-3.7777-0.90666-6.0444-0.00001-2.2834,0.27703-4.3234,0.8311-6.12,0.55407-1.7965,1.3348-3.316,2.3422-4.5585,1.0074-1.2592,2.2079-2.2162,3.6015-2.8711,1.4104-0.65478,2.9634-0.98219,4.6592-0.98221,1.6622,0.00002,3.1565,0.30224,4.4829,0.90666,1.3264,0.58767,2.4513,1.4272,3.3748,2.5185,0.92342,1.0746,1.6286,2.3758,2.1155,3.9037,0.50368,1.5111,0.75553,3.1901,0.75555,5.037v2.8459h-17.428c0.0839,3.2405,0.76394,5.6247,2.04,7.1526,1.2928,1.5279,3.2069,2.2918,5.7422,2.2918,0.85628,0,1.6454-0.042,2.3674-0.12593,0.73874-0.0839,1.4439-0.20147,2.1155-0.35259,0.68837-0.16789,1.3516-0.36937,1.9896-0.60444,0.63799-0.25184,1.2844-0.52888,1.9392-0.8311v4.08c-0.67162,0.31901-1.3348,0.59605-1.9896,0.83111-0.63805,0.23506-1.3012,0.42814-1.9896,0.57925-0.67162,0.15111-1.3768,0.26025-2.1155,0.32741-0.72199,0.0672-1.5111,0.10074-2.3674,0.10074m-1.1333-24.858c-1.9141,0.00003-3.4336,0.65484-4.5585,1.9644-1.1082,1.3096-1.7546,3.2153-1.9392,5.717h12.391c-0.00002-1.1417-0.11755-2.1827-0.35259-3.123-0.21829-0.95701-0.57088-1.7713-1.0578-2.4429-0.47014-0.67158-1.0746-1.1921-1.8133-1.5615-0.73878-0.36936-1.6286-0.55405-2.6696-0.55408"/>
    <path style="text-align:center;" d="m539.31,570.4-0.20148,0c-0.3694,0.57086-0.80594,1.1165-1.3096,1.637-0.48693,0.50371-1.0578,0.94864-1.7126,1.3348-0.63804,0.38617-1.36,0.68839-2.1659,0.90666-0.80594,0.21827-1.7126,0.32741-2.72,0.32741-1.5615,0-2.9886-0.30222-4.2815-0.90666-1.2928-0.60444-2.401-1.5027-3.3244-2.6948-0.92346-1.2089-1.637-2.7032-2.1407-4.4829s-0.75555-3.8449-0.75555-6.1955c0-2.3674,0.25185-4.441,0.75555-6.2207,0.5037-1.7965,1.2173-3.2992,2.1407-4.5081,0.92344-1.2088,2.0316-2.1155,3.3244-2.72,1.2928-0.6212,2.72-0.93182,4.2815-0.93184,0.99059,0.00002,1.8889,0.10916,2.6948,0.3274,0.80591,0.2183,1.5279,0.51212,2.1659,0.88148,0.65479,0.3694,1.234,0.79755,1.7378,1.2844,0.50368,0.48694,0.94022,0.99903,1.3096,1.5363h0.30222c-0.0504-0.57084-0.10076-1.1165-0.15111-1.637-0.0336-0.43651-0.0672-0.88145-0.10074-1.3348-0.0336-0.4701-0.0504-0.83948-0.0504-1.1081v-10.981h4.5837v39.188h-3.7022l-0.68-3.7022m-7.2281,0.40296c1.276,0,2.3506-0.19308,3.2237-0.57926,0.88986-0.38616,1.6034-0.97381,2.1407-1.763,0.55405-0.78912,0.95701-1.7713,1.2089-2.9466,0.26862-1.1921,0.41973-2.5772,0.45333-4.1555v-1.0326c-0.00002-1.6958-0.11755-3.1985-0.35259-4.5081-0.21829-1.3264-0.60446-2.4345-1.1585-3.3244-0.5373-0.90664-1.2593-1.5866-2.1659-2.04-0.90668-0.4701-2.04-0.70516-3.4-0.70519-2.2667,0.00003-3.9373,0.91508-5.0118,2.7452-1.0578,1.8301-1.5867,4.4578-1.5867,7.8829,0,3.5091,0.52888,6.1284,1.5867,7.8577,1.0746,1.7126,2.762,2.5689,5.0622,2.5689"/>
    <path style="text-align:center;" d="m574.22,570.85c0.30221,0,0.63801-0.0168,1.0074-0.0504,0.38616-0.0336,0.75554-0.0756,1.1081-0.12593,0.35258-0.0504,0.67159-0.10913,0.95703-0.17629,0.30221-0.0672,0.52887-0.12592,0.68-0.1763v3.4755c-0.21829,0.10074-0.49532,0.20148-0.83111,0.30222-0.33581,0.10074-0.70519,0.18469-1.1081,0.25185-0.40297,0.084-0.82272,0.14271-1.2592,0.17629-0.43655,0.0504-0.8647,0.0756-1.2844,0.0756-1.041,0-2.0064-0.13432-2.8963-0.40296-0.88988-0.26864-1.6622-0.73037-2.317-1.3852-0.63803-0.65481-1.1417-1.5363-1.5111-2.6444-0.36939-1.1249-0.55408-2.5353-0.55407-4.2311v-16.043h-3.9037v-2.04l3.9037-1.9644,1.9644-5.7926h2.6444v6.3466h6.9511v3.4503h-6.9511v16.043c-0.00001,1.6286,0.26023,2.8543,0.78074,3.677,0.53727,0.82272,1.4104,1.2341,2.6192,1.2341"/>
    <path style="text-align:center;" d="m605.93,560.23c-0.00003,2.3002-0.28546,4.3486-0.85629,6.1451-0.5541,1.7798-1.36,3.2825-2.4178,4.5081-1.041,1.2089-2.3086,2.1323-3.8029,2.7704-1.4943,0.63802-3.1733,0.95703-5.037,0.95703-1.7294,0-3.3244-0.31901-4.7852-0.95703-1.4607-0.63802-2.7284-1.5615-3.8029-2.7704-1.0578-1.2257-1.8889-2.7284-2.4933-4.5081-0.58766-1.7965-0.88148-3.8449-0.88148-6.1451,0-2.2834,0.27703-4.3066,0.83111-6.0696,0.57085-1.7797,1.3768-3.274,2.4178-4.4829,1.041-1.2256,2.3086-2.1491,3.8029-2.7704,1.5111-0.638,3.1985-0.95701,5.0622-0.95703,1.7294,0.00002,3.3244,0.31903,4.7852,0.95703,1.4607,0.62125,2.72,1.5447,3.7778,2.7704,1.0745,1.2089,1.9056,2.7032,2.4933,4.4829,0.60441,1.763,0.90663,3.7862,0.90666,6.0696m-19.342,0c-0.00001,3.5091,0.57085,6.1536,1.7126,7.9333,1.1585,1.763,3.0306,2.6444,5.6163,2.6444,2.5856,0,4.4409-0.88147,5.5659-2.6444,1.1417-1.7797,1.7126-4.4242,1.7126-7.9333-0.00002-3.5091-0.57928-6.1283-1.7378-7.8577-1.1418-1.7461-3.0054-2.6192-5.5911-2.6192-2.5857,0.00003-4.4494,0.87311-5.5911,2.6192-1.1249,1.7294-1.6874,4.3486-1.6874,7.8577"/>
    <path style="text-align:center;" d="m643.88,574.1,0-17.806c-0.00002-2.1827-0.44495-3.8197-1.3348-4.9111-0.8731-1.0913-2.2499-1.637-4.1304-1.637-1.36,0.00003-2.5017,0.2183-3.4252,0.65482-0.92346,0.43656-1.6706,1.083-2.2415,1.9392-0.55408,0.85631-0.95704,1.9057-1.2089,3.1481-0.23507,1.2425-0.3526,2.6696-0.35259,4.2815v14.33h-4.5837v-39.188h4.5837v11.635l-0.20148,3.6266h0.25185c0.41974-0.72195,0.91505-1.3432,1.4859-1.8637,0.58764-0.53726,1.2257-0.98219,1.9141-1.3348,0.68838-0.35256,1.4187-0.61281,2.1911-0.78073,0.77232-0.16788,1.5614-0.25183,2.3674-0.25185,3.0726,0.00002,5.3812,0.80594,6.9259,2.4178,1.5614,1.5951,2.3422,4.1556,2.3422,7.6814v18.058h-4.5837"/>
    <path style="text-align:center;" d="m667.96,574.61c-1.8469,0-3.5343-0.31062-5.0622-0.93185s-2.8459-1.5279-3.954-2.72c-1.0914-1.1921-1.9392-2.6696-2.5437-4.4326-0.60444-1.7629-0.90666-3.7777-0.90666-6.0444,0-2.2834,0.27703-4.3234,0.83111-6.12,0.55406-1.7965,1.3348-3.316,2.3422-4.5585,1.0074-1.2592,2.2079-2.2162,3.6014-2.8711,1.4104-0.65478,2.9634-0.98219,4.6592-0.98221,1.6622,0.00002,3.1565,0.30224,4.4829,0.90666,1.3264,0.58767,2.4513,1.4272,3.3748,2.5185,0.92343,1.0746,1.6286,2.3758,2.1156,3.9037,0.50367,1.5111,0.75552,3.1901,0.75555,5.037v2.8459h-17.428c0.0839,3.2405,0.76393,5.6247,2.04,7.1526,1.2928,1.5279,3.2069,2.2918,5.7422,2.2918,0.85628,0,1.6454-0.042,2.3674-0.12593,0.73875-0.0839,1.4439-0.20147,2.1156-0.35259,0.68837-0.16789,1.3516-0.36937,1.9896-0.60444,0.638-0.25184,1.2844-0.52888,1.9392-0.8311v4.08c-0.67162,0.31901-1.3348,0.59605-1.9896,0.83111-0.63804,0.23506-1.3012,0.42814-1.9896,0.57925-0.67162,0.15111-1.3768,0.26025-2.1156,0.32741-0.72198,0.0672-1.5111,0.10074-2.3674,0.10074m-1.1333-24.858c-1.9141,0.00003-3.4336,0.65484-4.5585,1.9644-1.1082,1.3096-1.7546,3.2153-1.9392,5.717h12.391c-0.00002-1.1417-0.11755-2.1827-0.35259-3.123-0.21829-0.95701-0.57088-1.7713-1.0578-2.4429-0.47014-0.67158-1.0746-1.1921-1.8133-1.5615-0.73878-0.36936-1.6286-0.55405-2.6696-0.55408"/>
    <path style="text-align:center;" d="m689.21,574.1-4.5837,0,0-39.188,4.5837,0,0,39.188"/>
    <path style="text-align:center;" d="m710.52,574.61c-0.99062,0-1.8889-0.10914-2.6948-0.32741-0.80594-0.21827-1.5363-0.5037-2.1911-0.85629-0.63803-0.36938-1.2089-0.79752-1.7126-1.2844-0.48692-0.4869-0.92346-0.999-1.3096-1.5363h-0.30222c0.0504,0.57086,0.10074,1.1165,0.15111,1.637,0.0336,0.43655,0.0672,0.88988,0.10074,1.36,0.0336,0.45333,0.0504,0.81431,0.0504,1.083v11.812h-4.5837v-40.044h3.7274l0.65481,3.7274h0.20148c0.38617-0.58763,0.82271-1.1333,1.3096-1.637,0.4869-0.52046,1.0494-0.9654,1.6874-1.3348,0.6548-0.38615,1.3852-0.68837,2.1911-0.90666,0.80591-0.23504,1.7126-0.35257,2.72-0.35259,1.5782,0.00002,3.0138,0.30224,4.3066,0.90666,1.2928,0.60446,2.3926,1.5111,3.2992,2.72,0.92343,1.1921,1.637,2.678,2.1407,4.4578,0.50367,1.7798,0.75552,3.8449,0.75555,6.1955-0.00003,2.3674-0.25188,4.4494-0.75555,6.2459-0.50373,1.7798-1.2173,3.2741-2.1407,4.4829-0.90668,1.2089-2.0064,2.1239-3.2992,2.7452-1.2928,0.60444-2.7284,0.90666-4.3066,0.90666m-0.88147-24.858c-1.2761,0.00003-2.359,0.19311-3.2489,0.57926-0.87309,0.38619-1.5867,0.97384-2.1407,1.763-0.53729,0.78915-0.94025,1.7714-1.2089,2.9466-0.25186,1.1753-0.39457,2.5605-0.42815,4.1555v1.0326c0,1.6958,0.10913,3.2069,0.32741,4.5333,0.23505,1.3096,0.62122,2.4178,1.1585,3.3244,0.55406,0.88988,1.2844,1.5699,2.1911,2.04,0.90665,0.45334,2.04,0.68,3.4,0.68,2.2666,0,3.9288-0.91505,4.9866-2.7452,1.0745-1.8301,1.6118-4.4577,1.6118-7.8829-0.00002-3.4923-0.5373-6.1032-1.6118-7.8326-1.0578-1.7294-2.7368-2.594-5.037-2.5941"/>
    <path style="text-align:center;" d="m80.44,638.58-4.5837,0,0-39.188,4.5837,0,0,39.188"/>
    <path style="text-align:center;" d="m104.84,638.58-0.93185-3.8281-0.20148,0c-0.55409,0.75555-1.1082,1.4104-1.6622,1.9644-0.55409,0.53728-1.1585,0.98222-1.8133,1.3348-0.65483,0.3526-1.3852,0.61284-2.1911,0.78074-0.80593,0.1679-1.7378,0.25185-2.7955,0.25185-1.1585,0-2.2247-0.1679-3.1985-0.5037-0.97383-0.31901-1.8217-0.81431-2.5437-1.4859-0.70518-0.68838-1.2593-1.5447-1.6622-2.5689-0.40296-1.041-0.60444-2.2666-0.60444-3.677-0.000002-2.7536,0.96542-4.8691,2.8963-6.3466,1.9476-1.4775,4.9027-2.2834,8.8651-2.4178l4.634-0.1763v-1.7378c-0.00001-1.1249-0.12594-2.0652-0.37777-2.8207-0.23508-0.75553-0.58767-1.36-1.0578-1.8133-0.45335-0.4701-1.0242-0.8059-1.7126-1.0074-0.67162-0.20146-1.444-0.3022-2.317-0.30222-1.3936,0.00002-2.6948,0.2015-3.9037,0.60444-1.1921,0.40298-2.3422,0.88989-3.4503,1.4607l-1.6118-3.4504c1.2425-0.67157,2.6276-1.2424,4.1555-1.7126,1.5279-0.47009,3.1313-0.70515,4.8103-0.70518,1.7126,0.00003,3.1901,0.17632,4.4326,0.52888,1.2592,0.33583,2.2918,0.88151,3.0978,1.637,0.82269,0.73879,1.4355,1.6874,1.8385,2.8459,0.40294,1.1585,0.60442,2.5605,0.60444,4.2059v18.939h-3.2992m-8.4118-3.1985c1.0242,0.00001,1.9728-0.1595,2.8459-0.47851,0.87306-0.31901,1.6286-0.79753,2.2667-1.4356,0.638-0.65481,1.1333-1.4691,1.4859-2.443,0.36937-0.9906,0.55406-2.1491,0.55407-3.4755v-2.4933l-3.6015,0.1763c-1.5111,0.0672-2.7788,0.23507-3.8029,0.5037-1.0242,0.26865-1.8469,0.64642-2.4681,1.1333-0.60445,0.47013-1.041,1.0494-1.3096,1.7378-0.26865,0.67161-0.40297,1.4356-0.40296,2.2918-0.000008,1.5447,0.40295,2.678,1.2089,3.4,0.8227,0.72197,1.8973,1.083,3.2237,1.083"/>
    <path style="text-align:center;" d="m137.66,638.58-4.2311-15.514c-0.0672-0.3022-0.15113-0.638-0.25185-1.0074-0.10076-0.38615-0.2015-0.78911-0.30222-1.2089-0.10076-0.41973-0.20989-0.84788-0.3274-1.2844-0.10076-0.43652-0.2015-0.86466-0.30223-1.2844-0.23508-0.9738-0.47853-1.9812-0.73036-3.0222h-0.15111c-0.23508,1.0578-0.46175,2.0736-0.68,3.0474-0.18471,0.83952-0.38619,1.7042-0.60444,2.5941-0.2015,0.88989-0.39458,1.6454-0.57925,2.2666l-4.3318,15.413h-5.314l-7.077-27.653h4.8103l3.2992,14.708c0.16789,0.75556,0.33579,1.5783,0.5037,2.4681,0.16789,0.87309,0.32739,1.7462,0.47851,2.6192,0.1511,0.8563,0.28542,1.6706,0.40296,2.443,0.11752,0.75555,0.20987,1.3768,0.27704,1.8637h0.15111c0.0839-0.43654,0.19307-1.0158,0.3274-1.7378,0.1511-0.73875,0.31061-1.5111,0.47852-2.317,0.18468-0.8227,0.36937-1.6286,0.55407-2.4178,0.18468-0.80591,0.36097-1.4859,0.52889-2.04l4.5081-15.59h4.9363l4.3318,15.59c0.15108,0.57087,0.31898,1.2425,0.5037,2.0148,0.20145,0.77235,0.39454,1.5615,0.57925,2.3674,0.18467,0.78913,0.35257,1.5531,0.5037,2.2918,0.15109,0.73877,0.26022,1.3516,0.32741,1.8385h0.15111c0.0503-0.43654,0.1259-1.0158,0.22666-1.7378,0.11751-0.73875,0.25183-1.5447,0.40296-2.4178,0.15109-0.87307,0.31059-1.7629,0.47852-2.6696,0.18466-0.92344,0.36935-1.7797,0.55407-2.5689l3.4504-14.708h4.6844l-7.1526,27.653h-5.4148"/>
    <path style="text-align:center;" d="m179.47,639.08c-1.8469,0-3.5343-0.31061-5.0622-0.93185-1.5279-0.62122-2.8459-1.5279-3.954-2.72-1.0914-1.1921-1.9392-2.6696-2.5437-4.4326-0.60444-1.763-0.90666-3.7778-0.90666-6.0444,0-2.2834,0.27703-4.3234,0.83111-6.12,0.55407-1.7965,1.3348-3.316,2.3422-4.5585,1.0074-1.2592,2.2079-2.2163,3.6015-2.8711,1.4104-0.65479,2.9634-0.98219,4.6592-0.98222,1.6622,0.00003,3.1565,0.30225,4.4829,0.90666,1.3264,0.58768,2.4513,1.4272,3.3748,2.5185,0.92343,1.0746,1.6286,2.3758,2.1156,3.9037,0.50367,1.5111,0.75552,3.1901,0.75555,5.037v2.8459h-17.428c0.0839,3.2405,0.76394,5.6247,2.04,7.1525,1.2928,1.5279,3.2069,2.2918,5.7422,2.2918,0.85628,0.00001,1.6454-0.042,2.3674-0.12592,0.73875-0.0839,1.4439-0.20148,2.1156-0.35259,0.68837-0.1679,1.3516-0.36938,1.9896-0.60444,0.638-0.25185,1.2844-0.52889,1.9392-0.83111v4.08c-0.67162,0.31902-1.3348,0.59605-1.9896,0.83111-0.63804,0.23506-1.3012,0.42815-1.9896,0.57926-0.67162,0.15111-1.3768,0.26024-2.1156,0.3274-0.72198,0.0672-1.5111,0.10074-2.3674,0.10074m-1.1333-24.858c-1.9141,0.00002-3.4336,0.65483-4.5585,1.9644-1.1082,1.3096-1.7546,3.2153-1.9392,5.717h12.391c-0.00002-1.1417-0.11755-2.1827-0.35259-3.1229-0.21829-0.95701-0.57088-1.7713-1.0578-2.443-0.47014-0.67158-1.0746-1.1921-1.8133-1.5615-0.73878-0.36936-1.6286-0.55405-2.6696-0.55407"/>
    <path style="text-align:center;" d="m213.42,638.58,0-17.806c-0.00002-2.1827-0.44496-3.8197-1.3348-4.9111-0.8731-1.0913-2.2499-1.637-4.1303-1.637-1.36,0.00002-2.5017,0.21829-3.4252,0.65481-0.92346,0.43656-1.6706,1.083-2.2415,1.9392-0.55408,0.85631-0.95704,1.9057-1.2089,3.1481-0.23507,1.2425-0.3526,2.6696-0.35259,4.2815v14.33h-4.5837v-27.653h3.7274l0.65482,3.7274h0.25185c0.41974-0.72194,0.91504-1.3432,1.4859-1.8637,0.58764-0.53725,1.2257-0.98219,1.9141-1.3348,0.68838-0.35257,1.4188-0.61281,2.1911-0.78074,0.77233-0.16787,1.5615-0.25182,2.3674-0.25185,3.0726,0.00003,5.3812,0.80595,6.9259,2.4178,1.5614,1.5951,2.3422,4.1556,2.3422,7.6814v18.058h-4.5837"/>
    <path style="text-align:center;" d="m238.58,614.37-6.1703,0,0,24.203-4.6089,0,0-24.203-4.8859,0,0-1.8889,4.8859-1.7126,0-2.4178c-0.00001-1.7965,0.18468-3.2824,0.55407-4.4578,0.38616-1.1921,0.93184-2.1407,1.637-2.8459,0.72196-0.70514,1.6034-1.2004,2.6444-1.4859,1.041-0.30218,2.2163-0.45329,3.5259-0.45333,0.9906,0.00004,1.8973,0.10078,2.72,0.30222,0.83949,0.18473,1.5866,0.39461,2.2415,0.62963l-1.1837,3.5511c-0.5205-0.18466-1.0914-0.34416-1.7126-0.47852-0.60445-0.15107-1.2425-0.22663-1.9141-0.22666-0.67162,0.00003-1.2509,0.084-1.7378,0.25185-0.48692,0.15114-0.88988,0.42818-1.2089,0.8311-0.31902,0.403-0.56248,0.95707-0.73036,1.6622-0.15113,0.68843-0.22668,1.5783-0.22667,2.6696v2.6192h6.1703v3.4504"/>
    <path style="text-align:center;" d="m266.13,624.7c-0.00002,2.3002-0.28545,4.3486-0.85629,6.1452-0.55409,1.7797-1.36,3.2824-2.4178,4.5081-1.041,1.2089-2.3086,2.1323-3.8029,2.7704-1.4943,0.63802-3.1733,0.95703-5.037,0.95703-1.7294,0-3.3244-0.31901-4.7852-0.95703-1.4607-0.63802-2.7284-1.5615-3.8029-2.7704-1.0578-1.2257-1.8889-2.7284-2.4933-4.5081-0.58765-1.7965-0.88148-3.8449-0.88147-6.1452-0.00001-2.2834,0.27703-4.3066,0.8311-6.0696,0.57086-1.7797,1.3768-3.274,2.4178-4.4829,1.041-1.2256,2.3086-2.1491,3.8029-2.7704,1.5111-0.63799,3.1985-0.957,5.0622-0.95703,1.7294,0.00003,3.3244,0.31904,4.7852,0.95703,1.4607,0.62126,2.72,1.5447,3.7778,2.7704,1.0745,1.2089,1.9056,2.7032,2.4933,4.4829,0.60442,1.763,0.90664,3.7862,0.90666,6.0696m-19.342,0c-0.00001,3.5091,0.57085,6.1536,1.7126,7.9333,1.1585,1.763,3.0306,2.6444,5.6163,2.6444,2.5856,0.00001,4.4409-0.88147,5.5659-2.6444,1.1417-1.7797,1.7126-4.4242,1.7126-7.9333-0.00002-3.5091-0.57928-6.1283-1.7378-7.8577-1.1417-1.7461-3.0054-2.6192-5.5911-2.6192-2.5857,0.00002-4.4494,0.8731-5.5911,2.6192-1.1249,1.7294-1.6874,4.3486-1.6874,7.8577"/>
    <path style="text-align:center;" d="m285.37,610.42c0.48689,0.00003,1.0326,0.0252,1.637,0.0756,0.60442,0.0336,1.1249,0.0924,1.5615,0.1763l-0.60444,4.2311c-0.47014-0.0839-0.95705-0.15108-1.4607-0.20148-0.48692-0.0671-0.94865-0.10071-1.3852-0.10074-1.0578,0.00003-2.0232,0.2183-2.8963,0.65481-0.87309,0.41978-1.6286,1.0326-2.2666,1.8385-0.62124,0.78915-1.1082,1.7462-1.4607,2.8711-0.33581,1.1082-0.50371,2.3422-0.5037,3.7022v14.91h-4.5837v-27.653h3.7274l0.55407,5.0622h0.20149c0.41974-0.72195,0.86467-1.4187,1.3348-2.0904,0.4869-0.67157,1.0242-1.2592,1.6118-1.763,0.60443-0.52046,1.276-0.93182,2.0148-1.2341,0.73874-0.31898,1.5782-0.47848,2.5185-0.47851"/>
    <path style="text-align:center;" d="m304.54,639.08c-1.6958,0-3.2825-0.26024-4.76-0.78073-1.4775-0.53728-2.762-1.3768-3.8533-2.5185-1.0914-1.1585-1.9476-2.6276-2.5689-4.4074-0.62123-1.7965-0.93185-3.954-0.93185-6.4726,0-2.636,0.31901-4.8691,0.95703-6.6992,0.63802-1.8469,1.5111-3.3412,2.6192-4.4829,1.1249-1.1585,2.4345-1.998,3.9289-2.5185,1.4943-0.52046,3.0978-0.7807,4.8103-0.78073,1.3096,0.00003,2.5856,0.14274,3.8281,0.42814,1.2592,0.28546,2.3086,0.63805,3.1481,1.0578l-1.36,3.8785c-0.38619-0.16788-0.81433-0.32738-1.2844-0.47852-0.47014-0.16787-0.95705-0.31059-1.4607-0.42814-0.50371-0.1343-0.99902-0.23504-1.4859-0.30222-0.48693-0.0839-0.94865-0.1259-1.3852-0.12593-2.636,0.00003-4.5585,0.84792-5.7674,2.5437-1.2089,1.679-1.8133,4.2983-1.8133,7.8577-0.00001,3.5427,0.60443,6.1368,1.8133,7.7822,1.2257,1.6286,3.081,2.443,5.5659,2.443,1.36,0.00001,2.5856-0.15111,3.677-0.45333,1.1081-0.31901,2.1155-0.68839,3.0222-1.1081v4.08c-0.90668,0.48692-1.8805,0.8563-2.9215,1.1082-1.0242,0.25185-2.2835,0.37777-3.7778,0.37777"/>
    <path style="text-align:center;" d="m328.76,639.08c-1.8469,0-3.5343-0.31061-5.0622-0.93185-1.5279-0.62122-2.8459-1.5279-3.954-2.72-1.0914-1.1921-1.9392-2.6696-2.5437-4.4326-0.60445-1.763-0.90667-3.7778-0.90667-6.0444,0-2.2834,0.27704-4.3234,0.83111-6.12,0.55407-1.7965,1.3348-3.316,2.3422-4.5585,1.0074-1.2592,2.2079-2.2163,3.6015-2.8711,1.4104-0.65479,2.9634-0.98219,4.6592-0.98222,1.6622,0.00003,3.1565,0.30225,4.4829,0.90666,1.3264,0.58768,2.4513,1.4272,3.3748,2.5185,0.92342,1.0746,1.6286,2.3758,2.1155,3.9037,0.50367,1.5111,0.75552,3.1901,0.75555,5.037v2.8459h-17.428c0.0839,3.2405,0.76394,5.6247,2.04,7.1525,1.2928,1.5279,3.2069,2.2918,5.7422,2.2918,0.85628,0.00001,1.6454-0.042,2.3674-0.12592,0.73874-0.0839,1.4439-0.20148,2.1155-0.35259,0.68837-0.1679,1.3516-0.36938,1.9896-0.60444,0.63799-0.25185,1.2844-0.52889,1.9392-0.83111v4.08c-0.67162,0.31902-1.3348,0.59605-1.9896,0.83111-0.63805,0.23506-1.3012,0.42815-1.9896,0.57926-0.67162,0.15111-1.3768,0.26024-2.1155,0.3274-0.72199,0.0672-1.5111,0.10074-2.3674,0.10074m-1.1333-24.858c-1.9141,0.00002-3.4336,0.65483-4.5585,1.9644-1.1082,1.3096-1.7546,3.2153-1.9392,5.717h12.391c-0.00002-1.1417-0.11755-2.1827-0.35259-3.1229-0.21829-0.95701-0.57088-1.7713-1.0578-2.443-0.47014-0.67158-1.0746-1.1921-1.8133-1.5615-0.73878-0.36936-1.6286-0.55405-2.6696-0.55407"/>
    <path style="text-align:center;" d="m378.56,638.58,0-17.806c-0.00004-2.1827-0.41979-3.8197-1.2592-4.9111-0.83954-1.0913-2.1408-1.637-3.9037-1.637-1.2257,0.00002-2.2667,0.2015-3.123,0.60444-0.85632,0.38619-1.5615,0.96545-2.1155,1.7378-0.53731,0.75557-0.93187,1.7042-1.1837,2.8459-0.25187,1.125-0.3778,2.4262-0.37777,3.9037v15.262h-4.6089v-17.806c-0.00002-2.1827-0.41977-3.8197-1.2592-4.9111-0.82273-1.0913-2.1156-1.637-3.8785-1.637-1.2928,0.00002-2.3758,0.21829-3.2489,0.65481-0.87309,0.43656-1.5783,1.083-2.1155,1.9392-0.5205,0.85631-0.89827,1.9057-1.1333,3.1481-0.21828,1.2425-0.32742,2.6696-0.32741,4.2815v14.33h-4.5837v-27.653h3.7274l0.65481,3.7274h0.25185c0.40295-0.72194,0.88147-1.3432,1.4356-1.8637,0.55406-0.53725,1.1585-0.98219,1.8133-1.3348,0.67159-0.35257,1.3768-0.61281,2.1155-0.78074,0.75554-0.16787,1.5195-0.25182,2.2918-0.25185,2.0148,0.00003,3.6854,0.36941,5.0118,1.1081,1.3432,0.73879,2.3338,1.8973,2.9718,3.4755h0.20148c0.43652-0.7891,0.95701-1.4691,1.5615-2.04,0.62121-0.57084,1.2928-1.041,2.0148-1.4104,0.73873-0.38615,1.5111-0.67158,2.317-0.8563,0.80589-0.18466,1.6286-0.277,2.4681-0.27703,2.9382,0.00003,5.1461,0.80595,6.6237,2.4178,1.4943,1.5951,2.2414,4.1556,2.2415,7.6814v18.058h-4.5837"/>
    <path style="text-align:center;" d="m402.61,639.08c-1.8469,0-3.5343-0.31061-5.0622-0.93185-1.5279-0.62122-2.8459-1.5279-3.954-2.72-1.0914-1.1921-1.9392-2.6696-2.5437-4.4326-0.60444-1.763-0.90666-3.7778-0.90666-6.0444,0-2.2834,0.27704-4.3234,0.83111-6.12,0.55407-1.7965,1.3348-3.316,2.3422-4.5585,1.0074-1.2592,2.2079-2.2163,3.6015-2.8711,1.4104-0.65479,2.9634-0.98219,4.6592-0.98222,1.6622,0.00003,3.1565,0.30225,4.4829,0.90666,1.3264,0.58768,2.4513,1.4272,3.3748,2.5185,0.92342,1.0746,1.6286,2.3758,2.1155,3.9037,0.50367,1.5111,0.75552,3.1901,0.75555,5.037v2.8459h-17.428c0.0839,3.2405,0.76394,5.6247,2.04,7.1525,1.2928,1.5279,3.2069,2.2918,5.7422,2.2918,0.85628,0.00001,1.6454-0.042,2.3674-0.12592,0.73874-0.0839,1.4439-0.20148,2.1155-0.35259,0.68837-0.1679,1.3516-0.36938,1.9896-0.60444,0.638-0.25185,1.2844-0.52889,1.9392-0.83111v4.08c-0.67162,0.31902-1.3348,0.59605-1.9896,0.83111-0.63804,0.23506-1.3012,0.42815-1.9896,0.57926-0.67162,0.15111-1.3768,0.26024-2.1155,0.3274-0.72199,0.0672-1.5111,0.10074-2.3674,0.10074m-1.1333-24.858c-1.9141,0.00002-3.4336,0.65483-4.5585,1.9644-1.1082,1.3096-1.7546,3.2153-1.9392,5.717h12.391c-0.00002-1.1417-0.11755-2.1827-0.35259-3.1229-0.21829-0.95701-0.57088-1.7713-1.0578-2.443-0.47014-0.67158-1.0746-1.1921-1.8133-1.5615-0.73878-0.36936-1.6286-0.55405-2.6696-0.55407"/>
    <path style="text-align:center;" d="m436.56,638.58,0-17.806c-0.00002-2.1827-0.44495-3.8197-1.3348-4.9111-0.8731-1.0913-2.2499-1.637-4.1304-1.637-1.36,0.00002-2.5017,0.21829-3.4252,0.65481-0.92346,0.43656-1.6706,1.083-2.2415,1.9392-0.55408,0.85631-0.95704,1.9057-1.2089,3.1481-0.23507,1.2425-0.3526,2.6696-0.35259,4.2815v14.33h-4.5837v-27.653h3.7274l0.65481,3.7274h0.25185c0.41974-0.72194,0.91504-1.3432,1.4859-1.8637,0.58763-0.53725,1.2257-0.98219,1.9141-1.3348,0.68838-0.35257,1.4187-0.61281,2.1911-0.78074,0.77233-0.16787,1.5615-0.25182,2.3674-0.25185,3.0726,0.00003,5.3812,0.80595,6.9259,2.4178,1.5614,1.5951,2.3422,4.1556,2.3422,7.6814v18.058h-4.5837"/>
    <path style="text-align:center;" d="m458.06,635.33c0.3022,0.00001,0.638-0.0168,1.0074-0.0504,0.38615-0.0336,0.75553-0.0755,1.1081-0.12592,0.35257-0.0504,0.67158-0.10913,0.95703-0.1763,0.3022-0.0672,0.52887-0.12592,0.68-0.17629v3.4755c-0.21829,0.10074-0.49533,0.20148-0.83111,0.30222-0.33582,0.10074-0.7052,0.18469-1.1081,0.25185-0.40298,0.0839-0.82273,0.14272-1.2592,0.1763-0.43656,0.0504-0.8647,0.0756-1.2844,0.0756-1.041,0-2.0064-0.13432-2.8963-0.40296-0.88988-0.26864-1.6622-0.73036-2.317-1.3852-0.63803-0.6548-1.1417-1.5363-1.5111-2.6444-0.36939-1.1249-0.55408-2.5353-0.55407-4.2311v-16.043h-3.9037v-2.04l3.9037-1.9644,1.9644-5.7926h2.6444v6.3466h6.9511v3.4504h-6.9511v16.043c-0.00001,1.6286,0.26023,2.8543,0.78073,3.677,0.53727,0.82271,1.4104,1.2341,2.6192,1.2341"/>
    <path style="text-align:center;" d="m466.55,635.78c0-0.63801,0.084-1.1753,0.25185-1.6118,0.1679-0.45333,0.39456-0.81431,0.67999-1.083,0.28543-0.28542,0.62123-0.4869,1.0074-0.60444,0.38616-0.13431,0.80591-0.20147,1.2592-0.20148,0.43653,0.00001,0.84789,0.0672,1.2341,0.20148,0.40296,0.11754,0.74715,0.31902,1.0326,0.60444,0.28542,0.26865,0.51209,0.62963,0.68,1.083,0.16789,0.43654,0.25184,0.97383,0.25185,1.6118-0.00001,0.62124-0.084,1.1585-0.25185,1.6118-0.16791,0.43655-0.39458,0.79753-0.68,1.083-0.28544,0.28543-0.62963,0.49531-1.0326,0.62963-0.38617,0.13432-0.79753,0.20148-1.2341,0.20148-0.45334,0-0.87309-0.0672-1.2592-0.20148-0.38618-0.13432-0.72198-0.3442-1.0074-0.62963-0.28543-0.28543-0.51209-0.64641-0.67999-1.083-0.1679-0.45332-0.25185-0.9906-0.25185-1.6118"/>
   </g>
  </g>
 </g>
</svg>
